<?xml version="1.0" encoding="UTF-8" standalone="no"?>
<!-- Created with Inkscape (http://www.inkscape.org/) -->

<svg
   xmlns:dc="http://purl.org/dc/elements/1.1/"
   xmlns:cc="http://creativecommons.org/ns#"
   xmlns:rdf="http://www.w3.org/1999/02/22-rdf-syntax-ns#"
   xmlns:svg="http://www.w3.org/2000/svg"
   xmlns="http://www.w3.org/2000/svg"
   xmlns:xlink="http://www.w3.org/1999/xlink"
   xmlns:sodipodi="http://sodipodi.sourceforge.net/DTD/sodipodi-0.dtd"
   xmlns:inkscape="http://www.inkscape.org/namespaces/inkscape"
   width="1168.4177"
   height="679.01801"
   viewBox="0 0 309.14387 179.65685"
   version="1.1"
   id="svg4790"
   inkscape:version="0.92.4 (unknown)"
   sodipodi:docname="app_seals.svg"
   inkscape:export-filename="/home/ananth/code/kuyil/kuyil.github.io/images/shrutibox_seal.png"
   inkscape:export-xdpi="192"
   inkscape:export-ydpi="192">
  <defs
     id="defs4784">
    <filter
       height="1.1146265"
       y="-0.057313249"
       width="1.1771847"
       x="-0.088592328"
       id="filter5750-8-2"
       style="color-interpolation-filters:sRGB"
       inkscape:collect="always">
      <feGaussianBlur
         id="feGaussianBlur5752-2-7"
         stdDeviation="0.99811131"
         inkscape:collect="always" />
    </filter>
    <filter
       height="1.4084232"
       y="-0.20421161"
       width="1.7005115"
       x="-0.35025573"
       id="filter5734-4-3"
       style="color-interpolation-filters:sRGB"
       inkscape:collect="always">
      <feGaussianBlur
         id="feGaussianBlur5736-2-0"
         stdDeviation="1.002272"
         inkscape:collect="always" />
    </filter>
    <radialGradient
       inkscape:collect="always"
       xlink:href="#linearGradient4329"
       id="radialGradient3176"
       gradientUnits="userSpaceOnUse"
       gradientTransform="matrix(-3.940776e-8,0.66614418,-0.50189503,-1.1330721e-8,632.55432,351.94213)"
       cx="3.7323163"
       cy="35.123737"
       fx="3.7323163"
       fy="35.123737"
       r="16" />
    <linearGradient
       id="linearGradient4329"
       inkscape:collect="always">
      <stop
         id="stop4331"
         offset="0"
         style="stop-color:#ffffff;stop-opacity:0.1" />
      <stop
         id="stop4333"
         offset="1"
         style="stop-color:#ffffff;stop-opacity:0" />
    </linearGradient>
  </defs>
  <sodipodi:namedview
     id="base"
     pagecolor="#ffffff"
     bordercolor="#666666"
     borderopacity="1.0"
     inkscape:pageopacity="0.0"
     inkscape:pageshadow="2"
     inkscape:zoom="0.5"
     inkscape:cx="584.20887"
     inkscape:cy="339.509"
     inkscape:document-units="mm"
     inkscape:current-layer="layer8"
     showgrid="false"
     units="px"
     showguides="false"
     inkscape:guide-bbox="true"
     inkscape:snap-page="true"
     inkscape:snap-object-midpoints="true"
     inkscape:object-paths="true"
     inkscape:measure-start="-74.452,136.318"
     inkscape:measure-end="90,66.5996"
     inkscape:window-width="1920"
     inkscape:window-height="1056"
     inkscape:window-x="0"
     inkscape:window-y="24"
     inkscape:window-maximized="1"
     inkscape:snap-bbox="true"
     inkscape:bbox-nodes="true"
     inkscape:snap-bbox-edge-midpoints="false"
     inkscape:snap-midpoints="true"
     inkscape:showpageshadow="true"
     showborder="true"
     inkscape:pagecheckerboard="true"
     fit-margin-top="0"
     fit-margin-left="0"
     fit-margin-right="0"
     fit-margin-bottom="0">
    <sodipodi:guide
       position="119.78281,109.16839"
       orientation="1,0"
       id="guide5337"
       inkscape:locked="false"
       inkscape:label=""
       inkscape:color="rgb(0,0,255)" />
    <sodipodi:guide
       position="115.02031,113.93089"
       orientation="0,1"
       id="guide5339"
       inkscape:locked="false"
       inkscape:label=""
       inkscape:color="rgb(0,0,255)" />
    <sodipodi:guide
       position="138.83281,109.16839"
       orientation="1,0"
       id="guide5341"
       inkscape:locked="false"
       inkscape:label=""
       inkscape:color="rgb(0,0,255)" />
    <sodipodi:guide
       position="115.02031,132.98089"
       orientation="0,1"
       id="guide5343"
       inkscape:locked="false"
       inkscape:label=""
       inkscape:color="rgb(0,0,255)" />
  </sodipodi:namedview>
  <metadata
     id="metadata4787">
    <rdf:RDF>
      <cc:Work
         rdf:about="">
        <dc:format>image/svg+xml</dc:format>
        <dc:type
           rdf:resource="http://purl.org/dc/dcmitype/StillImage" />
        <dc:title></dc:title>
      </cc:Work>
    </rdf:RDF>
  </metadata>
  <g
     style="display:inline;stroke-width:0.45833328"
     inkscape:label="adaptive_bg"
     id="layer7"
     inkscape:groupmode="layer"
     transform="matrix(2.1818184,0,0,2.1818184,114.73574,32.115546)" />
  <g
     style="display:inline;stroke-width:0.45833328"
     inkscape:label="adaptive_fg"
     id="layer8"
     inkscape:groupmode="layer"
     transform="matrix(2.1818184,0,0,2.1818184,114.73574,32.115546)">
    <g
       id="g1767"
       transform="matrix(4,0,0,4,-54.703874,-103.61963)"
       style="stroke-width:0.11458332"
       inkscape:export-filename="/home/ananth/code/kuyil/kuyil.github.io/images/shrutibox_seal.png"
       inkscape:export-xdpi="96"
       inkscape:export-ydpi="96">
      <g
         id="flowRoot1530"
         style="font-style:normal;font-variant:normal;font-weight:normal;font-stretch:normal;font-size:18.66666603px;line-height:20px;font-family:'Roboto Condensed';-inkscape-font-specification:'Roboto Condensed, ';font-variant-ligatures:normal;font-variant-caps:normal;font-variant-numeric:normal;font-feature-settings:normal;text-align:center;writing-mode:lr-tb;text-anchor:middle;opacity:1;fill:#cc0000;fill-opacity:1;fill-rule:nonzero;stroke:none;stroke-width:0.27789152;stroke-miterlimit:4;stroke-dasharray:none;stroke-dashoffset:0;stroke-opacity:1"
         transform="matrix(0.14851132,0,0,0.14851132,-21.882682,10.494768)"
         aria-label="Pocket Shruti Box">
        <path
           id="path5866"
           style="stroke-width:0.27789152"
           d="M 204.30274,91.86198 V 97.057292 H 202.63477 V 83.786459 H 206.86393 Q 208.71419,83.786459 209.77149,84.898438 210.82878,86.001303 210.82878,87.842449 210.82878,89.756511 209.81706,90.795573 208.81446,91.825521 206.98242,91.86198 Z M 204.30274,90.43099 H 206.86393 Q 207.97591,90.43099 208.56836,89.765626 209.16081,89.100261 209.16081,87.860678 209.16081,86.666667 208.55013,85.946615 207.93946,85.226563 206.87305,85.226563 H 204.30274 Z"
           inkscape:connector-curvature="0" />
        <path
           id="path5868"
           style="stroke-width:0.27789152"
           d="M 212.31445,91.670573 Q 212.31445,89.519532 213.35352,88.270834 214.40169,87.013021 216.11524,87.013021 217.82878,87.013021 218.86784,88.234376 219.91602,89.45573 219.94336,91.561198 V 92.600261 Q 219.94336,94.742188 218.9043,95.990886 217.86524,97.239584 216.13346,97.239584 214.41992,97.239584 213.38086,96.027344 212.35091,94.815105 212.31445,92.746094 Z M 213.92774,92.600261 Q 213.92774,94.122396 214.52018,94.997396 215.12175,95.863282 216.13346,95.863282 218.26628,95.863282 218.33008,92.782553 V 91.670573 Q 218.33008,90.157553 217.72852,89.282553 217.12695,88.398438 216.11524,88.398438 215.12175,88.398438 214.52018,89.282553 213.92774,90.157553 213.92774,91.661459 Z"
           inkscape:connector-curvature="0" />
        <path
           id="path5870"
           style="stroke-width:0.27789152"
           d="M 225.44857,95.863282 Q 226.25065,95.863282 226.73372,95.371094 227.2168,94.869792 227.26237,93.949219 H 228.78451 Q 228.72981,95.371094 227.77279,96.309896 226.82487,97.239584 225.44857,97.239584 223.61654,97.239584 222.65039,96.091146 221.69336,94.933594 221.69336,92.654948 V 91.570313 Q 221.69336,89.33724 222.65039,88.179688 223.60742,87.013021 225.43945,87.013021 226.95247,87.013021 227.83659,87.970053 228.72982,88.927084 228.78451,90.585938 H 227.26237 Q 227.20767,89.492188 226.73372,88.945313 226.26888,88.398438 225.43945,88.398438 224.36393,88.398438 223.8444,89.109376 223.32487,89.811198 223.30664,91.42448 V 92.682292 Q 223.30664,94.423177 223.81706,95.14323 224.33659,95.863282 225.44857,95.863282 Z"
           inkscape:connector-curvature="0" />
        <path
           id="path5872"
           style="stroke-width:0.27789152"
           d="M 233.14128,92.545573 232.28451,93.529948 V 97.057292 H 230.67122 V 83.057292 H 232.28451 V 91.433594 L 235.35612,87.195313 H 237.28841 L 234.153,91.315105 237.69857,97.057292 H 235.82096 Z"
           inkscape:connector-curvature="0" />
        <path
           id="path5874"
           style="stroke-width:0.27789152"
           d="M 242.42904,97.239584 Q 240.58789,97.239584 239.60352,96.145834 238.61914,95.042969 238.60091,92.919271 V 91.725261 Q 238.60091,89.519532 239.55794,88.270834 240.52409,87.013021 242.24674,87.013021 243.97852,87.013021 244.83529,88.115886 245.69206,89.218751 245.71029,91.552084 V 92.609375 H 240.20508 V 92.83724 Q 240.20508,94.423177 240.79753,95.14323 241.39909,95.863282 242.52018,95.863282 243.23112,95.863282 243.76888,95.598959 244.31575,95.325521 244.78971,94.742188 L 245.62825,95.763021 Q 244.58008,97.239584 242.42904,97.239584 Z M 242.24674,88.398438 Q 241.24414,88.398438 240.76107,89.091146 240.27799,89.77474 240.21419,91.223959 H 244.097 V 91.005209 Q 244.0332,89.601563 243.58659,89.000001 243.14909,88.398438 242.24674,88.398438 Z"
           inkscape:connector-curvature="0" />
        <path
           id="path5876"
           style="stroke-width:0.27789152"
           d="M 249.76628,84.807292 V 87.195313 H 251.25195 V 88.498699 H 249.76628 V 94.614584 Q 249.76628,95.197917 249.95768,95.498698 250.14909,95.79948 250.61393,95.79948 250.93294,95.79948 251.26107,95.690105 L 251.24287,97.057292 Q 250.69599,97.239584 250.12177,97.239584 249.16474,97.239584 248.66344,96.55599 248.16214,95.872396 248.16214,94.623698 V 88.498699 H 246.65823 V 87.195313 H 248.16214 V 84.807292 Z"
           inkscape:connector-curvature="0" />
        <path
           id="path5878"
           style="stroke-width:0.27789152"
           d="M 263.44727,93.703125 Q 263.44727,92.709636 262.90951,92.18099 262.37175,91.652344 260.9681,91.151042 259.56446,90.64974 258.81706,90.102865 258.07878,89.546876 257.70508,88.845053 257.3405,88.134115 257.3405,87.222657 257.3405,85.645834 258.38867,84.625001 259.44597,83.604167 261.15039,83.604167 262.31706,83.604167 263.22852,84.132813 264.13998,84.652344 264.63216,85.582032 265.12435,86.511719 265.12435,87.623699 H 263.44727 Q 263.44727,86.39323 262.85482,85.718751 262.26237,85.044272 261.15039,85.044272 260.13867,85.044272 259.58268,85.609376 259.02669,86.17448 259.02669,87.195313 259.02669,88.033855 259.62826,88.598959 260.22982,89.164063 261.48763,89.610678 263.44727,90.257813 264.28581,91.20573 265.13347,92.153646 265.13347,93.684896 265.13347,95.298177 264.08529,96.273438 263.03711,97.239584 261.23242,97.239584 260.07487,97.239584 259.0905,96.738282 258.11524,96.227865 257.55013,95.316407 256.99414,94.395834 256.99414,93.210938 H 258.67123 Q 258.67123,94.441407 259.35482,95.125 260.04753,95.808594 261.23242,95.808594 262.33529,95.808594 262.89128,95.24349 263.44727,94.678386 263.44727,93.703125 Z"
           inkscape:connector-curvature="0" />
        <path
           id="path5880"
           style="stroke-width:0.27789152"
           d="M 268.69726,88.207032 Q 269.61784,87.013021 271.04883,87.013021 273.66471,87.013021 273.70117,90.503907 V 97.057292 H 272.097 V 90.576823 Q 272.097,89.419271 271.70508,88.936198 271.32226,88.444011 270.54752,88.444011 269.94596,88.444011 269.46289,88.845053 268.98893,89.246094 268.69726,89.89323 V 97.057292 H 267.08398 V 83.057292 H 268.69726 Z"
           inkscape:connector-curvature="0" />
        <path
           id="path5882"
           style="stroke-width:0.27789152"
           d="M 280.16341,88.708334 Q 279.82617,88.644534 279.43424,88.644534 278.19466,88.644534 277.70247,90.002607 V 97.057294 H 276.08919 V 87.195315 H 277.6569 L 277.6842,88.197919 Q 278.33134,87.013023 279.51624,87.013023 279.89905,87.013023 280.15426,87.140628 Z"
           inkscape:connector-curvature="0" />
        <path
           id="path5884"
           style="stroke-width:0.27789152"
           d="M 286.80794,96.191407 Q 286.00586,97.239584 284.46549,97.239584 283.12565,97.239584 282.44206,96.319011 281.75846,95.389323 281.74935,93.621094 V 87.195313 H 283.35352 V 93.502605 Q 283.35352,95.808594 284.73893,95.808594 286.20638,95.808594 286.76237,94.496094 V 87.195313 H 288.37565 V 97.057292 H 286.8444 Z"
           inkscape:connector-curvature="0" />
        <path
           id="path5886"
           style="stroke-width:0.27789152"
           d="M 292.93294,84.807292 V 87.195313 H 294.41862 V 88.498699 H 292.93294 V 94.614584 Q 292.93294,95.197917 293.12435,95.498698 293.31575,95.79948 293.7806,95.79948 294.09961,95.79948 294.42773,95.690105 L 294.40953,97.057292 Q 293.86266,97.239584 293.28844,97.239584 292.33141,97.239584 291.83011,96.55599 291.3288,95.872396 291.3288,94.623698 V 88.498699 H 289.8249 V 87.195313 H 291.3288 V 84.807292 Z"
           inkscape:connector-curvature="0" />
        <path
           id="path5888"
           style="stroke-width:0.27789152"
           d="M 298.06445,97.057292 H 296.45117 V 87.195313 H 298.06445 Z M 298.19206,84.579428 Q 298.19206,84.989584 297.96419,85.263022 297.73633,85.536459 297.27148,85.536459 296.81575,85.536459 296.58789,85.263022 296.36003,84.989584 296.36003,84.579428 296.36003,84.169272 296.58789,83.886719 296.81575,83.604167 297.27148,83.604167 297.72721,83.604167 297.95508,83.895834 298.19206,84.178386 298.19206,84.579428 Z"
           inkscape:connector-curvature="0" />
        <path
           id="path5890"
           style="stroke-width:0.27789152"
           d="M 305.08268,97.057292 V 83.786459 H 308.86523 Q 310.67904,83.786459 311.59049,84.670574 312.51107,85.554688 312.51107,87.322917 312.51107,88.252605 312.04622,88.963542 311.58138,89.67448 310.78841,90.066407 311.69987,90.339844 312.22852,91.1875 312.76628,92.035157 312.76628,93.229167 312.76628,95.015625 311.7819,96.036459 310.80664,97.057292 308.99284,97.057292 Z M 306.75065,90.850261 V 95.626302 H 309.0293 Q 309.97721,95.626302 310.5332,95.006511 311.08919,94.377605 311.08919,93.247396 311.08919,90.850261 309.06575,90.850261 Z M 306.75065,89.446615 H 308.89258 Q 309.75846,89.446615 310.28711,88.863282 310.82487,88.279949 310.82487,87.313803 310.82487,86.220053 310.3418,85.727865 309.85872,85.226563 308.86523,85.226563 H 306.75065 Z"
           inkscape:connector-curvature="0" />
        <path
           id="path5892"
           style="stroke-width:0.27789152"
           d="M 314.68945,91.670573 Q 314.68945,89.519532 315.72852,88.270834 316.77669,87.013021 318.49023,87.013021 320.20378,87.013021 321.24284,88.234376 322.29102,89.45573 322.31836,91.561198 V 92.600261 Q 322.31836,94.742188 321.2793,95.990886 320.24023,97.239584 318.50846,97.239584 316.79492,97.239584 315.75586,96.027344 314.72591,94.815105 314.68945,92.746094 Z M 316.30273,92.600261 Q 316.30273,94.122396 316.89518,94.997396 317.49674,95.863282 318.50846,95.863282 320.64128,95.863282 320.70508,92.782553 V 91.670573 Q 320.70508,90.157553 320.10352,89.282553 319.50195,88.398438 318.49023,88.398438 317.49674,88.398438 316.89518,89.282553 316.30273,90.157553 316.30273,91.661459 Z"
           inkscape:connector-curvature="0" />
        <path
           id="path5894"
           style="stroke-width:0.27789152"
           d="M 327.06706,90.795573 328.75325,87.195313 H 330.62174 L 327.94206,92.071615 330.68555,97.057292 H 328.83529 L 327.0944,93.365886 325.3444,97.057292 H 323.48503 L 326.22852,92.071615 323.55794,87.195313 H 325.4082 Z"
           inkscape:connector-curvature="0" />
      </g>
      <g
         id="flowRoot1544"
         style="font-style:normal;font-variant:normal;font-weight:normal;font-stretch:normal;font-size:18.66666603px;line-height:20px;font-family:'Roboto Condensed';-inkscape-font-specification:'Roboto Condensed, ';font-variant-ligatures:normal;font-variant-caps:normal;font-variant-numeric:normal;font-feature-settings:normal;text-align:center;writing-mode:lr-tb;text-anchor:middle;opacity:1;fill:#4f4f4f;fill-opacity:1;fill-rule:nonzero;stroke:none;stroke-width:0.27789152;stroke-miterlimit:4;stroke-dasharray:none;stroke-dashoffset:0;stroke-opacity:1"
         transform="matrix(0.10586503,0,0,0.10586503,-10.634789,17.146849)"
         aria-label="Carnatic Tambura">
        <path
           id="path5897"
           style="font-style:normal;font-variant:normal;font-weight:normal;font-stretch:normal;font-family:Roboto;-inkscape-font-specification:Roboto;fill:#4f4f4f;fill-opacity:1;stroke-width:0.27789152"
           d="M 188.2334,92.846355 Q 187.98731,94.951823 186.67481,96.100261 185.37142,97.239584 183.20215,97.239584 180.85059,97.239584 179.42871,95.553386 178.01595,93.867188 178.01595,91.041667 V 89.765626 Q 178.01595,87.915365 178.6722,86.511719 179.33757,85.108074 180.54981,84.360678 181.76205,83.604167 183.3571,83.604167 185.47168,83.604167 186.74772,84.789063 188.02377,85.964844 188.2334,88.052084 H 186.47429 Q 186.24642,86.466146 185.4808,85.755209 184.72429,85.044272 183.3571,85.044272 181.68002,85.044272 180.72298,86.283855 179.77507,87.523438 179.77507,89.811198 V 91.096355 Q 179.77507,93.256511 180.67741,94.532552 181.57975,95.808594 183.20215,95.808594 184.66048,95.808594 185.43522,95.152344 186.21908,94.48698 186.47429,92.846355 Z"
           inkscape:connector-curvature="0" />
        <path
           id="path5899"
           style="font-style:normal;font-variant:normal;font-weight:normal;font-stretch:normal;font-family:Roboto;-inkscape-font-specification:Roboto;fill:#4f4f4f;fill-opacity:1;stroke-width:0.27789152"
           d="M 196.43653,97.057292 Q 196.29069,96.765625 196.19955,96.018229 195.02377,97.239584 193.39225,97.239584 191.93392,97.239584 190.99512,96.419271 190.06543,95.589844 190.06543,94.322917 190.06543,92.782553 191.2321,91.934896 192.40788,91.078125 194.53158,91.078125 H 196.1722 V 90.303386 Q 196.1722,89.419271 195.64356,88.89974 195.11491,88.371094 194.08496,88.371094 193.18262,88.371094 192.57194,88.826823 191.96127,89.282553 191.96127,89.929688 H 190.26595 Q 190.26595,89.191407 190.78548,88.507813 191.31413,87.815105 192.20736,87.414063 193.1097,87.013021 194.18522,87.013021 195.88965,87.013021 196.8558,87.869792 197.82194,88.717448 197.8584,90.21224 V 94.751302 Q 197.8584,96.109375 198.20475,96.911459 V 97.057292 Z M 193.63835,95.772136 Q 194.43132,95.772136 195.14225,95.36198 195.85319,94.951823 196.1722,94.295573 V 92.272136 H 194.85059 Q 191.75163,92.272136 191.75163,94.085938 191.75163,94.878907 192.28028,95.325521 192.80892,95.772136 193.63835,95.772136 Z"
           inkscape:connector-curvature="0" />
        <path
           id="path5901"
           style="font-style:normal;font-variant:normal;font-weight:normal;font-stretch:normal;font-family:Roboto;-inkscape-font-specification:Roboto;fill:#4f4f4f;fill-opacity:1;stroke-width:0.27789152"
           d="M 205.28679,88.708334 Q 204.90397,88.644534 204.45736,88.644534 202.7985,88.644534 202.20606,90.057294 V 97.057294 H 200.51986 V 87.195315 H 202.16048 L 202.18778,88.334638 Q 203.0172,87.013023 204.53934,87.013023 205.03153,87.013023 205.28674,87.140628 Z"
           inkscape:connector-curvature="0" />
        <path
           id="path5903"
           style="font-style:normal;font-variant:normal;font-weight:normal;font-stretch:normal;font-family:Roboto;-inkscape-font-specification:Roboto;fill:#4f4f4f;fill-opacity:1;stroke-width:0.27789152"
           d="M 208.4222,87.195313 208.4769,88.434896 Q 209.60711,87.013021 211.43002,87.013021 214.55633,87.013021 214.58367,90.540365 V 97.057292 H 212.89747 V 90.531251 Q 212.88847,89.464844 212.40529,88.954428 211.93133,88.444011 210.91961,88.444011 210.0993,88.444011 209.4795,88.881511 208.85971,89.319011 208.51336,90.029948 V 97.057292 H 206.82716 V 87.195313 Z"
           inkscape:connector-curvature="0" />
        <path
           id="path5905"
           style="font-style:normal;font-variant:normal;font-weight:normal;font-stretch:normal;font-family:Roboto;-inkscape-font-specification:Roboto;fill:#4f4f4f;fill-opacity:1;stroke-width:0.27789152"
           d="M 223.2334,97.057292 Q 223.08757,96.765625 222.99642,96.018229 221.82064,97.239584 220.18913,97.239584 218.7308,97.239584 217.79199,96.419271 216.86231,95.589844 216.86231,94.322917 216.86231,92.782553 218.02897,91.934896 219.20475,91.078125 221.32845,91.078125 H 222.96908 V 90.303386 Q 222.96908,89.419271 222.44043,88.89974 221.91179,88.371094 220.88184,88.371094 219.97949,88.371094 219.36882,88.826823 218.75814,89.282553 218.75814,89.929688 H 217.06283 Q 217.06283,89.191407 217.58236,88.507813 218.11101,87.815105 219.00423,87.414063 219.90658,87.013021 220.9821,87.013021 222.68653,87.013021 223.65267,87.869792 224.61882,88.717448 224.65528,90.21224 V 94.751302 Q 224.65528,96.109375 225.00163,96.911459 V 97.057292 Z M 220.43522,95.772136 Q 221.22819,95.772136 221.93913,95.36198 222.65007,94.951823 222.96908,94.295573 V 92.272136 H 221.64746 Q 218.54851,92.272136 218.54851,94.085938 218.54851,94.878907 219.07715,95.325521 219.6058,95.772136 220.43522,95.772136 Z"
           inkscape:connector-curvature="0" />
        <path
           id="path5907"
           style="font-style:normal;font-variant:normal;font-weight:normal;font-stretch:normal;font-family:Roboto;-inkscape-font-specification:Roboto;fill:#4f4f4f;fill-opacity:1;stroke-width:0.27789152"
           d="M 229.60449,84.807292 V 87.195313 H 231.44564 V 88.498699 H 229.60449 V 94.614584 Q 229.60449,95.207032 229.85059,95.507813 230.09668,95.79948 230.68913,95.79948 230.9808,95.79948 231.49121,95.690105 V 97.057292 Q 230.82585,97.239584 230.19694,97.239584 229.06673,97.239584 228.49252,96.55599 227.9183,95.872396 227.9183,94.614584 V 88.498699 H 226.12272 V 87.195313 H 227.9183 V 84.807292 Z"
           inkscape:connector-curvature="0" />
        <path
           id="path5909"
           style="font-style:normal;font-variant:normal;font-weight:normal;font-stretch:normal;font-family:Roboto;-inkscape-font-specification:Roboto;fill:#4f4f4f;fill-opacity:1;stroke-width:0.27789152"
           d="M 235.2373,97.057292 H 233.55111 V 87.195313 H 235.2373 Z M 233.41439,84.579428 Q 233.41439,84.169272 233.66048,83.886719 233.91569,83.604167 234.40788,83.604167 234.90006,83.604167 235.15527,83.886719 235.41048,84.169272 235.41048,84.579428 235.41048,84.989584 235.15527,85.263022 234.90006,85.536459 234.40788,85.536459 233.91569,85.536459 233.66048,85.263022 233.41439,84.989584 233.41439,84.579428 Z"
           inkscape:connector-curvature="0" />
        <path
           id="path5911"
           style="font-style:normal;font-variant:normal;font-weight:normal;font-stretch:normal;font-family:Roboto;-inkscape-font-specification:Roboto;fill:#4f4f4f;fill-opacity:1;stroke-width:0.27789152"
           d="M 241.88184,95.863282 Q 242.78418,95.863282 243.45866,95.316407 244.13314,94.769532 244.20606,93.949219 H 245.80111 Q 245.75551,94.796875 245.21778,95.5625 244.68002,96.328125 243.77767,96.783854 242.88444,97.239584 241.88184,97.239584 239.86752,97.239584 238.67351,95.89974 237.48861,94.550782 237.48861,92.217448 V 91.934896 Q 237.48861,90.494792 238.01726,89.373698 238.5459,88.252605 239.53028,87.632813 240.52377,87.013021 241.87272,87.013021 243.53158,87.013021 244.62533,88.006511 245.72819,89.000001 245.80111,90.585938 H 244.20606 Q 244.13316,89.628907 243.47689,89.01823 242.82975,88.398438 241.87272,88.398438 240.58757,88.398438 239.87663,89.328126 239.17481,90.248698 239.17481,91.998698 V 92.317709 Q 239.17481,94.022136 239.87663,94.942709 240.57845,95.863282 241.88184,95.863282 Z"
           inkscape:connector-curvature="0" />
        <path
           id="path5913"
           style="font-style:normal;font-variant:normal;font-weight:normal;font-stretch:normal;font-family:Roboto;-inkscape-font-specification:Roboto;fill:#4f4f4f;fill-opacity:1;stroke-width:0.27789152"
           d="M 261.39616,85.226563 H 257.13053 V 97.057292 H 255.38965 V 85.226563 H 251.13314 V 83.786459 H 261.39616 Z"
           inkscape:connector-curvature="0" />
        <path
           id="path5915"
           style="font-style:normal;font-variant:normal;font-weight:normal;font-stretch:normal;font-family:Roboto;-inkscape-font-specification:Roboto;fill:#4f4f4f;fill-opacity:1;stroke-width:0.27789152"
           d="M 268.18653,97.057292 Q 268.04069,96.765625 267.94955,96.018229 266.77377,97.239584 265.14225,97.239584 263.68392,97.239584 262.74512,96.419271 261.81543,95.589844 261.81543,94.322917 261.81543,92.782553 262.9821,91.934896 264.15788,91.078125 266.28158,91.078125 H 267.9222 V 90.303386 Q 267.9222,89.419271 267.39356,88.89974 266.86491,88.371094 265.83496,88.371094 264.93262,88.371094 264.32194,88.826823 263.71127,89.282553 263.71127,89.929688 H 262.01595 Q 262.01595,89.191407 262.53548,88.507813 263.06413,87.815105 263.95736,87.414063 264.8597,87.013021 265.93522,87.013021 267.63965,87.013021 268.6058,87.869792 269.57194,88.717448 269.6084,90.21224 V 94.751302 Q 269.6084,96.109375 269.95475,96.911459 V 97.057292 Z M 265.38835,95.772136 Q 266.18132,95.772136 266.89225,95.36198 267.60319,94.951823 267.9222,94.295573 V 92.272136 H 266.60059 Q 263.50163,92.272136 263.50163,94.085938 263.50163,94.878907 264.03028,95.325521 264.55892,95.772136 265.38835,95.772136 Z"
           inkscape:connector-curvature="0" />
        <path
           id="path5917"
           style="font-style:normal;font-variant:normal;font-weight:normal;font-stretch:normal;font-family:Roboto;-inkscape-font-specification:Roboto;fill:#4f4f4f;fill-opacity:1;stroke-width:0.27789152"
           d="M 273.8558,87.195313 273.9014,88.289063 Q 274.98603,87.013021 276.82718,87.013021 278.89619,87.013021 279.64359,88.598959 280.13577,87.888021 280.91963,87.450521 281.7126,87.013021 282.78812,87.013021 286.03291,87.013021 286.0876,90.449219 V 97.057292 H 284.4014 V 90.54948 Q 284.4014,89.492188 283.91833,88.972657 283.43525,88.444011 282.29593,88.444011 281.35713,88.444011 280.73734,89.009115 280.11755,89.565105 280.01728,90.513021 V 97.057292 H 278.32197 V 90.595053 Q 278.32197,88.444011 276.2165,88.444011 274.55765,88.444011 273.94697,89.856771 V 97.057292 H 272.26077 V 87.195313 Z"
           inkscape:connector-curvature="0" />
        <path
           id="path5919"
           style="font-style:normal;font-variant:normal;font-weight:normal;font-stretch:normal;font-family:Roboto;-inkscape-font-specification:Roboto;fill:#4f4f4f;fill-opacity:1;stroke-width:0.27789152"
           d="M 296.98861,92.235678 Q 296.98861,94.496094 295.94954,95.872396 294.91048,97.239584 293.16048,97.239584 291.29199,97.239584 290.27116,95.917969 L 290.18916,97.057292 H 288.63968 V 83.057292 H 290.32588 V 88.279949 Q 291.34671,87.013021 293.14228,87.013021 294.93786,87.013021 295.95869,88.371094 296.98864,89.729167 296.98864,92.089844 Z M 295.30241,92.044271 Q 295.30241,90.321615 294.63704,89.382813 293.97168,88.444011 292.72298,88.444011 291.05501,88.444011 290.32585,89.99349 V 94.259115 Q 291.10059,95.808594 292.74121,95.808594 293.95345,95.808594 294.62793,94.869792 295.30241,93.93099 295.30241,92.044271 Z"
           inkscape:connector-curvature="0" />
        <path
           id="path5921"
           style="font-style:normal;font-variant:normal;font-weight:normal;font-stretch:normal;font-family:Roboto;-inkscape-font-specification:Roboto;fill:#4f4f4f;fill-opacity:1;stroke-width:0.27789152"
           d="M 305.19173,96.082032 Q 304.20735,97.239584 302.30241,97.239584 300.72558,97.239584 299.89616,96.328125 299.07584,95.407552 299.06673,93.61198 V 87.195313 H 300.75293 V 93.566407 Q 300.75293,95.808594 302.57584,95.808594 304.50814,95.808594 305.14616,94.36849 V 87.195313 H 306.83235 V 97.057292 H 305.22819 Z"
           inkscape:connector-curvature="0" />
        <path
           id="path5923"
           style="font-style:normal;font-variant:normal;font-weight:normal;font-stretch:normal;font-family:Roboto;-inkscape-font-specification:Roboto;fill:#4f4f4f;fill-opacity:1;stroke-width:0.27789152"
           d="M 314.15136,88.708334 Q 313.76855,88.644534 313.32194,88.644534 311.66308,88.644534 311.07064,90.057294 V 97.057294 H 309.38444 V 87.195315 H 311.02506 L 311.05246,88.334638 Q 311.88188,87.013023 313.40402,87.013023 313.89621,87.013023 314.15141,87.140628 Z"
           inkscape:connector-curvature="0" />
        <path
           id="path5925"
           style="font-style:normal;font-variant:normal;font-weight:normal;font-stretch:normal;font-family:Roboto;-inkscape-font-specification:Roboto;fill:#4f4f4f;fill-opacity:1;stroke-width:0.27789152"
           d="M 321.41568,97.057292 Q 321.26985,96.765625 321.1787,96.018229 320.00292,97.239584 318.37141,97.239584 316.91308,97.239584 315.97428,96.419271 315.04459,95.589844 315.04459,94.322917 315.04459,92.782553 316.21126,91.934896 317.38704,91.078125 319.51073,91.078125 H 321.15136 V 90.303386 Q 321.15136,89.419271 320.62271,88.89974 320.09407,88.371094 319.06412,88.371094 318.16178,88.371094 317.5511,88.826823 316.94042,89.282553 316.94042,89.929688 H 315.24511 Q 315.24511,89.191407 315.76464,88.507813 316.29329,87.815105 317.18652,87.414063 318.08886,87.013021 319.16438,87.013021 320.86881,87.013021 321.83495,87.869792 322.8011,88.717448 322.83756,90.21224 V 94.751302 Q 322.83756,96.109375 323.18391,96.911459 V 97.057292 Z M 318.61751,95.772136 Q 319.41047,95.772136 320.12141,95.36198 320.83235,94.951823 321.15136,94.295573 V 92.272136 H 319.82974 Q 316.73079,92.272136 316.73079,94.085938 316.73079,94.878907 317.25943,95.325521 317.78808,95.772136 318.61751,95.772136 Z"
           inkscape:connector-curvature="0" />
      </g>
      <g
         id="g1644"
         style="stroke-width:0.11458332">
        <ellipse
           ry="2.9104164"
           rx="2.9104166"
           cy="25.135418"
           cx="3.4395833"
           id="path54-9"
           style="display:inline;fill:#cc0000;fill-opacity:1;stroke:none;stroke-width:0.11458332;stroke-miterlimit:4;stroke-dasharray:none;stroke-opacity:1" />
        <path
           inkscape:label="outer_flower"
           inkscape:connector-curvature="0"
           id="ellipse40"
           d="M 3.6722586,22.46795 C 3.5641391,22.45648 3.4395728,22.635695 3.4395728,23.02374 3.4391702,22.26374 2.9381742,22.291449 3.0729405,23.05575 3.0729755,23.055946 3.0730635,23.056036 3.0731043,23.05625 A 2.1116737,2.1116737 0 0 0 3.0729405,23.05625 C 3.0729086,23.05607 3.0729736,23.055955 3.0729405,23.05575 2.9405749,22.307365 2.4519128,22.421684 2.7173502,23.15097 2.7176044,23.15172 2.7180952,23.15197 2.7183102,23.15257 A 2.1116737,2.1116737 0 0 0 2.7176602,23.152879 C 2.7174387,23.152229 2.7176019,23.151679 2.7173505,23.150979 2.45704,22.436949 1.995641,22.634418 2.3836845,23.306529 2.3842445,23.307529 2.3851045,23.307829 2.3856045,23.308629 A 2.1116737,2.1116737 0 0 0 2.3844945,23.309129 C 2.3840919,23.308329 2.3842241,23.307529 2.3836895,23.306629 2.003344,22.64865 1.5833307,22.923354 2.0821902,23.517871 2.0827502,23.518521 2.0834702,23.518621 2.0839502,23.519171 A 2.1116737,2.1116737 0 0 0 2.0833152,23.519821 C 2.0828477,23.519221 2.0827702,23.518621 2.0821852,23.517921 1.5933609,22.935983 1.2274566,23.279272 1.821974,23.778131 1.2395237,23.289918 0.9386209,23.691591 1.6107323,24.079631 1.6114273,24.080033 1.6120423,24.079934 1.6126523,24.080281 A 2.1116737,2.1116737 0 0 0 1.6121711,24.080931 C 1.611601,24.080591 1.611391,24.080081 1.6107311,24.079631 0.9523522,23.699977 0.72589679,24.147861 1.4551804,24.413297 1.4562104,24.413669 1.4570404,24.413334 1.4579004,24.413607 A 2.1116737,2.1116737 0 0 0 1.4575814,24.414807 C 1.4567364,24.414466 1.4562214,24.413707 1.4551914,24.413307 0.74088841,24.153747 0.59567574,24.634131 1.3599724,24.768897 1.3607924,24.769045 1.3613524,24.768627 1.3620524,24.768733 A 2.1116737,2.1116737 0 0 0 1.3618885,24.769683 C 1.3612035,24.769552 1.3607785,24.769033 1.3599685,24.768883 0.61145252,24.637312 0.55188205,25.135524 1.3279695,25.135524 0.56796934,25.135927 0.59567886,25.636922 1.3599755,25.502156 1.3601721,25.502122 1.3602623,25.502033 1.3604567,25.501992 A 2.1116737,2.1116737 0 0 0 1.3604567,25.502156 C 1.3602764,25.502188 1.3601618,25.502123 1.3599755,25.502156 0.6115907,25.634522 0.72591065,26.123184 1.4551945,25.857746 1.4558995,25.857493 1.4561845,25.856946 1.4567945,25.856796 A 2.1116737,2.1116737 0 0 0 1.4571135,25.857446 C 1.4564885,25.857667 1.4559135,25.857504 1.4551935,25.857756 0.74116347,26.118066 0.9386327,26.579465 1.6107442,26.191422 1.6117242,26.190872 1.6120342,26.190022 1.6128242,26.189522 A 2.1116737,2.1116737 0 0 0 1.6133054,26.190622 C 1.6125304,26.191024 1.6116654,26.190892 1.6107454,26.191422 0.9527655,26.571767 1.2274697,26.991781 1.821987,26.492922 1.822652,26.492372 1.822712,26.491622 1.823267,26.491222 A 2.1116737,2.1116737 0 0 0 1.823902,26.491872 C 1.823322,26.49233 1.822662,26.492422 1.821982,26.492972 1.2400448,26.981796 1.583334,27.3477 2.0821934,26.753183 1.5939805,27.335633 1.9956494,27.636536 2.3836928,26.964425 2.3840953,26.963725 2.383996,26.963125 2.3843428,26.962525 A 2.1116737,2.1116737 0 0 0 2.3849928,26.963025 C 2.3846521,26.963575 2.3840928,26.963825 2.3837228,26.964425 2.0040685,27.622804 2.4519508,27.849259 2.7173887,27.119975 2.7177603,27.118975 2.7174259,27.118075 2.7176984,27.117275 A 2.1116737,2.1116737 0 0 0 2.7188084,27.117585 C 2.7184677,27.118435 2.7177484,27.118885 2.7173584,27.119985 2.4577979,27.834288 2.9381825,27.979501 3.0729487,27.215205 3.0730961,27.214405 3.0726781,27.213805 3.0727846,27.213105 A 2.1116737,2.1116737 0 0 0 3.0737446,27.213269 C 3.0736136,27.213969 3.0730946,27.214369 3.0729396,27.215169 2.9413683,27.963685 3.4395803,28.023255 3.4395803,27.247169 3.4399828,28.007169 3.9409788,27.979459 3.8062125,27.215159 3.8061776,27.214962 3.8060896,27.214872 3.8060487,27.214659 A 2.1116737,2.1116737 0 0 0 3.8062125,27.214659 C 3.8062442,27.214839 3.8061794,27.214954 3.8062125,27.215159 3.9385781,27.963543 4.4272401,27.849224 4.1618025,27.119939 4.1615486,27.119189 4.1610625,27.118939 4.1608425,27.118339 A 2.1116737,2.1116737 0 0 0 4.1614925,27.11803 C 4.1617137,27.11868 4.1615504,27.11923 4.1618022,27.11993 4.4221127,27.83396 4.8835112,27.636491 4.4954682,26.964379 4.4949082,26.963379 4.4940482,26.963079 4.4935482,26.962279 A 2.1116737,2.1116737 0 0 0 4.4946682,26.961779 C 4.4950708,26.962529 4.4949386,26.963379 4.4954732,26.964279 4.8758185,27.62226 5.2958324,27.347555 4.7969725,26.753038 4.7964125,26.752388 4.7957025,26.752288 4.7952025,26.751838 A 2.1116737,2.1116737 0 0 0 4.7958526,26.751188 C 4.7963201,26.751788 4.7964126,26.752388 4.7969626,26.753088 5.2857875,27.335026 5.651692,26.991736 5.0571741,26.492877 5.6396245,26.98109 5.9405275,26.579417 5.2684154,26.191378 5.2677154,26.190975 5.2671154,26.191074 5.2665154,26.190728 A 2.1116737,2.1116737 0 0 0 5.2670154,26.190078 C 5.2675654,26.190418 5.2677654,26.190928 5.2684654,26.191378 5.9268444,26.571032 6.1532994,26.123148 5.4240164,25.857712 5.4230164,25.857341 5.4221664,25.857675 5.4212664,25.857402 A 2.1116737,2.1116737 0 0 0 5.4215759,25.856302 C 5.4223759,25.856643 5.4229259,25.857302 5.4239759,25.857802 6.1382794,26.117363 6.2834924,25.636978 5.5191949,25.502212 5.5183949,25.502065 5.5178449,25.502483 5.5171449,25.502376 A 2.1116737,2.1116737 0 0 0 5.5173084,25.501426 C 5.5180084,25.501558 5.5184584,25.502076 5.5192084,25.502226 6.2677239,25.633798 6.3272939,25.135586 5.5512034,25.135586 6.3112029,25.135183 6.2834934,24.634187 5.5191984,24.768953 5.5190019,24.768988 5.5189114,24.769077 5.5186984,24.769117 A 2.1116737,2.1116737 0 0 0 5.5186984,24.768953 C 5.5188789,24.768922 5.5189929,24.768987 5.5191984,24.768953 6.2675829,24.636588 6.1532629,24.147926 5.4239804,24.413363 5.4232304,24.413617 5.4229804,24.414113 5.4223804,24.414313 A 2.1116737,2.1116737 0 0 0 5.4220704,24.413663 C 5.4227204,24.413442 5.4233204,24.413605 5.4239704,24.413353 6.1379999,24.153043 5.9405309,23.691644 5.2684194,24.079688 5.2674194,24.080238 5.2671194,24.081088 5.2663694,24.081588 A 2.1116737,2.1116737 0 0 0 5.2658694,24.080488 C 5.2666194,24.080085 5.2675194,24.080217 5.2684194,24.079688 5.9263999,23.699342 5.6516954,23.279329 5.0571777,23.778188 5.0565427,23.778738 5.0564627,23.779488 5.0559177,23.779988 A 2.1116737,2.1116737 0 0 0 5.0552877,23.779338 C 5.0558727,23.77888 5.0565077,23.778788 5.0572277,23.778138 5.6391653,23.289314 5.2958763,22.923409 4.7970163,23.517927 5.2852298,22.935476 4.8835603,22.634574 4.4955173,23.306685 4.4951147,23.307435 4.4952141,23.307985 4.4948673,23.308585 A 2.1116737,2.1116737 0 0 0 4.4942173,23.308085 C 4.494558,23.307535 4.4951173,23.307285 4.4954873,23.306685 4.8751415,22.648305 4.4272593,22.42185 4.1618216,23.151134 4.16145,23.152134 4.1617845,23.152934 4.1615119,23.153834 A 2.1116737,2.1116737 0 0 0 4.1604019,23.153524 C 4.1607426,23.152724 4.1614619,23.152124 4.1618519,23.151124 4.4214127,22.43682 3.9410282,22.291608 3.8062619,23.055904 3.8061145,23.056704 3.8065323,23.057304 3.8064257,23.058004 A 2.1116737,2.1116737 0 0 0 3.8054657,23.05784 C 3.8055971,23.05714 3.8061157,23.05674 3.8062708,23.05594 3.8720608,22.681678 3.7804428,22.47961 3.6723245,22.468144 Z"
           style="display:inline;fill:#ffffff;fill-opacity:1;stroke:none;stroke-width:0.12126736;stroke-miterlimit:4;stroke-dasharray:none;stroke-opacity:1;filter:url(#filter11494)" />
        <g
           style="stroke-width:0.37000561"
           transform="matrix(0.30967999,0,0,0.30967999,-0.98495835,20.710881)"
           id="g52">
          <path
             style="display:inline;fill:#cc0000;fill-opacity:1;stroke:none;stroke-width:2.96004558;stroke-linecap:butt;stroke-linejoin:miter;stroke-miterlimit:4;stroke-dasharray:none;stroke-opacity:1"
             d="M 47.646484,32.083984 C 45.468073,32.22744 43.239372,35.346054 45.679688,39.542969 42.894658,34.772655 38.328311,35.908948 37.886719,38.373047 37.180254,42.315132 37.47458,42.898401 36.90625,44.097656 36.151629,45.189354 35.502122,45.223783 32.441406,47.806641 30.52511,49.423752 31.798267,53.967171 37.318359,53.96875 A 16.670917,16.670917 0 0 0 37.318359,53.97075 C 31.786963,53.99267 30.486166,58.519446 32.400391,60.134813 35.461106,62.71767 36.112766,62.753932 36.867188,63.84575 37.435313,65.045119 37.141192,65.626318 37.847656,69.568406 38.291112,72.042916 42.885408,73.215703 45.644531,68.392625 45.645731,68.390525 45.645316,68.388825 45.646531,68.386725 A 16.670917,16.670917 0 0 0 45.712941,68.425785 C 45.707841,68.434585 45.702861,68.439535 45.697311,68.449225 42.950516,73.250468 46.220158,76.639152 48.576217,75.789068 52.343397,74.429842 52.700731,73.884787 54.023483,73.77735 55.346229,73.885028 55.701615,74.429838 59.468795,75.789068 61.833513,76.642278 65.145047,73.250234 62.347701,68.449225 62.334401,68.426395 62.320571,68.413025 62.308641,68.394535 A 16.670917,16.670917 0 0 0 62.318441,68.388635 C 62.328721,68.408135 62.334441,68.426355 62.347741,68.449185 65.132342,73.228598 69.702782,72.092369 70.144616,69.626919 70.851082,65.68483 70.556757,65.101565 71.125085,63.90231 71.879709,62.810612 72.531164,62.776183 75.591882,60.193325 77.51314,58.572021 76.230382,54.007198 70.673913,54.029263 70.666913,54.029291 70.662913,54.031163 70.656333,54.031263 A 16.670917,16.670917 0 0 0 70.660233,53.970713 C 76.191629,53.948793 77.492427,49.42397 75.578202,47.808604 72.517484,45.225746 71.867778,45.189485 71.113358,44.097666 70.545231,42.898297 70.839344,42.315146 70.132889,38.373057 69.689431,35.898548 65.095137,34.727713 62.336015,39.550791 65.082808,34.749547 61.813167,31.360863 59.457108,32.210948 55.689928,33.570174 55.332594,34.115226 54.009843,34.222666 52.687095,34.114994 52.329757,33.570175 48.562577,32.210948 48.266987,32.104296 47.957957,32.063488 47.646561,32.083994 Z"
             transform="scale(0.26458333)"
             id="use852-2"
             inkscape:connector-curvature="0"
             inkscape:label="lotus" />
          <path
             style="display:inline;fill:#ffcc00;fill-opacity:1;stroke:none;stroke-width:0.39158934;stroke-miterlimit:4;stroke-dasharray:none;stroke-opacity:1"
             d="M 18.695605,14.279973 A 4.4108467,4.4108467 0 0 1 14.284759,18.69082 4.4108467,4.4108467 0 0 1 9.8739119,14.279973 4.4108467,4.4108467 0 0 1 14.284759,9.8691263 4.4108467,4.4108467 0 0 1 18.695605,14.279973 Z"
             id="circle6277-5"
             inkscape:connector-curvature="0"
             inkscape:label="inner_circle" />
          <path
             style="display:inline;fill:#cc0000;fill-opacity:1;stroke:none;stroke-width:2.96004558;stroke-linecap:butt;stroke-linejoin:miter;stroke-miterlimit:4;stroke-dasharray:none;stroke-opacity:1"
             d="M 54,38.798828 C 50.551817,42.655685 51.209817,48.00644 52.482422,51.3125 50.30595,48.475012 46.053402,45.097936 40.835938,46.398438 42.452104,51.313454 47.414586,53.419979 50.914062,53.970703 47.368526,54.437017 42.318303,56.433207 40.835938,61.601562 45.902334,62.659799 50.207602,59.410192 52.433594,56.654297 51.063589,59.957613 50.263661,65.331576 54,69.201172 57.448183,65.344315 56.790183,59.99356 55.517578,56.6875 57.69405,59.524988 61.946598,62.902064 67.164062,61.601562 65.547896,56.686546 60.585414,54.580021 57.085938,54.029297 60.631474,53.562984 65.681697,51.566791 67.164062,46.398438 62.097666,45.340198 57.792398,48.589808 55.566406,51.345703 56.936411,48.042387 57.736339,42.668424 54,38.798828 Z"
             transform="scale(0.26458333)"
             id="path4733-7"
             inkscape:connector-curvature="0"
             inkscape:label="inner_flower" />
        </g>
      </g>
    </g>
    <g
       style="display:none;stroke-width:0.96861243"
       inkscape:label="boundary--HIDEIT"
       id="g3006"
       transform="matrix(0.12523222,0,0,0.12516174,4.2927211,7.8700122)">
      <path
         inkscape:connector-curvature="0"
         style="display:inline;opacity:1;fill:#786a3a;fill-opacity:1;stroke:none;stroke-width:0.96861243;stroke-miterlimit:4;stroke-dasharray:none;stroke-dashoffset:0;stroke-opacity:1"
         d="M 37,2 H 11 C 9.338,2 8,3.338 8,5 V 43 C 8,44.662 9.338,46 11,46 H 37 C 38.662,46 40,44.662 40,43 V 5 C 40,3.338 38.662,2 37,2 Z"
         id="path3004" />
    </g>
    <g
       style="display:none;stroke-width:0.96861243"
       inkscape:label="keylines"
       id="g3018"
       transform="matrix(0.12523222,0,0,0.12516174,4.2927211,7.8700122)">
      <rect
         rx="2.9050195"
         ry="2.9066556"
         y="5.0099998"
         x="5"
         height="37.990002"
         width="37.990002"
         id="rect3008"
         style="opacity:1;fill:none;fill-opacity:1;stroke:#212121;stroke-width:0.00968612;stroke-miterlimit:4;stroke-dasharray:none;stroke-dashoffset:0;stroke-opacity:1" />
      <rect
         ry="2.9066556"
         rx="2.9050193"
         style="opacity:1;fill:none;fill-opacity:1;stroke:#212121;stroke-width:0.00968612;stroke-miterlimit:4;stroke-dasharray:none;stroke-dashoffset:0;stroke-opacity:1"
         id="rect3010"
         width="31.990002"
         height="43.990002"
         x="8.0500002"
         y="1.960003" />
      <rect
         ry="2.9050195"
         rx="2.9066553"
         transform="rotate(90)"
         y="-46.040001"
         x="7.9599996"
         height="43.990002"
         width="31.99"
         id="rect3012"
         style="opacity:1;fill:none;fill-opacity:1;stroke:#212121;stroke-width:0.00968613;stroke-miterlimit:4;stroke-dasharray:none;stroke-dashoffset:0;stroke-opacity:1" />
      <circle
         r="21.995001"
         cy="23.955002"
         cx="24.045"
         id="circle3014"
         style="opacity:1;fill:none;fill-opacity:1;stroke:#212121;stroke-width:0.00968612;stroke-miterlimit:4;stroke-dasharray:none;stroke-dashoffset:0;stroke-opacity:1" />
      <circle
         style="opacity:1;fill:none;fill-opacity:1;stroke:#212121;stroke-width:0.00968612;stroke-miterlimit:4;stroke-dasharray:none;stroke-dashoffset:0;stroke-opacity:1"
         id="circle3016"
         cx="24"
         cy="24"
         r="9.9949999" />
    </g>
    <g
       id="g1920"
       inkscape:export-filename="/home/ragu/code/kuyil.github.io/images/sadhakam_seal.png"
       inkscape:export-xdpi="96"
       inkscape:export-ydpi="96">
      <g
         transform="matrix(0.48323783,0,0,0.49848691,-52.486929,15.054343)"
         id="g3062"
         inkscape:label="design"
         style="display:inline;stroke-width:0.2470794">
        <g
           inkscape:groupmode="layer"
           id="g3022"
           inkscape:label="background"
           style="display:inline;stroke-width:0.2470794"
           sodipodi:insensitive="true">
          <path
             id="path3020"
             d="M 37,2 H 11 C 9.338,2 8,3.338 8,5 V 43 C 8,44.662 9.338,46 11,46 H 37 C 38.662,46 40,44.662 40,43 V 5 C 40,3.338 38.662,2 37,2 Z"
             style="display:inline;opacity:1;fill:#ffff8d;fill-opacity:1;stroke:none;stroke-width:0.2470794;stroke-miterlimit:4;stroke-dasharray:none;stroke-dashoffset:0;stroke-opacity:1"
             inkscape:connector-curvature="0" />
        </g>
        <g
           inkscape:groupmode="layer"
           id="g3040"
           inkscape:label="singer"
           style="display:inline;stroke-width:0.2470794">
          <g
             inkscape:groupmode="layer"
             id="g3026"
             inkscape:label="shadow"
             style="display:inline;stroke-width:0.2470794"
             sodipodi:insensitive="true">
            <path
               style="display:inline;opacity:1;fill:#3e2723;fill-opacity:0.4;stroke:none;stroke-width:0.2470794;stroke-miterlimit:4;stroke-dasharray:none;stroke-dashoffset:0;stroke-opacity:1;filter:url(#filter5750-8-2)"
               d="M 10.999999,44.796 C 9.3380004,44.796 7.9999999,43.459122 8,41.798516 L 8.0000024,5.9960364 C 8.0000025,4.3354303 9.3379994,2.999954 10.999999,2.999954 H 30.415416 C 30.983949,8.4548251 34.578162,17.60365 35.028121,21.126193 35.285025,23.137393 31.005509,21.734257 30,23.250687 29.079727,24.63857 30,27.016728 30,27.016728 30,27.016728 20.508089,26.419836 19.593741,28.458709 18,32.012534 26.761569,39.971738 26.761569,39.971738 L 24.490226,44.796 Z"
               id="path3024"
               inkscape:connector-curvature="0"
               sodipodi:nodetypes="sssscsscsccs" />
          </g>
          <g
             inkscape:groupmode="layer"
             id="g3030"
             inkscape:label="singer_main"
             style="display:inline;opacity:1;stroke-width:0.2470794"
             sodipodi:insensitive="true">
            <path
               style="display:inline;opacity:1;fill:#d50000;fill-opacity:1;stroke:none;stroke-width:0.2470794;stroke-miterlimit:4;stroke-dasharray:none;stroke-dashoffset:0;stroke-opacity:1"
               d="M 10.999999,46 C 9.3379994,46 7.9999993,44.663122 7.9999994,43.002516 L 8.0000024,4.9960824 C 8.0000025,3.3354763 9.3379994,2 10.999999,2 H 30.415416 C 30.983949,7.4548711 34.578162,16.603696 35.028121,20.126239 35.285025,22.137439 31.005509,20.734303 30,22.250733 29.079727,23.638616 30,26.016774 30,26.016774 30,26.016774 20.508089,25.419882 19.593741,27.458755 18,31.01258 26.761569,38.971784 26.761569,38.971784 L 23.452568,46 Z"
               id="path3028"
               inkscape:connector-curvature="0"
               sodipodi:nodetypes="sssscsscsccs" />
          </g>
          <g
             inkscape:groupmode="layer"
             id="g3034"
             inkscape:label="shade"
             style="display:inline;stroke-width:0.2470794">
            <path
               style="display:inline;opacity:0.2;fill:#3e2723;fill-opacity:1;stroke:none;stroke-width:0.2470794;stroke-miterlimit:4;stroke-dasharray:none;stroke-dashoffset:0;stroke-opacity:1"
               d="M 8.0107577,43.259354 C 8.1428708,44.7963 9.426448,46 11,46 H 23.452568 L 23.570272,45.75 H 11 C 9.4913634,45.75 8.4857838,44.2863 8.0107577,43.259354 Z"
               id="path3032"
               inkscape:connector-curvature="0"
               sodipodi:nodetypes="csccsc" />
          </g>
          <g
             inkscape:groupmode="layer"
             id="g3038"
             inkscape:label="tint"
             style="display:inline;stroke-width:0.2470794"
             sodipodi:insensitive="true">
            <path
               style="display:inline;opacity:0.2;fill:#ffffff;fill-opacity:1;stroke:none;stroke-width:0.2470794;stroke-miterlimit:4;stroke-dasharray:none;stroke-dashoffset:0;stroke-opacity:1"
               d="M 11,2 C 9.3379998,2 8.0000001,3.3354877 8,4.9960938 V 5.375 5.375 C 8.0304653,3.8628969 9.2476969,2.2500005 10.922767,2.2500005 H 30.443266 L 30.415416,2 Z"
               id="path3036"
               inkscape:connector-curvature="0"
               sodipodi:nodetypes="ssccsccs" />
          </g>
        </g>
        <g
           inkscape:groupmode="layer"
           id="g3060"
           inkscape:label="music_note"
           style="display:inline;stroke-width:0.2470794">
          <g
             inkscape:groupmode="layer"
             id="g3044"
             inkscape:label="shadow"
             style="display:inline;stroke-width:0.2470794"
             sodipodi:insensitive="true">
            <path
               style="display:inline;opacity:1;fill:#3e2723;fill-opacity:0.40269464;stroke-width:0.2470794;filter:url(#filter5734-4-3)"
               inkscape:connector-curvature="0"
               d="M 33.685807,30.463024 34.367026,37.059541 C 33.976027,36.88201 33.537497,36.794655 33.081274,36.841763 31.700099,36.984392 30.696934,38.218611 30.839567,39.599785 30.982206,40.98096 32.216419,41.984125 33.597592,41.841492 37.191352,40.364767 35.486414,36.106174 35.1939,32.833807 L 37.693764,32.575648 37.435604,30.075783 33.685808,30.463021 Z"
               id="path3042"
               sodipodi:nodetypes="cccccccccc" />
          </g>
          <g
             inkscape:groupmode="layer"
             id="g3048"
             inkscape:label="music_note_main"
             style="display:inline;stroke-width:0.2470794">
            <path
               style="display:inline;opacity:1;fill:#d50000;fill-opacity:1;stroke-width:0.2470794"
               inkscape:connector-curvature="0"
               d="M 33.685807,29.463331 34.367026,36.059848 C 33.976027,35.882317 33.537497,35.794962 33.081274,35.84207 31.700099,35.984699 30.696934,37.218918 30.839567,38.600092 30.982206,39.981267 32.216419,40.984432 33.597592,40.841799 34.978766,40.69916 35.981932,39.464949 35.839297,38.083773 L 35.1939,31.834114 37.693764,31.575955 37.435604,29.07609 33.685808,29.463328 Z"
               id="path3046" />
          </g>
          <g
             inkscape:groupmode="layer"
             id="g3052"
             inkscape:label="tint"
             style="display:inline;stroke-width:0.2470794"
             sodipodi:insensitive="true">
            <path
               style="display:inline;opacity:0.2;fill:#ffffff;fill-opacity:1;stroke-width:0.2470794"
               d="M 37.470703,29.076172 33.685807,29.463331 33.711317,29.710391 37.461118,29.32315 Z M 33.08187,35.841098 C 31.700695,35.983727 30.697049,37.217736 30.839682,38.59891 30.857162,38.76819 30.892712,38.932635 30.941244,39.089145 30.702966,38.0394 31.341767,36.373238 32.894045,36.098727 33.345686,36.018857 34.007277,36.132477 34.398276,36.31 L 34.367026,36.059848 C 33.976027,35.882317 33.538092,35.79399 33.08187,35.841098 Z"
               id="path3050"
               inkscape:connector-curvature="0"
               sodipodi:nodetypes="cccccsscsccs" />
          </g>
          <g
             inkscape:groupmode="layer"
             id="g3058"
             inkscape:label="shade"
             style="display:inline;stroke-width:0.2470794">
            <path
               style="display:inline;opacity:0.2;fill:#3e2723;fill-opacity:1;stroke-width:0.2470794"
               d="M 37.668243,31.328827 35.168243,31.586639 35.193833,31.83394 37.693833,31.576128 Z"
               id="path3054"
               inkscape:connector-curvature="0"
               sodipodi:nodetypes="ccccc" />
            <path
               style="display:inline;opacity:0.2;fill:#3e2723;fill-opacity:1;stroke-width:0.2470794"
               d="M 33.895375,40.557194 C 33.314514,40.794002 31.718352,40.359807 31.122428,39.520354 31.773845,40.575626 32.656763,40.895911 33.598175,40.841753 34.950629,40.651074 35.82042,39.701336 35.851066,38.228958 L 35.73986,37.271684 C 35.990318,38.744633 35.118354,40.103376 33.895375,40.557194 Z"
               id="path3056"
               inkscape:connector-curvature="0"
               sodipodi:nodetypes="cccccc" />
          </g>
        </g>
      </g>
      <g
         id="g962">
        <g
           style="display:inline;stroke-width:0.2470794"
           inkscape:label="finish"
           id="g3066"
           transform="matrix(0.48323783,0,0,0.49848691,-52.486929,15.054343)">
          <rect
             ry="0.72981268"
             rx="0.75284266"
             y="2"
             x="8"
             height="44"
             width="32"
             id="rect3064"
             style="opacity:1;fill:url(#radialGradient3176);fill-opacity:1;stroke:none;stroke-width:0.00024708;stroke-miterlimit:4;stroke-dasharray:none;stroke-dashoffset:0;stroke-opacity:0.46153846" />
        </g>
        <flowRoot
           xml:space="preserve"
           id="flowRoot3076"
           style="font-style:normal;font-variant:normal;font-weight:normal;font-stretch:normal;font-size:18.66666603px;line-height:20px;font-family:'Roboto Condensed';-inkscape-font-specification:'Roboto Condensed, ';font-variant-ligatures:normal;font-variant-caps:normal;font-variant-numeric:normal;font-feature-settings:normal;text-align:start;writing-mode:lr-tb;text-anchor:start;opacity:1;fill:#cc0000;fill-opacity:1;fill-rule:nonzero;stroke:none;stroke-width:0.28355286;stroke-miterlimit:4;stroke-dasharray:none;stroke-dashoffset:0;stroke-opacity:1"
           transform="matrix(0.57304951,0,0,0.59146557,-70.754361,-31.053454)"><flowRegion
             id="flowRegion3072"
             style="text-align:start;text-anchor:start;fill:#cc0000;fill-opacity:1;stroke-width:0.28355286"><rect
               id="rect3070"
               width="377.96024"
               height="37.958569"
               x="77.22905"
               y="82.39106"
               style="text-align:start;text-anchor:start;fill:#cc0000;fill-opacity:1;stroke-width:0.28355286" /></flowRegion><flowPara
             id="flowPara3074"
             style="text-align:start;text-anchor:start;stroke-width:0.28355286">Sadhakam</flowPara></flowRoot>        <flowRoot
           transform="matrix(0.42488956,0,0,0.43854421,-75.032148,-6.6798739)"
           style="font-style:normal;font-variant:normal;font-weight:normal;font-stretch:normal;font-size:18.66666603px;line-height:20px;font-family:'Roboto Condensed';-inkscape-font-specification:'Roboto Condensed, ';font-variant-ligatures:normal;font-variant-caps:normal;font-variant-numeric:normal;font-feature-settings:normal;text-align:center;writing-mode:lr-tb;text-anchor:middle;opacity:1;fill:#4f4f4f;fill-opacity:1;fill-rule:nonzero;stroke:none;stroke-width:0.27261078;stroke-miterlimit:4;stroke-dasharray:none;stroke-dashoffset:0;stroke-opacity:1"
           id="flowRoot3084"
           xml:space="preserve"><flowRegion
             style="text-align:center;text-anchor:middle;fill:#4f4f4f;fill-opacity:1;stroke-width:0.27261078"
             id="flowRegion3080"><rect
               style="text-align:center;text-anchor:middle;fill:#4f4f4f;fill-opacity:1;stroke-width:0.27261078"
               y="82.39106"
               x="77.22905"
               height="54.632881"
               width="346.69589"
               id="rect3078" /></flowRegion><flowPara
             id="flowPara3082"
             style="font-style:normal;font-variant:normal;font-weight:normal;font-stretch:normal;font-family:Roboto;-inkscape-font-specification:Roboto;fill:#4f4f4f;fill-opacity:1;stroke-width:0.27261078">Carnatic Swara Gnanam Practice</flowPara></flowRoot>      </g>
    </g>
    <g
       id="g1782"
       inkscape:export-filename="/home/ananth/code/kuyil/kuyil.github.io/images/shruti_seal.png"
       inkscape:export-xdpi="384"
       inkscape:export-ydpi="384"
       transform="matrix(4,0,0,4,-54.703875,-109.86967)"
       style="stroke-width:0.11458332">
      <g
         transform="matrix(0.12126735,0,0,0.12126735,0.5291669,-83.243983)"
         id="g3098"
         inkscape:label="Layer 1"
         style="stroke-width:0.11458332">
        <g
           id="g3096"
           style="stroke-width:0.11458332">
          <circle
             style="opacity:1;fill:#ffcc00;fill-rule:nonzero;stroke:none;stroke-width:1;stroke-miterlimit:4;stroke-dasharray:none;stroke-dashoffset:0;stroke-opacity:1"
             id="circle3090"
             cx="24"
             cy="1028.3622"
             r="24" />
          <g
             style="font-style:normal;font-variant:normal;font-weight:normal;font-stretch:normal;font-size:70.51673126px;line-height:125%;font-family:Sail;-inkscape-font-specification:Sail;text-align:start;letter-spacing:0px;word-spacing:0px;text-anchor:start;fill:#cc0000;stroke:none;stroke-width:0.25px;stroke-linecap:butt;stroke-linejoin:miter;stroke-opacity:1"
             id="g3094"
             transform="matrix(0.45096347,0,0,0.45096347,-19.292494,597.07778)">
            <path
               d="M 88.207906,986.75489 C 82.778117,986.75489 80.168998,985.62662 77.277812,983.08802 74.809727,980.97252 73.469909,978.08133 73.469909,974.90808 73.469909,969.54881 77.489363,964.0485 84.258969,964.0485 86.938605,964.0485 89.124623,964.75367 90.464441,966.09349 91.663226,967.15124 92.297876,968.77313 92.297876,970.46553 92.297876,973.63878 90.111857,977.02358 86.868088,977.02358 85.034653,977.02358 83.624318,976.52997 82.707601,975.54273 81.085716,973.92085 81.156233,971.45276 81.156233,971.45276 L 79.816415,971.38226 C 79.745895,971.5233 79.675381,974.41448 81.720366,976.45947 82.919151,977.72877 84.682069,978.43394 86.868088,978.43394 90.887542,978.43394 93.637694,974.34397 93.637694,970.46555 93.637694,968.35005 92.86201,966.44609 91.381159,965.10628 89.759274,963.55491 87.291188,962.70871 84.258969,962.70871 76.643162,962.70871 72.130091,968.91418 72.130091,974.9081 72.130091,978.50445 73.610942,981.74822 76.361095,984.07528 79.534348,986.82543 84.258969,988.30628 89.970824,988.30628 103.93314,988.30628 112.81824,980.83151 112.81824,970.254 112.81824,960.45217 101.95867,956.43272 95.894229,950.79138 99.843166,949.80414 103.29849,947.68864 104.42675,946.84244 105.62554,947.54761 107.17691,947.90019 108.93982,947.90019 115.9915,947.90019 119.86992,942.4704 119.86992,937.25217 119.86992,934.36098 118.74165,931.61083 116.62615,929.63636 114.22858,927.45034 110.70274,926.18104 106.47174,926.18104 93.990278,926.18104 83.412768,934.14943 83.412768,946.84244 83.412768,947.68864 83.412768,948.46433 83.553801,949.24001 79.322798,947.82968 77.418846,944.86797 76.572645,942.32937 74.73921,936.61752 76.925229,928.79016 81.367783,925.54639 L 80.592099,924.41812 C 75.655928,928.08499 73.258359,936.47648 75.303344,942.75247 76.149545,945.29107 78.265047,949.09898 83.765352,950.72086 86.656538,963.20232 103.86262,962.63819 103.86262,975.68379 103.86262,982.24184 98.291798,986.75491 88.207906,986.75491 Z M 103.43952,946.06674 C 102.31125,946.84242 98.785415,948.95792 94.695445,949.87464 86.727054,944.44485 91.028575,927.52084 106.47174,927.52084 110.35016,927.52084 113.52341,928.64911 115.70943,930.62357 117.54287,932.38649 118.5301,934.71354 118.5301,937.25215 118.5301,941.83573 115.1453,946.70139 108.93982,946.70139 107.67052,946.70139 106.61277,946.41932 105.69606,945.99622 108.86931,943.17555 110.84378,939.50868 110.84378,936.1944 110.84378,932.80959 109.15137,931.04667 106.11916,931.04667 102.31125,931.04667 100.19575,934.21993 100.19575,938.23938 100.19575,941.20108 101.32402,944.16279 103.43952,946.06674 Z M 106.04864,932.31598 C 108.30517,932.31598 109.43344,933.58528 109.43344,936.1944 109.43344,939.50868 107.24742,943.24607 104.49727,945.22054 102.5228,943.59865 101.60608,940.8485 101.60608,938.23938 101.60608,934.78406 103.15745,932.31598 106.04864,932.31598 Z"
               id="path3092"
               inkscape:connector-curvature="0"
               style="stroke-width:0.25px" />
          </g>
        </g>
      </g>
      <flowRoot
         transform="matrix(0.14850713,0,0,0.14850713,-3.3731644,26.836228)"
         style="font-style:normal;font-variant:normal;font-weight:normal;font-stretch:normal;font-size:18.66666603px;line-height:20px;font-family:'Roboto Condensed';-inkscape-font-specification:'Roboto Condensed, ';font-variant-ligatures:normal;font-variant-caps:normal;font-variant-numeric:normal;font-feature-settings:normal;text-align:start;writing-mode:lr-tb;text-anchor:start;opacity:1;fill:#cc0000;fill-opacity:1;fill-rule:nonzero;stroke:none;stroke-width:0.27789935;stroke-miterlimit:4;stroke-dasharray:none;stroke-dashoffset:0;stroke-opacity:1"
         id="flowRoot3106"
         xml:space="preserve"><flowRegion
           style="text-align:start;text-anchor:start;fill:#cc0000;fill-opacity:1;stroke-width:0.27789935"
           id="flowRegion3102"><rect
             style="text-align:start;text-anchor:start;fill:#cc0000;fill-opacity:1;stroke-width:0.27789935"
             y="82.39106"
             x="77.22905"
             height="37.958569"
             width="377.96024"
             id="rect3100" /></flowRegion><flowPara
           style="text-align:start;text-anchor:start;stroke-width:0.27789935"
           id="flowPara3104">Shruti</flowPara></flowRoot>      <flowRoot
         xml:space="preserve"
         id="flowRoot3114"
         style="font-style:normal;font-variant:normal;font-weight:normal;font-stretch:normal;font-size:18.66666603px;line-height:20px;font-family:'Roboto Condensed';-inkscape-font-specification:'Roboto Condensed, ';font-variant-ligatures:normal;font-variant-caps:normal;font-variant-numeric:normal;font-feature-settings:normal;text-align:center;writing-mode:lr-tb;text-anchor:middle;opacity:1;fill:#4f4f4f;fill-opacity:1;fill-rule:nonzero;stroke:none;stroke-width:0.26717547;stroke-miterlimit:4;stroke-dasharray:none;stroke-dashoffset:0;stroke-opacity:1"
         transform="matrix(0.11011113,0,0,0.11011113,-12.847915,32.956032)"><flowRegion
           id="flowRegion3110"
           style="text-align:center;text-anchor:middle;fill:#4f4f4f;fill-opacity:1;stroke-width:0.26717547"><rect
             id="rect3108"
             width="346.69589"
             height="54.632881"
             x="77.22905"
             y="82.39106"
             style="text-align:center;text-anchor:middle;fill:#4f4f4f;fill-opacity:1;stroke-width:0.26717547" /></flowRegion><flowPara
           style="font-style:normal;font-variant:normal;font-weight:normal;font-stretch:normal;font-family:Roboto;-inkscape-font-specification:Roboto;fill:#4f4f4f;fill-opacity:1;stroke-width:0.26717547"
           id="flowPara3112">Carnatic Tuner</flowPara></flowRoot>    </g>
  </g>
</svg>
