<?xml version="1.0" encoding="UTF-8" standalone="no"?>
<!-- Created with Inkscape (http://www.inkscape.org/) -->

<svg
   xmlns:dc="http://purl.org/dc/elements/1.1/"
   xmlns:cc="http://creativecommons.org/ns#"
   xmlns:rdf="http://www.w3.org/1999/02/22-rdf-syntax-ns#"
   xmlns:svg="http://www.w3.org/2000/svg"
   xmlns="http://www.w3.org/2000/svg"
   xmlns:xlink="http://www.w3.org/1999/xlink"
   xmlns:sodipodi="http://sodipodi.sourceforge.net/DTD/sodipodi-0.dtd"
   xmlns:inkscape="http://www.inkscape.org/namespaces/inkscape"
   width="880.65582"
   height="679.01801"
   viewBox="0 0 233.00686 179.65685"
   version="1.1"
   id="svg4790"
   inkscape:version="0.92.3 (2405546, 2018-03-11)"
   sodipodi:docname="app_seals.svg"
   inkscape:export-filename="/home/ananth/code/kuyil/kuyil.github.io/images/shrutibox_seal.png"
   inkscape:export-xdpi="192"
   inkscape:export-ydpi="192">
  <defs
     id="defs4784">
    <filter
       height="1.1146265"
       y="-0.057313249"
       width="1.1771847"
       x="-0.088592328"
       id="filter5750-8-2"
       style="color-interpolation-filters:sRGB"
       inkscape:collect="always">
      <feGaussianBlur
         id="feGaussianBlur5752-2-7"
         stdDeviation="0.99811131"
         inkscape:collect="always" />
    </filter>
    <filter
       height="1.4084232"
       y="-0.20421161"
       width="1.7005115"
       x="-0.35025573"
       id="filter5734-4-3"
       style="color-interpolation-filters:sRGB"
       inkscape:collect="always">
      <feGaussianBlur
         id="feGaussianBlur5736-2-0"
         stdDeviation="1.002272"
         inkscape:collect="always" />
    </filter>
    <radialGradient
       inkscape:collect="always"
       xlink:href="#linearGradient4329"
       id="radialGradient3176"
       gradientUnits="userSpaceOnUse"
       gradientTransform="matrix(-3.940776e-8,0.66614418,-0.50189503,-1.1330721e-8,632.55432,351.94213)"
       cx="3.7323163"
       cy="35.123737"
       fx="3.7323163"
       fy="35.123737"
       r="16" />
    <linearGradient
       id="linearGradient4329"
       inkscape:collect="always">
      <stop
         id="stop4331"
         offset="0"
         style="stop-color:#ffffff;stop-opacity:0.1" />
      <stop
         id="stop4333"
         offset="1"
         style="stop-color:#ffffff;stop-opacity:0" />
    </linearGradient>
  </defs>
  <sodipodi:namedview
     id="base"
     pagecolor="#ffffff"
     bordercolor="#666666"
     borderopacity="1.0"
     inkscape:pageopacity="0.0"
     inkscape:pageshadow="2"
     inkscape:zoom="0.65980151"
     inkscape:cx="313.05486"
     inkscape:cy="315.63329"
     inkscape:document-units="mm"
     inkscape:current-layer="layer8"
     showgrid="false"
     units="px"
     showguides="false"
     inkscape:guide-bbox="true"
     inkscape:snap-page="true"
     inkscape:snap-object-midpoints="true"
     inkscape:object-paths="true"
     inkscape:measure-start="-74.452,136.318"
     inkscape:measure-end="90,66.5996"
     inkscape:window-width="1920"
     inkscape:window-height="1025"
     inkscape:window-x="0"
     inkscape:window-y="27"
     inkscape:window-maximized="1"
     inkscape:snap-bbox="true"
     inkscape:bbox-nodes="true"
     inkscape:snap-bbox-edge-midpoints="false"
     inkscape:snap-midpoints="true"
     inkscape:showpageshadow="true"
     showborder="true"
     inkscape:pagecheckerboard="true"
     fit-margin-top="0"
     fit-margin-left="0"
     fit-margin-right="0"
     fit-margin-bottom="0">
    <sodipodi:guide
       position="119.78281,109.16839"
       orientation="1,0"
       id="guide5337"
       inkscape:locked="false"
       inkscape:label=""
       inkscape:color="rgb(0,0,255)" />
    <sodipodi:guide
       position="115.02031,113.93089"
       orientation="0,1"
       id="guide5339"
       inkscape:locked="false"
       inkscape:label=""
       inkscape:color="rgb(0,0,255)" />
    <sodipodi:guide
       position="138.83281,109.16839"
       orientation="1,0"
       id="guide5341"
       inkscape:locked="false"
       inkscape:label=""
       inkscape:color="rgb(0,0,255)" />
    <sodipodi:guide
       position="115.02031,132.98089"
       orientation="0,1"
       id="guide5343"
       inkscape:locked="false"
       inkscape:label=""
       inkscape:color="rgb(0,0,255)" />
  </sodipodi:namedview>
  <metadata
     id="metadata4787">
    <rdf:RDF>
      <cc:Work
         rdf:about="">
        <dc:format>image/svg+xml</dc:format>
        <dc:type
           rdf:resource="http://purl.org/dc/dcmitype/StillImage" />
        <dc:title></dc:title>
      </cc:Work>
    </rdf:RDF>
  </metadata>
  <g
     style="display:inline;stroke-width:0.45833328"
     inkscape:label="adaptive_bg"
     id="layer7"
     inkscape:groupmode="layer"
     transform="matrix(2.1818184,0,0,2.1818184,114.73574,32.115541)" />
  <g
     style="display:inline;stroke-width:0.45833328"
     inkscape:label="adaptive_fg"
     id="layer8"
     inkscape:groupmode="layer"
     transform="matrix(2.1818184,0,0,2.1818184,114.73574,32.115541)">
    <g
       id="g1767"
       transform="matrix(4,0,0,4,-54.703874,-103.61963)"
       style="stroke-width:0.11458332"
       inkscape:export-filename="/home/ananth/code/kuyil/kuyil.github.io/images/shrutibox_seal.png"
       inkscape:export-xdpi="96"
       inkscape:export-ydpi="96">
      <g
         id="flowRoot1530"
         style="font-style:normal;font-variant:normal;font-weight:normal;font-stretch:normal;font-size:18.66666603px;line-height:20px;font-family:'Roboto Condensed';-inkscape-font-specification:'Roboto Condensed, ';font-variant-ligatures:normal;font-variant-caps:normal;font-variant-numeric:normal;font-feature-settings:normal;text-align:center;writing-mode:lr-tb;text-anchor:middle;opacity:1;fill:#cc0000;fill-opacity:1;fill-rule:nonzero;stroke:none;stroke-width:0.27789152;stroke-miterlimit:4;stroke-dasharray:none;stroke-dashoffset:0;stroke-opacity:1"
         transform="matrix(0.14851132,0,0,0.14851132,-21.882682,10.494768)"
         aria-label="Pocket Shruti Box">
        <path
           id="path5866"
           style="stroke-width:0.27789152"
           d="m 204.30274,91.86198 v 5.195312 h -1.66797 V 83.786459 h 4.22916 q 1.85026,0 2.90756,1.111979 1.05729,1.102865 1.05729,2.944011 0,1.914062 -1.01172,2.953124 -1.0026,1.029948 -2.83464,1.066407 z m 0,-1.43099 h 2.56119 q 1.11198,0 1.70443,-0.665364 0.59245,-0.665365 0.59245,-1.904948 0,-1.194011 -0.61068,-1.914063 -0.61067,-0.720052 -1.67708,-0.720052 h -2.57031 z"
           inkscape:connector-curvature="0" />
        <path
           id="path5868"
           style="stroke-width:0.27789152"
           d="m 212.31445,91.670573 q 0,-2.151041 1.03907,-3.399739 1.04817,-1.257813 2.76172,-1.257813 1.71354,0 2.7526,1.221355 1.04818,1.221354 1.07552,3.326822 v 1.039063 q 0,2.141927 -1.03906,3.390625 -1.03906,1.248698 -2.77084,1.248698 -1.71354,0 -2.7526,-1.21224 -1.02995,-1.212239 -1.06641,-3.28125 z m 1.61329,0.929688 q 0,1.522135 0.59244,2.397135 0.60157,0.865886 1.61328,0.865886 2.13282,0 2.19662,-3.080729 v -1.11198 q 0,-1.51302 -0.60156,-2.38802 -0.60157,-0.884115 -1.61328,-0.884115 -0.99349,0 -1.59506,0.884115 -0.59244,0.875 -0.59244,2.378906 z"
           inkscape:connector-curvature="0" />
        <path
           id="path5870"
           style="stroke-width:0.27789152"
           d="m 225.44857,95.863282 q 0.80208,0 1.28515,-0.492188 0.48308,-0.501302 0.52865,-1.421875 h 1.52214 q -0.0547,1.421875 -1.01172,2.360677 -0.94792,0.929688 -2.32422,0.929688 -1.83203,0 -2.79818,-1.148438 -0.95703,-1.157552 -0.95703,-3.436198 v -1.084635 q 0,-2.233073 0.95703,-3.390625 0.95703,-1.166667 2.78906,-1.166667 1.51302,0 2.39714,0.957032 0.89323,0.957031 0.94792,2.615885 h -1.52214 q -0.0547,-1.09375 -0.52865,-1.640625 -0.46484,-0.546875 -1.29427,-0.546875 -1.07552,0 -1.59505,0.710938 -0.51953,0.701822 -0.53776,2.315104 v 1.257812 q 0,1.740885 0.51042,2.460938 0.51953,0.720052 1.63151,0.720052 z"
           inkscape:connector-curvature="0" />
        <path
           id="path5872"
           style="stroke-width:0.27789152"
           d="m 233.14128,92.545573 -0.85677,0.984375 v 3.527344 h -1.61329 v -14 h 1.61329 v 8.376302 l 3.07161,-4.238281 h 1.93229 l -3.13541,4.119792 3.54557,5.742187 h -1.87761 z"
           inkscape:connector-curvature="0" />
        <path
           id="path5874"
           style="stroke-width:0.27789152"
           d="m 242.42904,97.239584 q -1.84115,0 -2.82552,-1.09375 -0.98438,-1.102865 -1.00261,-3.226563 v -1.19401 q 0,-2.205729 0.95703,-3.454427 0.96615,-1.257813 2.6888,-1.257813 1.73178,0 2.58855,1.102865 0.85677,1.102865 0.875,3.436198 v 1.057291 h -5.50521 v 0.227865 q 0,1.585937 0.59245,2.30599 0.60156,0.720052 1.72265,0.720052 0.71094,0 1.2487,-0.264323 0.54687,-0.273438 1.02083,-0.856771 l 0.83854,1.020833 q -1.04817,1.476563 -3.19921,1.476563 z m -0.1823,-8.841146 q -1.0026,0 -1.48567,0.692708 -0.48308,0.683594 -0.54688,2.132813 h 3.88281 v -0.21875 q -0.0638,-1.403646 -0.51041,-2.005208 -0.4375,-0.601563 -1.33985,-0.601563 z"
           inkscape:connector-curvature="0" />
        <path
           id="path5876"
           style="stroke-width:0.27789152"
           d="m 249.76628,84.807292 v 2.388021 h 1.48567 v 1.303386 h -1.48567 v 6.115885 q 0,0.583333 0.1914,0.884114 0.19141,0.300782 0.65625,0.300782 0.31901,0 0.64714,-0.109375 l -0.0182,1.367187 q -0.54688,0.182292 -1.1211,0.182292 -0.95703,0 -1.45833,-0.683594 -0.5013,-0.683594 -0.5013,-1.932292 v -6.124999 h -1.50391 v -1.303386 h 1.50391 v -2.388021 z"
           inkscape:connector-curvature="0" />
        <path
           id="path5878"
           style="stroke-width:0.27789152"
           d="m 263.44727,93.703125 q 0,-0.993489 -0.53776,-1.522135 -0.53776,-0.528646 -1.94141,-1.029948 -1.40364,-0.501302 -2.15104,-1.048177 -0.73828,-0.555989 -1.11198,-1.257812 -0.36458,-0.710938 -0.36458,-1.622396 0,-1.576823 1.04817,-2.597656 1.0573,-1.020834 2.76172,-1.020834 1.16667,0 2.07813,0.528646 0.91146,0.519531 1.40364,1.449219 0.49219,0.929687 0.49219,2.041667 h -1.67708 q 0,-1.230469 -0.59245,-1.904948 -0.59245,-0.674479 -1.70443,-0.674479 -1.01172,0 -1.56771,0.565104 -0.55599,0.565104 -0.55599,1.585937 0,0.838542 0.60157,1.403646 0.60156,0.565104 1.85937,1.011719 1.95964,0.647135 2.79818,1.595052 0.84766,0.947916 0.84766,2.479166 0,1.613281 -1.04818,2.588542 -1.04818,0.966146 -2.85287,0.966146 -1.15755,0 -2.14192,-0.501302 -0.97526,-0.510417 -1.54037,-1.421875 -0.55599,-0.920573 -0.55599,-2.105469 h 1.67709 q 0,1.230469 0.68359,1.914062 0.69271,0.683594 1.8776,0.683594 1.10287,0 1.65886,-0.565104 0.55599,-0.565104 0.55599,-1.540365 z"
           inkscape:connector-curvature="0" />
        <path
           id="path5880"
           style="stroke-width:0.27789152"
           d="m 268.69726,88.207032 q 0.92058,-1.194011 2.35157,-1.194011 2.61588,0 2.65234,3.490886 v 6.553385 H 272.097 v -6.480469 q 0,-1.157552 -0.39192,-1.640625 -0.38282,-0.492187 -1.15756,-0.492187 -0.60156,0 -1.08463,0.401042 -0.47396,0.401041 -0.76563,1.048177 v 7.164062 h -1.61328 v -14 h 1.61328 z"
           inkscape:connector-curvature="0" />
        <path
           id="path5882"
           style="stroke-width:0.27789152"
           d="m 280.16341,88.708334 q -0.33724,-0.0638 -0.72917,-0.0638 -1.23958,0 -1.73177,1.358073 v 7.054687 h -1.61328 v -9.861979 h 1.56771 l 0.0273,1.002604 q 0.64714,-1.184896 1.83204,-1.184896 0.38281,0 0.63802,0.127605 z"
           inkscape:connector-curvature="0" />
        <path
           id="path5884"
           style="stroke-width:0.27789152"
           d="m 286.80794,96.191407 q -0.80208,1.048177 -2.34245,1.048177 -1.33984,0 -2.02343,-0.920573 -0.6836,-0.929688 -0.69271,-2.697917 v -6.425781 h 1.60417 v 6.307292 q 0,2.305989 1.38541,2.305989 1.46745,0 2.02344,-1.3125 v -7.300781 h 1.61328 v 9.861979 h -1.53125 z"
           inkscape:connector-curvature="0" />
        <path
           id="path5886"
           style="stroke-width:0.27789152"
           d="m 292.93294,84.807292 v 2.388021 h 1.48568 v 1.303386 h -1.48568 v 6.115885 q 0,0.583333 0.19141,0.884114 0.1914,0.300782 0.65625,0.300782 0.31901,0 0.64713,-0.109375 l -0.0182,1.367187 q -0.54687,0.182292 -1.12109,0.182292 -0.95703,0 -1.45833,-0.683594 -0.50131,-0.683594 -0.50131,-1.932292 v -6.124999 h -1.5039 v -1.303386 h 1.5039 v -2.388021 z"
           inkscape:connector-curvature="0" />
        <path
           id="path5888"
           style="stroke-width:0.27789152"
           d="m 298.06445,97.057292 h -1.61328 v -9.861979 h 1.61328 z m 0.12761,-12.477864 q 0,0.410156 -0.22787,0.683594 -0.22786,0.273437 -0.69271,0.273437 -0.45573,0 -0.68359,-0.273437 -0.22786,-0.273438 -0.22786,-0.683594 0,-0.410156 0.22786,-0.692709 0.22786,-0.282552 0.68359,-0.282552 0.45573,0 0.6836,0.291667 0.23698,0.282552 0.23698,0.683594 z"
           inkscape:connector-curvature="0" />
        <path
           id="path5890"
           style="stroke-width:0.27789152"
           d="M 305.08268,97.057292 V 83.786459 h 3.78255 q 1.81381,0 2.72526,0.884115 0.92058,0.884114 0.92058,2.652343 0,0.929688 -0.46485,1.640625 -0.46484,0.710938 -1.25781,1.102865 0.91146,0.273437 1.44011,1.121093 0.53776,0.847657 0.53776,2.041667 0,1.786458 -0.98438,2.807292 -0.97526,1.020833 -2.78906,1.020833 z m 1.66797,-6.207031 v 4.776041 h 2.27865 q 0.94791,0 1.5039,-0.619791 0.55599,-0.628906 0.55599,-1.759115 0,-2.397135 -2.02344,-2.397135 z m 0,-1.403646 h 2.14193 q 0.86588,0 1.39453,-0.583333 0.53776,-0.583333 0.53776,-1.549479 0,-1.09375 -0.48307,-1.585938 -0.48308,-0.501302 -1.47657,-0.501302 h -2.11458 z"
           inkscape:connector-curvature="0" />
        <path
           id="path5892"
           style="stroke-width:0.27789152"
           d="m 314.68945,91.670573 q 0,-2.151041 1.03907,-3.399739 1.04817,-1.257813 2.76171,-1.257813 1.71355,0 2.75261,1.221355 1.04818,1.221354 1.07552,3.326822 v 1.039063 q 0,2.141927 -1.03906,3.390625 -1.03907,1.248698 -2.77084,1.248698 -1.71354,0 -2.7526,-1.21224 -1.02995,-1.212239 -1.06641,-3.28125 z m 1.61328,0.929688 q 0,1.522135 0.59245,2.397135 0.60156,0.865886 1.61328,0.865886 2.13282,0 2.19662,-3.080729 v -1.11198 q 0,-1.51302 -0.60156,-2.38802 -0.60157,-0.884115 -1.61329,-0.884115 -0.99349,0 -1.59505,0.884115 -0.59245,0.875 -0.59245,2.378906 z"
           inkscape:connector-curvature="0" />
        <path
           id="path5894"
           style="stroke-width:0.27789152"
           d="m 327.06706,90.795573 1.68619,-3.60026 h 1.86849 l -2.67968,4.876302 2.74349,4.985677 h -1.85026 l -1.74089,-3.691406 -1.75,3.691406 h -1.85937 l 2.74349,-4.985677 -2.67058,-4.876302 h 1.85026 z"
           inkscape:connector-curvature="0" />
      </g>
      <g
         id="flowRoot1544"
         style="font-style:normal;font-variant:normal;font-weight:normal;font-stretch:normal;font-size:18.66666603px;line-height:20px;font-family:'Roboto Condensed';-inkscape-font-specification:'Roboto Condensed, ';font-variant-ligatures:normal;font-variant-caps:normal;font-variant-numeric:normal;font-feature-settings:normal;text-align:center;writing-mode:lr-tb;text-anchor:middle;opacity:1;fill:#4f4f4f;fill-opacity:1;fill-rule:nonzero;stroke:none;stroke-width:0.27789152;stroke-miterlimit:4;stroke-dasharray:none;stroke-dashoffset:0;stroke-opacity:1"
         transform="matrix(0.10586503,0,0,0.10586503,-10.634789,17.146849)"
         aria-label="Carnatic Tambura">
        <path
           id="path5897"
           style="font-style:normal;font-variant:normal;font-weight:normal;font-stretch:normal;font-family:Roboto;-inkscape-font-specification:Roboto;fill:#4f4f4f;fill-opacity:1;stroke-width:0.27789152"
           d="m 188.2334,92.846355 q -0.24609,2.105468 -1.55859,3.253906 -1.30339,1.139323 -3.47266,1.139323 -2.35156,0 -3.77344,-1.686198 -1.41276,-1.686198 -1.41276,-4.511719 v -1.276041 q 0,-1.850261 0.65625,-3.253907 0.66537,-1.403645 1.87761,-2.151041 1.21224,-0.756511 2.80729,-0.756511 2.11458,0 3.39062,1.184896 1.27605,1.175781 1.48568,3.263021 h -1.75911 q -0.22787,-1.585938 -0.99349,-2.296875 -0.75651,-0.710937 -2.1237,-0.710937 -1.67708,0 -2.63412,1.239583 -0.94791,1.239583 -0.94791,3.527343 v 1.285157 q 0,2.160156 0.90234,3.436197 0.90234,1.276042 2.52474,1.276042 1.45833,0 2.23307,-0.65625 0.78386,-0.665364 1.03907,-2.305989 z"
           inkscape:connector-curvature="0" />
        <path
           id="path5899"
           style="font-style:normal;font-variant:normal;font-weight:normal;font-stretch:normal;font-family:Roboto;-inkscape-font-specification:Roboto;fill:#4f4f4f;fill-opacity:1;stroke-width:0.27789152"
           d="m 196.43653,97.057292 q -0.14584,-0.291667 -0.23698,-1.039063 -1.17578,1.221355 -2.8073,1.221355 -1.45833,0 -2.39713,-0.820313 -0.92969,-0.829427 -0.92969,-2.096354 0,-1.540364 1.16667,-2.388021 1.17578,-0.856771 3.29948,-0.856771 h 1.64062 v -0.774739 q 0,-0.884115 -0.52864,-1.403646 -0.52865,-0.528646 -1.5586,-0.528646 -0.90234,0 -1.51302,0.455729 -0.61067,0.45573 -0.61067,1.102865 h -1.69532 q 0,-0.738281 0.51953,-1.421875 0.52865,-0.692708 1.42188,-1.09375 0.90234,-0.401042 1.97786,-0.401042 1.70443,0 2.67058,0.856771 0.96614,0.847656 1.0026,2.342448 v 4.539062 q 0,1.358073 0.34635,2.160157 v 0.145833 z m -2.79818,-1.285156 q 0.79297,0 1.5039,-0.410156 0.71094,-0.410157 1.02995,-1.066407 v -2.023437 h -1.32161 q -3.09896,0 -3.09896,1.813802 0,0.792969 0.52865,1.239583 0.52864,0.446615 1.35807,0.446615 z"
           inkscape:connector-curvature="0" />
        <path
           id="path5901"
           style="font-style:normal;font-variant:normal;font-weight:normal;font-stretch:normal;font-family:Roboto;-inkscape-font-specification:Roboto;fill:#4f4f4f;fill-opacity:1;stroke-width:0.27789152"
           d="m 205.28679,88.708334 q -0.38282,-0.0638 -0.82943,-0.0638 -1.65886,0 -2.2513,1.41276 v 7 h -1.6862 v -9.861979 h 1.64062 l 0.0273,1.139323 q 0.82942,-1.321615 2.35156,-1.321615 0.49219,0 0.7474,0.127605 z"
           inkscape:connector-curvature="0" />
        <path
           id="path5903"
           style="font-style:normal;font-variant:normal;font-weight:normal;font-stretch:normal;font-family:Roboto;-inkscape-font-specification:Roboto;fill:#4f4f4f;fill-opacity:1;stroke-width:0.27789152"
           d="m 208.4222,87.195313 0.0547,1.239583 q 1.13021,-1.421875 2.95312,-1.421875 3.12631,0 3.15365,3.527344 v 6.516927 h -1.6862 v -6.526041 q -0.009,-1.066407 -0.49218,-1.576823 -0.47396,-0.510417 -1.48568,-0.510417 -0.82031,0 -1.44011,0.4375 -0.61979,0.4375 -0.96614,1.148437 v 7.027344 h -1.6862 v -9.861979 z"
           inkscape:connector-curvature="0" />
        <path
           id="path5905"
           style="font-style:normal;font-variant:normal;font-weight:normal;font-stretch:normal;font-family:Roboto;-inkscape-font-specification:Roboto;fill:#4f4f4f;fill-opacity:1;stroke-width:0.27789152"
           d="m 223.2334,97.057292 q -0.14583,-0.291667 -0.23698,-1.039063 -1.17578,1.221355 -2.80729,1.221355 -1.45833,0 -2.39714,-0.820313 -0.92968,-0.829427 -0.92968,-2.096354 0,-1.540364 1.16666,-2.388021 1.17578,-0.856771 3.29948,-0.856771 h 1.64063 v -0.774739 q 0,-0.884115 -0.52865,-1.403646 -0.52864,-0.528646 -1.55859,-0.528646 -0.90235,0 -1.51302,0.455729 -0.61068,0.45573 -0.61068,1.102865 h -1.69531 q 0,-0.738281 0.51953,-1.421875 0.52865,-0.692708 1.42187,-1.09375 0.90235,-0.401042 1.97787,-0.401042 1.70443,0 2.67057,0.856771 0.96615,0.847656 1.00261,2.342448 v 4.539062 q 0,1.358073 0.34635,2.160157 v 0.145833 z m -2.79818,-1.285156 q 0.79297,0 1.50391,-0.410156 0.71094,-0.410157 1.02995,-1.066407 v -2.023437 h -1.32162 q -3.09895,0 -3.09895,1.813802 0,0.792969 0.52864,1.239583 0.52865,0.446615 1.35807,0.446615 z"
           inkscape:connector-curvature="0" />
        <path
           id="path5907"
           style="font-style:normal;font-variant:normal;font-weight:normal;font-stretch:normal;font-family:Roboto;-inkscape-font-specification:Roboto;fill:#4f4f4f;fill-opacity:1;stroke-width:0.27789152"
           d="m 229.60449,84.807292 v 2.388021 h 1.84115 v 1.303386 h -1.84115 v 6.115885 q 0,0.592448 0.2461,0.893229 0.24609,0.291667 0.83854,0.291667 0.29167,0 0.80208,-0.109375 v 1.367187 q -0.66536,0.182292 -1.29427,0.182292 -1.13021,0 -1.70442,-0.683594 -0.57422,-0.683594 -0.57422,-1.941406 v -6.115885 h -1.79558 v -1.303386 h 1.79558 v -2.388021 z"
           inkscape:connector-curvature="0" />
        <path
           id="path5909"
           style="font-style:normal;font-variant:normal;font-weight:normal;font-stretch:normal;font-family:Roboto;-inkscape-font-specification:Roboto;fill:#4f4f4f;fill-opacity:1;stroke-width:0.27789152"
           d="m 235.2373,97.057292 h -1.68619 v -9.861979 h 1.68619 z m -1.82291,-12.477864 q 0,-0.410156 0.24609,-0.692709 0.25521,-0.282552 0.7474,-0.282552 0.49218,0 0.74739,0.282552 0.25521,0.282553 0.25521,0.692709 0,0.410156 -0.25521,0.683594 -0.25521,0.273437 -0.74739,0.273437 -0.49219,0 -0.7474,-0.273437 -0.24609,-0.273438 -0.24609,-0.683594 z"
           inkscape:connector-curvature="0" />
        <path
           id="path5911"
           style="font-style:normal;font-variant:normal;font-weight:normal;font-stretch:normal;font-family:Roboto;-inkscape-font-specification:Roboto;fill:#4f4f4f;fill-opacity:1;stroke-width:0.27789152"
           d="m 241.88184,95.863282 q 0.90234,0 1.57682,-0.546875 0.67448,-0.546875 0.7474,-1.367188 h 1.59505 q -0.0456,0.847656 -0.58333,1.613281 -0.53776,0.765625 -1.44011,1.221354 -0.89323,0.45573 -1.89583,0.45573 -2.01432,0 -3.20833,-1.339844 -1.1849,-1.348958 -1.1849,-3.682292 v -0.282552 q 0,-1.440104 0.52865,-2.561198 0.52864,-1.121093 1.51302,-1.740885 0.99349,-0.619792 2.34244,-0.619792 1.65886,0 2.75261,0.99349 1.10286,0.99349 1.17578,2.579427 h -1.59505 q -0.0729,-0.957031 -0.72917,-1.567708 -0.64714,-0.619792 -1.60417,-0.619792 -1.28515,0 -1.99609,0.929688 -0.70182,0.920572 -0.70182,2.670572 v 0.319011 q 0,1.704427 0.70182,2.625 0.70182,0.920573 2.00521,0.920573 z"
           inkscape:connector-curvature="0" />
        <path
           id="path5913"
           style="font-style:normal;font-variant:normal;font-weight:normal;font-stretch:normal;font-family:Roboto;-inkscape-font-specification:Roboto;fill:#4f4f4f;fill-opacity:1;stroke-width:0.27789152"
           d="m 261.39616,85.226563 h -4.26563 v 11.830729 h -1.74088 V 85.226563 h -4.25651 v -1.440104 h 10.26302 z"
           inkscape:connector-curvature="0" />
        <path
           id="path5915"
           style="font-style:normal;font-variant:normal;font-weight:normal;font-stretch:normal;font-family:Roboto;-inkscape-font-specification:Roboto;fill:#4f4f4f;fill-opacity:1;stroke-width:0.27789152"
           d="m 268.18653,97.057292 q -0.14584,-0.291667 -0.23698,-1.039063 -1.17578,1.221355 -2.8073,1.221355 -1.45833,0 -2.39713,-0.820313 -0.92969,-0.829427 -0.92969,-2.096354 0,-1.540364 1.16667,-2.388021 1.17578,-0.856771 3.29948,-0.856771 h 1.64062 v -0.774739 q 0,-0.884115 -0.52864,-1.403646 -0.52865,-0.528646 -1.5586,-0.528646 -0.90234,0 -1.51302,0.455729 -0.61067,0.45573 -0.61067,1.102865 h -1.69532 q 0,-0.738281 0.51953,-1.421875 0.52865,-0.692708 1.42188,-1.09375 0.90234,-0.401042 1.97786,-0.401042 1.70443,0 2.67058,0.856771 0.96614,0.847656 1.0026,2.342448 v 4.539062 q 0,1.358073 0.34635,2.160157 v 0.145833 z m -2.79818,-1.285156 q 0.79297,0 1.5039,-0.410156 0.71094,-0.410157 1.02995,-1.066407 v -2.023437 h -1.32161 q -3.09896,0 -3.09896,1.813802 0,0.792969 0.52865,1.239583 0.52864,0.446615 1.35807,0.446615 z"
           inkscape:connector-curvature="0" />
        <path
           id="path5917"
           style="font-style:normal;font-variant:normal;font-weight:normal;font-stretch:normal;font-family:Roboto;-inkscape-font-specification:Roboto;fill:#4f4f4f;fill-opacity:1;stroke-width:0.27789152"
           d="m 273.8558,87.195313 0.0456,1.09375 q 1.08463,-1.276042 2.92578,-1.276042 2.06901,0 2.81641,1.585938 0.49218,-0.710938 1.27604,-1.148438 0.79297,-0.4375 1.86849,-0.4375 3.24479,0 3.29948,3.436198 v 6.608073 h -1.6862 V 90.54948 q 0,-1.057292 -0.48307,-1.576823 -0.48308,-0.528646 -1.6224,-0.528646 -0.9388,0 -1.55859,0.565104 -0.61979,0.55599 -0.72006,1.503906 v 6.544271 h -1.69531 v -6.462239 q 0,-2.151042 -2.10547,-2.151042 -1.65885,0 -2.26953,1.41276 v 7.200521 h -1.6862 v -9.861979 z"
           inkscape:connector-curvature="0" />
        <path
           id="path5919"
           style="font-style:normal;font-variant:normal;font-weight:normal;font-stretch:normal;font-family:Roboto;-inkscape-font-specification:Roboto;fill:#4f4f4f;fill-opacity:1;stroke-width:0.27789152"
           d="m 296.98861,92.235678 q 0,2.260416 -1.03907,3.636718 -1.03906,1.367188 -2.78906,1.367188 -1.86849,0 -2.88932,-1.321615 l -0.082,1.139323 h -1.54948 v -14 h 1.6862 v 5.222657 q 1.02083,-1.266928 2.8164,-1.266928 1.79558,0 2.81641,1.358073 1.02995,1.358073 1.02995,3.71875 z m -1.6862,-0.191407 q 0,-1.722656 -0.66537,-2.661458 -0.66536,-0.938802 -1.91406,-0.938802 -1.66797,0 -2.39713,1.549479 v 4.265625 q 0.77474,1.549479 2.41536,1.549479 1.21224,0 1.88672,-0.938802 0.67448,-0.938802 0.67448,-2.825521 z"
           inkscape:connector-curvature="0" />
        <path
           id="path5921"
           style="font-style:normal;font-variant:normal;font-weight:normal;font-stretch:normal;font-family:Roboto;-inkscape-font-specification:Roboto;fill:#4f4f4f;fill-opacity:1;stroke-width:0.27789152"
           d="m 305.19173,96.082032 q -0.98438,1.157552 -2.88932,1.157552 -1.57683,0 -2.40625,-0.911459 -0.82032,-0.920573 -0.82943,-2.716145 v -6.416667 h 1.6862 v 6.371094 q 0,2.242187 1.82291,2.242187 1.9323,0 2.57032,-1.440104 v -7.173177 h 1.68619 v 9.861979 h -1.60416 z"
           inkscape:connector-curvature="0" />
        <path
           id="path5923"
           style="font-style:normal;font-variant:normal;font-weight:normal;font-stretch:normal;font-family:Roboto;-inkscape-font-specification:Roboto;fill:#4f4f4f;fill-opacity:1;stroke-width:0.27789152"
           d="m 314.15136,88.708334 q -0.38281,-0.0638 -0.82942,-0.0638 -1.65886,0 -2.2513,1.41276 v 7 h -1.6862 v -9.861979 h 1.64062 l 0.0274,1.139323 q 0.82942,-1.321615 2.35156,-1.321615 0.49219,0 0.74739,0.127605 z"
           inkscape:connector-curvature="0" />
        <path
           id="path5925"
           style="font-style:normal;font-variant:normal;font-weight:normal;font-stretch:normal;font-family:Roboto;-inkscape-font-specification:Roboto;fill:#4f4f4f;fill-opacity:1;stroke-width:0.27789152"
           d="m 321.41568,97.057292 q -0.14583,-0.291667 -0.23698,-1.039063 -1.17578,1.221355 -2.80729,1.221355 -1.45833,0 -2.39713,-0.820313 -0.92969,-0.829427 -0.92969,-2.096354 0,-1.540364 1.16667,-2.388021 1.17578,-0.856771 3.29947,-0.856771 h 1.64063 v -0.774739 q 0,-0.884115 -0.52865,-1.403646 -0.52864,-0.528646 -1.55859,-0.528646 -0.90234,0 -1.51302,0.455729 -0.61068,0.45573 -0.61068,1.102865 h -1.69531 q 0,-0.738281 0.51953,-1.421875 0.52865,-0.692708 1.42188,-1.09375 0.90234,-0.401042 1.97786,-0.401042 1.70443,0 2.67057,0.856771 0.96615,0.847656 1.00261,2.342448 v 4.539062 q 0,1.358073 0.34635,2.160157 v 0.145833 z m -2.79817,-1.285156 q 0.79296,0 1.5039,-0.410156 0.71094,-0.410157 1.02995,-1.066407 v -2.023437 h -1.32162 q -3.09895,0 -3.09895,1.813802 0,0.792969 0.52864,1.239583 0.52865,0.446615 1.35808,0.446615 z"
           inkscape:connector-curvature="0" />
      </g>
      <g
         id="g1644"
         style="stroke-width:0.11458332">
        <ellipse
           ry="2.9104164"
           rx="2.9104166"
           cy="25.135418"
           cx="3.4395833"
           id="path54-9"
           style="display:inline;fill:#cc0000;fill-opacity:1;stroke:none;stroke-width:0.11458332;stroke-miterlimit:4;stroke-dasharray:none;stroke-opacity:1" />
        <path
           inkscape:label="outer_flower"
           inkscape:connector-curvature="0"
           id="ellipse40"
           d="m 3.6722586,22.46795 c -0.1081195,-0.01147 -0.2326858,0.167745 -0.2326858,0.55579 -4.026e-4,-0.76 -0.5013986,-0.732291 -0.3666323,0.03201 3.5e-5,1.96e-4 1.23e-4,2.86e-4 1.638e-4,5e-4 a 2.1116737,2.1116737 0 0 0 -1.638e-4,0 c -3.19e-5,-1.8e-4 3.31e-5,-2.95e-4 0,-5e-4 -0.1323656,-0.748385 -0.6210277,-0.634066 -0.3555903,0.09522 2.542e-4,7.5e-4 7.45e-4,10e-4 9.6e-4,0.0016 a 2.1116737,2.1116737 0 0 0 -6.5e-4,3.09e-4 c -2.215e-4,-6.5e-4 -5.83e-5,-0.0012 -3.097e-4,-0.0019 -0.2603105,-0.71403 -0.7217095,-0.516561 -0.333666,0.15555 5.6e-4,10e-4 0.00142,0.0013 0.00192,0.0021 a 2.1116737,2.1116737 0 0 0 -0.00111,5e-4 c -4.026e-4,-8e-4 -2.704e-4,-0.0016 -8.05e-4,-0.0025 -0.3803455,-0.657979 -0.8003588,-0.383275 -0.3014993,0.211242 5.6e-4,6.5e-4 0.00128,7.5e-4 0.00176,0.0013 a 2.1116737,2.1116737 0 0 0 -6.35e-4,6.5e-4 c -4.675e-4,-6e-4 -5.45e-4,-0.0012 -0.00113,-0.0019 -0.4888243,-0.581938 -0.8547286,-0.238649 -0.2602112,0.26021 -0.5824503,-0.488213 -0.8833531,-0.08654 -0.2112417,0.3015 6.95e-4,4.02e-4 0.00131,3.03e-4 0.00192,6.5e-4 a 2.1116737,2.1116737 0 0 0 -4.812e-4,6.5e-4 c -5.701e-4,-3.4e-4 -7.801e-4,-8.5e-4 -0.00144,-0.0013 -0.6583789,-0.379654 -0.88483431,0.06823 -0.1555507,0.333666 0.00103,3.72e-4 0.00186,3.7e-5 0.00272,3.1e-4 a 2.1116737,2.1116737 0 0 0 -3.19e-4,0.0012 c -8.45e-4,-3.41e-4 -0.00136,-0.0011 -0.00239,-0.0015 -0.71430299,-0.25956 -0.85951566,0.220824 -0.095219,0.35559 8.2e-4,1.48e-4 0.00138,-2.7e-4 0.00208,-1.64e-4 a 2.1116737,2.1116737 0 0 0 -1.639e-4,9.5e-4 c -6.85e-4,-1.31e-4 -0.00111,-6.5e-4 -0.00192,-8e-4 -0.74851598,-0.131571 -0.80808645,0.366641 -0.031999,0.366641 -0.76000016,4.03e-4 -0.73229064,0.501398 0.032006,0.366632 1.966e-4,-3.4e-5 2.868e-4,-1.23e-4 4.812e-4,-1.64e-4 a 2.1116737,2.1116737 0 0 0 0,1.64e-4 c -1.803e-4,3.2e-5 -2.949e-4,-3.3e-5 -4.812e-4,0 -0.7483848,0.132366 -0.63406485,0.621028 0.095219,0.35559 7.05e-4,-2.53e-4 9.9e-4,-8e-4 0.0016,-9.5e-4 a 2.1116737,2.1116737 0 0 0 3.19e-4,6.5e-4 c -6.25e-4,2.21e-4 -0.0012,5.8e-5 -0.00192,3.1e-4 -0.71403003,0.26031 -0.5165608,0.721709 0.1555507,0.333666 9.8e-4,-5.5e-4 0.00129,-0.0014 0.00208,-0.0019 a 2.1116737,2.1116737 0 0 0 4.812e-4,0.0011 c -7.75e-4,4.02e-4 -0.00164,2.7e-4 -0.00256,8e-4 -0.6579799,0.380345 -0.3832757,0.800359 0.2112416,0.3015 6.65e-4,-5.5e-4 7.25e-4,-0.0013 0.00128,-0.0017 a 2.1116737,2.1116737 0 0 0 6.35e-4,6.5e-4 c -5.8e-4,4.58e-4 -0.00124,5.5e-4 -0.00192,0.0011 -0.5819372,0.488824 -0.238648,0.854728 0.2602114,0.260211 -0.4882129,0.58245 -0.086544,0.883353 0.3014994,0.211242 4.025e-4,-7e-4 3.032e-4,-0.0013 6.5e-4,-0.0019 a 2.1116737,2.1116737 0 0 0 6.5e-4,5e-4 c -3.407e-4,5.5e-4 -9e-4,8e-4 -0.00127,0.0014 -0.3796543,0.658379 0.068228,0.884834 0.3336659,0.15555 3.716e-4,-0.001 3.72e-5,-0.0019 3.097e-4,-0.0027 a 2.1116737,2.1116737 0 0 0 0.00111,3.1e-4 c -3.407e-4,8.5e-4 -0.00106,0.0013 -0.00145,0.0024 -0.2595605,0.714303 0.2208241,0.859516 0.3555903,0.09522 1.474e-4,-8e-4 -2.706e-4,-0.0014 -1.641e-4,-0.0021 a 2.1116737,2.1116737 0 0 0 9.6e-4,1.64e-4 c -1.31e-4,7e-4 -6.5e-4,0.0011 -8.05e-4,0.0019 -0.1315713,0.748516 0.3666407,0.808086 0.3666407,0.032 4.025e-4,0.76 0.5013985,0.73229 0.3666322,-0.03201 -3.49e-5,-1.97e-4 -1.229e-4,-2.87e-4 -1.638e-4,-5e-4 a 2.1116737,2.1116737 0 0 0 1.638e-4,0 c 3.17e-5,1.8e-4 -3.31e-5,2.95e-4 0,5e-4 0.1323656,0.748384 0.6210276,0.634065 0.35559,-0.09522 -2.539e-4,-7.5e-4 -7.4e-4,-10e-4 -9.6e-4,-0.0016 a 2.1116737,2.1116737 0 0 0 6.5e-4,-3.09e-4 c 2.212e-4,6.5e-4 5.79e-5,0.0012 3.097e-4,0.0019 0.2603105,0.71403 0.721709,0.516561 0.333666,-0.155551 -5.6e-4,-0.001 -0.00142,-0.0013 -0.00192,-0.0021 a 2.1116737,2.1116737 0 0 0 0.00112,-5e-4 c 4.026e-4,7.5e-4 2.704e-4,0.0016 8.05e-4,0.0025 0.3803453,0.657981 0.8003592,0.383276 0.3014993,-0.211241 -5.6e-4,-6.5e-4 -0.00127,-7.5e-4 -0.00177,-0.0012 a 2.1116737,2.1116737 0 0 0 6.501e-4,-6.5e-4 c 4.675e-4,6e-4 5.6e-4,0.0012 0.00111,0.0019 0.4888249,0.581938 0.8547294,0.238648 0.2602115,-0.260211 0.5824504,0.488213 0.8833534,0.08654 0.2112413,-0.301499 -7e-4,-4.03e-4 -0.0013,-3.04e-4 -0.0019,-6.5e-4 a 2.1116737,2.1116737 0 0 0 5e-4,-6.5e-4 c 5.5e-4,3.4e-4 7.5e-4,8.5e-4 0.00145,0.0013 0.658379,0.379654 0.884834,-0.06823 0.155551,-0.333666 -0.001,-3.71e-4 -0.00185,-3.7e-5 -0.00275,-3.1e-4 a 2.1116737,2.1116737 0 0 0 3.095e-4,-0.0011 c 8e-4,3.41e-4 0.00135,0.001 0.0024,0.0015 0.7143035,0.259561 0.8595165,-0.220824 0.095219,-0.35559 -8e-4,-1.47e-4 -0.00135,2.71e-4 -0.00205,1.64e-4 a 2.1116737,2.1116737 0 0 0 1.635e-4,-9.5e-4 c 7e-4,1.32e-4 0.00115,6.5e-4 0.0019,8e-4 0.7485155,0.131572 0.8080855,-0.36664 0.031995,-0.36664 0.7599995,-4.03e-4 0.73229,-0.501399 -0.032005,-0.366633 -1.965e-4,3.5e-5 -2.87e-4,1.24e-4 -5e-4,1.64e-4 a 2.1116737,2.1116737 0 0 0 0,-1.64e-4 c 1.805e-4,-3.1e-5 2.945e-4,3.4e-5 5e-4,0 0.7483845,-0.132365 0.6340645,-0.621027 -0.095218,-0.35559 -7.5e-4,2.54e-4 -10e-4,7.5e-4 -0.0016,9.5e-4 a 2.1116737,2.1116737 0 0 0 -3.1e-4,-6.5e-4 c 6.5e-4,-2.21e-4 0.00125,-5.8e-5 0.0019,-3.1e-4 0.7140295,-0.26031 0.5165605,-0.721709 -0.155551,-0.333665 -0.001,5.5e-4 -0.0013,0.0014 -0.00205,0.0019 a 2.1116737,2.1116737 0 0 0 -5e-4,-0.0011 c 7.5e-4,-4.03e-4 0.00165,-2.71e-4 0.00255,-8e-4 0.6579805,-0.380346 0.383276,-0.800359 -0.2112417,-0.3015 -6.35e-4,5.5e-4 -7.15e-4,0.0013 -0.00126,0.0018 a 2.1116737,2.1116737 0 0 0 -6.3e-4,-6.5e-4 c 5.85e-4,-4.58e-4 0.00122,-5.5e-4 0.00194,-0.0012 0.5819376,-0.488824 0.2386486,-0.854729 -0.2602114,-0.260211 0.4882135,-0.582451 0.086544,-0.883353 -0.301499,-0.211242 -4.026e-4,7.5e-4 -3.032e-4,0.0013 -6.5e-4,0.0019 a 2.1116737,2.1116737 0 0 0 -6.5e-4,-5e-4 c 3.407e-4,-5.5e-4 9e-4,-8e-4 0.00127,-0.0014 0.3796542,-0.65838 -0.068228,-0.884835 -0.3336657,-0.155551 -3.716e-4,0.001 -3.71e-5,0.0018 -3.097e-4,0.0027 a 2.1116737,2.1116737 0 0 0 -0.00111,-3.1e-4 c 3.407e-4,-8e-4 0.00106,-0.0014 0.00145,-0.0024 0.2595608,-0.714304 -0.2208237,-0.859516 -0.35559,-0.09522 -1.474e-4,8e-4 2.704e-4,0.0014 1.638e-4,0.0021 a 2.1116737,2.1116737 0 0 0 -9.6e-4,-1.64e-4 c 1.314e-4,-7e-4 6.5e-4,-0.0011 8.051e-4,-0.0019 0.06579,-0.374262 -0.025828,-0.57633 -0.1339463,-0.587796 z"
           style="display:inline;fill:#ffffff;fill-opacity:1;stroke:none;stroke-width:0.12126736;stroke-miterlimit:4;stroke-dasharray:none;stroke-opacity:1;filter:url(#filter11494)" />
        <g
           style="stroke-width:0.37000561"
           transform="matrix(0.30967999,0,0,0.30967999,-0.98495835,20.710881)"
           id="g52">
          <path
             style="display:inline;fill:#cc0000;fill-opacity:1;stroke:none;stroke-width:2.96004558;stroke-linecap:butt;stroke-linejoin:miter;stroke-miterlimit:4;stroke-dasharray:none;stroke-opacity:1"
             d="m 47.646484,32.083984 c -2.178411,0.143456 -4.407112,3.26207 -1.966796,7.458985 -2.78503,-4.770314 -7.351377,-3.634021 -7.792969,-1.169922 -0.706465,3.942085 -0.412139,4.525354 -0.980469,5.724609 -0.754621,1.091698 -1.404128,1.126127 -4.464844,3.708985 -1.916296,1.617111 -0.643139,6.16053 4.876953,6.162109 a 16.670917,16.670917 0 0 0 0,0.002 c -5.531396,0.02192 -6.832193,4.548696 -4.917968,6.164063 3.060715,2.582857 3.712375,2.619119 4.466797,3.710937 0.568125,1.199369 0.274004,1.780568 0.980468,5.722656 0.443456,2.47451 5.037752,3.647297 7.796875,-1.175781 0.0012,-0.0021 7.85e-4,-0.0038 0.002,-0.0059 a 16.670917,16.670917 0 0 0 0.06641,0.03906 c -0.0051,0.0088 -0.01008,0.01375 -0.01563,0.02344 -2.746795,4.801243 0.522847,8.189927 2.878906,7.339843 3.76718,-1.359226 4.124514,-1.904281 5.447266,-2.011718 1.322746,0.107678 1.678132,0.652488 5.445312,2.011718 2.364718,0.85321 5.676252,-2.538834 2.878906,-7.339843 -0.0133,-0.02283 -0.02713,-0.0362 -0.03906,-0.05469 a 16.670917,16.670917 0 0 0 0.0098,-0.0059 c 0.01028,0.0195 0.016,0.03772 0.0293,0.06055 2.784601,4.779413 7.355041,3.643184 7.796875,1.177734 0.706466,-3.942089 0.412141,-4.525354 0.980469,-5.724609 0.754624,-1.091698 1.406079,-1.126127 4.466797,-3.708985 1.921258,-1.621304 0.6385,-6.186127 -4.917969,-6.164062 -0.007,2.8e-5 -0.011,0.0019 -0.01758,0.002 a 16.670917,16.670917 0 0 0 0.0039,-0.06055 c 5.531396,-0.02192 6.832194,-4.546743 4.917969,-6.162109 -3.060718,-2.582858 -3.710424,-2.619119 -4.464844,-3.710938 -0.568127,-1.199369 -0.274014,-1.78252 -0.980469,-5.724609 -0.443458,-2.474509 -5.037752,-3.645344 -7.796874,1.177734 2.746793,-4.801244 -0.522848,-8.189928 -2.878907,-7.339843 -3.76718,1.359226 -4.124514,1.904278 -5.447265,2.011718 -1.322748,-0.107672 -1.680086,-0.652491 -5.447266,-2.011718 -0.29559,-0.106652 -0.60462,-0.14746 -0.916016,-0.126954 z"
             transform="scale(0.26458333)"
             id="use852-2"
             inkscape:connector-curvature="0"
             inkscape:label="lotus" />
          <path
             style="display:inline;fill:#ffcc00;fill-opacity:1;stroke:none;stroke-width:0.39158934;stroke-miterlimit:4;stroke-dasharray:none;stroke-opacity:1"
             d="M 18.695605,14.279973 A 4.4108467,4.4108467 0 0 1 14.284759,18.69082 4.4108467,4.4108467 0 0 1 9.8739119,14.279973 4.4108467,4.4108467 0 0 1 14.284759,9.8691263 4.4108467,4.4108467 0 0 1 18.695605,14.279973 Z"
             id="circle6277-5"
             inkscape:connector-curvature="0"
             inkscape:label="inner_circle" />
          <path
             style="display:inline;fill:#cc0000;fill-opacity:1;stroke:none;stroke-width:2.96004558;stroke-linecap:butt;stroke-linejoin:miter;stroke-miterlimit:4;stroke-dasharray:none;stroke-opacity:1"
             d="m 54,38.798828 c -3.448183,3.856857 -2.790183,9.207612 -1.517578,12.513672 -2.176472,-2.837488 -6.42902,-6.214564 -11.646484,-4.914062 1.616166,4.915016 6.578648,7.021541 10.078124,7.572265 -3.545536,0.466314 -8.595759,2.462504 -10.078124,7.630859 5.066396,1.058237 9.371664,-2.19137 11.597656,-4.947265 C 51.063589,59.957613 50.263661,65.331576 54,69.201172 57.448183,65.344315 56.790183,59.99356 55.517578,56.6875 c 2.176472,2.837488 6.42902,6.214564 11.646484,4.914062 -1.616166,-4.915016 -6.578648,-7.021541 -10.078124,-7.572265 3.545536,-0.466313 8.595759,-2.462506 10.078124,-7.630859 -5.066396,-1.05824 -9.371664,2.19137 -11.597656,4.947265 C 56.936411,48.042387 57.736339,42.668424 54,38.798828 Z"
             transform="scale(0.26458333)"
             id="path4733-7"
             inkscape:connector-curvature="0"
             inkscape:label="inner_flower" />
        </g>
      </g>
    </g>
    <g
       style="display:none;stroke-width:0.96861243"
       inkscape:label="boundary--HIDEIT"
       id="g3006"
       transform="matrix(0.12523222,0,0,0.12516174,4.2927211,7.8700122)">
      <path
         inkscape:connector-curvature="0"
         style="display:inline;opacity:1;fill:#786a3a;fill-opacity:1;stroke:none;stroke-width:0.96861243;stroke-miterlimit:4;stroke-dasharray:none;stroke-dashoffset:0;stroke-opacity:1"
         d="M 37,2 H 11 C 9.338,2 8,3.338 8,5 v 38 c 0,1.662 1.338,3 3,3 h 26 c 1.662,0 3,-1.338 3,-3 V 5 C 40,3.338 38.662,2 37,2 Z"
         id="path3004" />
    </g>
    <g
       style="display:none;stroke-width:0.96861243"
       inkscape:label="keylines"
       id="g3018"
       transform="matrix(0.12523222,0,0,0.12516174,4.2927211,7.8700122)">
      <rect
         rx="2.9050195"
         ry="2.9066556"
         y="5.0099998"
         x="5"
         height="37.990002"
         width="37.990002"
         id="rect3008"
         style="opacity:1;fill:none;fill-opacity:1;stroke:#212121;stroke-width:0.00968612;stroke-miterlimit:4;stroke-dasharray:none;stroke-dashoffset:0;stroke-opacity:1" />
      <rect
         ry="2.9066556"
         rx="2.9050193"
         style="opacity:1;fill:none;fill-opacity:1;stroke:#212121;stroke-width:0.00968612;stroke-miterlimit:4;stroke-dasharray:none;stroke-dashoffset:0;stroke-opacity:1"
         id="rect3010"
         width="31.990002"
         height="43.990002"
         x="8.0500002"
         y="1.960003" />
      <rect
         ry="2.9050195"
         rx="2.9066553"
         transform="rotate(90)"
         y="-46.040001"
         x="7.9599996"
         height="43.990002"
         width="31.99"
         id="rect3012"
         style="opacity:1;fill:none;fill-opacity:1;stroke:#212121;stroke-width:0.00968613;stroke-miterlimit:4;stroke-dasharray:none;stroke-dashoffset:0;stroke-opacity:1" />
      <circle
         r="21.995001"
         cy="23.955002"
         cx="24.045"
         id="circle3014"
         style="opacity:1;fill:none;fill-opacity:1;stroke:#212121;stroke-width:0.00968612;stroke-miterlimit:4;stroke-dasharray:none;stroke-dashoffset:0;stroke-opacity:1" />
      <circle
         style="opacity:1;fill:none;fill-opacity:1;stroke:#212121;stroke-width:0.00968612;stroke-miterlimit:4;stroke-dasharray:none;stroke-dashoffset:0;stroke-opacity:1"
         id="circle3016"
         cx="24"
         cy="24"
         r="9.9949999" />
    </g>
    <g
       id="g1726"
       transform="matrix(3.858734,0,0,3.9827419,-55.57639,-104.13022)"
       style="stroke-width:0.11691437"
       inkscape:export-filename="/home/ananth/code/kuyil/kuyil.github.io/images/sadhakam_seal.png"
       inkscape:export-xdpi="96"
       inkscape:export-ydpi="96">
      <g
         transform="matrix(0.12523222,0,0,0.12516174,0.80064116,29.925254)"
         id="g3062"
         inkscape:label="design"
         style="display:inline;stroke-width:0.2470794">
        <g
           inkscape:groupmode="layer"
           id="g3022"
           inkscape:label="background"
           style="display:inline;stroke-width:0.2470794"
           sodipodi:insensitive="true">
          <path
             id="path3020"
             d="M 37,2 H 11 C 9.338,2 8,3.338 8,5 v 38 c 0,1.662 1.338,3 3,3 h 26 c 1.662,0 3,-1.338 3,-3 V 5 C 40,3.338 38.662,2 37,2 Z"
             style="display:inline;opacity:1;fill:#ffff8d;fill-opacity:1;stroke:none;stroke-width:0.2470794;stroke-miterlimit:4;stroke-dasharray:none;stroke-dashoffset:0;stroke-opacity:1"
             inkscape:connector-curvature="0" />
        </g>
        <g
           inkscape:groupmode="layer"
           id="g3040"
           inkscape:label="singer"
           style="display:inline;stroke-width:0.2470794">
          <g
             inkscape:groupmode="layer"
             id="g3026"
             inkscape:label="shadow"
             style="display:inline;stroke-width:0.2470794"
             sodipodi:insensitive="true">
            <path
               style="display:inline;opacity:1;fill:#3e2723;fill-opacity:0.4;stroke:none;stroke-width:0.2470794;stroke-miterlimit:4;stroke-dasharray:none;stroke-dashoffset:0;stroke-opacity:1;filter:url(#filter5750-8-2)"
               d="M 10.999999,44.796 C 9.3380004,44.796 7.9999999,43.459122 8,41.798516 l 2.4e-6,-35.8024796 c 1e-7,-1.6606061 1.337997,-2.9960824 2.9999966,-2.9960824 h 19.415417 c 0.568533,5.4548711 4.162746,14.603696 4.612705,18.126239 0.256904,2.0112 -4.022612,0.608064 -5.028121,2.124494 -0.920273,1.387883 0,3.766041 0,3.766041 0,0 -9.491911,-0.596892 -10.406259,1.441981 C 18,32.012534 26.761569,39.971738 26.761569,39.971738 L 24.490226,44.796 Z"
               id="path3024"
               inkscape:connector-curvature="0"
               sodipodi:nodetypes="sssscsscsccs" />
          </g>
          <g
             inkscape:groupmode="layer"
             id="g3030"
             inkscape:label="singer_main"
             style="display:inline;opacity:1;stroke-width:0.2470794"
             sodipodi:insensitive="true">
            <path
               style="display:inline;opacity:1;fill:#d50000;fill-opacity:1;stroke:none;stroke-width:0.2470794;stroke-miterlimit:4;stroke-dasharray:none;stroke-dashoffset:0;stroke-opacity:1"
               d="M 10.999999,46 C 9.3379994,46 7.9999993,44.663122 7.9999994,43.002516 l 3e-6,-38.0064336 C 8.0000025,3.3354763 9.3379994,2 10.999999,2 h 19.415417 c 0.568533,5.4548711 4.162746,14.603696 4.612705,18.126239 0.256904,2.0112 -4.022612,0.608064 -5.028121,2.124494 -0.920273,1.387883 0,3.766041 0,3.766041 0,0 -9.491911,-0.596892 -10.406259,1.441981 C 18,31.01258 26.761569,38.971784 26.761569,38.971784 L 23.452568,46 Z"
               id="path3028"
               inkscape:connector-curvature="0"
               sodipodi:nodetypes="sssscsscsccs" />
          </g>
          <g
             inkscape:groupmode="layer"
             id="g3034"
             inkscape:label="shade"
             style="display:inline;stroke-width:0.2470794">
            <path
               style="display:inline;opacity:0.2;fill:#3e2723;fill-opacity:1;stroke:none;stroke-width:0.2470794;stroke-miterlimit:4;stroke-dasharray:none;stroke-dashoffset:0;stroke-opacity:1"
               d="M 8.0107577,43.259354 C 8.1428708,44.7963 9.426448,46 11,46 h 12.452568 l 0.117704,-0.25 H 11 c -1.5086366,0 -2.5142162,-1.4637 -2.9892423,-2.490646 z"
               id="path3032"
               inkscape:connector-curvature="0"
               sodipodi:nodetypes="csccsc" />
          </g>
          <g
             inkscape:groupmode="layer"
             id="g3038"
             inkscape:label="tint"
             style="display:inline;stroke-width:0.2470794"
             sodipodi:insensitive="true">
            <path
               style="display:inline;opacity:0.2;fill:#ffffff;fill-opacity:1;stroke:none;stroke-width:0.2470794;stroke-miterlimit:4;stroke-dasharray:none;stroke-dashoffset:0;stroke-opacity:1"
               d="M 11,2 C 9.3379998,2 8.0000001,3.3354877 8,4.9960938 V 5.375 v 0 C 8.0304653,3.8628969 9.2476969,2.2500005 10.922767,2.2500005 H 30.443266 L 30.415416,2 Z"
               id="path3036"
               inkscape:connector-curvature="0"
               sodipodi:nodetypes="ssccsccs" />
          </g>
        </g>
        <g
           inkscape:groupmode="layer"
           id="g3060"
           inkscape:label="music_note"
           style="display:inline;stroke-width:0.2470794">
          <g
             inkscape:groupmode="layer"
             id="g3044"
             inkscape:label="shadow"
             style="display:inline;stroke-width:0.2470794"
             sodipodi:insensitive="true">
            <path
               style="display:inline;opacity:1;fill:#3e2723;fill-opacity:0.40269464;stroke-width:0.2470794;filter:url(#filter5734-4-3)"
               inkscape:connector-curvature="0"
               d="m 33.685807,30.463024 0.681219,6.596517 c -0.390999,-0.177531 -0.829529,-0.264886 -1.285752,-0.217778 -1.381175,0.142629 -2.38434,1.376848 -2.241707,2.758022 0.142639,1.381175 1.376852,2.38434 2.758025,2.241707 3.59376,-1.476725 1.888822,-5.735318 1.596308,-9.007685 l 2.499864,-0.258159 -0.25816,-2.499865 -3.749796,0.387238 z"
               id="path3042"
               sodipodi:nodetypes="cccccccccc" />
          </g>
          <g
             inkscape:groupmode="layer"
             id="g3048"
             inkscape:label="music_note_main"
             style="display:inline;stroke-width:0.2470794">
            <path
               style="display:inline;opacity:1;fill:#d50000;fill-opacity:1;stroke-width:0.2470794"
               inkscape:connector-curvature="0"
               d="m 33.685807,29.463331 0.681219,6.596517 c -0.390999,-0.177531 -0.829529,-0.264886 -1.285752,-0.217778 -1.381175,0.142629 -2.38434,1.376848 -2.241707,2.758022 0.142639,1.381175 1.376852,2.38434 2.758025,2.241707 1.381174,-0.142639 2.38434,-1.37685 2.241705,-2.758026 l -0.645397,-6.249659 2.499864,-0.258159 -0.25816,-2.499865 -3.749796,0.387238 z"
               id="path3046" />
          </g>
          <g
             inkscape:groupmode="layer"
             id="g3052"
             inkscape:label="tint"
             style="display:inline;stroke-width:0.2470794"
             sodipodi:insensitive="true">
            <path
               style="display:inline;opacity:0.2;fill:#ffffff;fill-opacity:1;stroke-width:0.2470794"
               d="m 37.470703,29.076172 -3.784896,0.387159 0.02551,0.24706 3.749801,-0.387241 z m -4.388833,6.764926 c -1.381175,0.142629 -2.384821,1.376638 -2.242188,2.757812 0.01748,0.16928 0.05303,0.333725 0.101562,0.490235 -0.238278,-1.049745 0.400523,-2.715907 1.952801,-2.990418 0.451641,-0.07987 1.113232,0.03375 1.504231,0.211273 l -0.03125,-0.250152 C 33.976027,35.882317 33.538092,35.79399 33.08187,35.841098 Z"
               id="path3050"
               inkscape:connector-curvature="0"
               sodipodi:nodetypes="cccccsscsccs" />
          </g>
          <g
             inkscape:groupmode="layer"
             id="g3058"
             inkscape:label="shade"
             style="display:inline;stroke-width:0.2470794">
            <path
               style="display:inline;opacity:0.2;fill:#3e2723;fill-opacity:1;stroke-width:0.2470794"
               d="m 37.668243,31.328827 -2.5,0.257812 0.02559,0.247301 2.5,-0.257812 z"
               id="path3054"
               inkscape:connector-curvature="0"
               sodipodi:nodetypes="ccccc" />
            <path
               style="display:inline;opacity:0.2;fill:#3e2723;fill-opacity:1;stroke-width:0.2470794"
               d="m 33.895375,40.557194 c -0.580861,0.236808 -2.177023,-0.197387 -2.772947,-1.03684 0.651417,1.055272 1.534335,1.375557 2.475747,1.321399 1.352454,-0.190679 2.222245,-1.140417 2.252891,-2.612795 L 35.73986,37.271684 c 0.250458,1.472949 -0.621506,2.831692 -1.844485,3.28551 z"
               id="path3056"
               inkscape:connector-curvature="0"
               sodipodi:nodetypes="cccccc" />
          </g>
        </g>
      </g>
      <g
         transform="matrix(0.12523222,0,0,0.12516174,0.80064116,29.925254)"
         id="g3066"
         inkscape:label="finish"
         style="display:inline;stroke-width:0.2470794">
        <rect
           style="opacity:1;fill:url(#radialGradient3176);fill-opacity:1;stroke:none;stroke-width:0.00024708;stroke-miterlimit:4;stroke-dasharray:none;stroke-dashoffset:0;stroke-opacity:0.46153846"
           id="rect3064"
           width="32"
           height="44"
           x="8"
           y="2"
           rx="0.75284266"
           ry="0.72981268" />
      </g>
      <flowRoot
         transform="matrix(0.14850713,0,0,0.14850713,-3.9334068,18.348356)"
         style="font-style:normal;font-variant:normal;font-weight:normal;font-stretch:normal;font-size:18.66666603px;line-height:20px;font-family:'Roboto Condensed';-inkscape-font-specification:'Roboto Condensed, ';font-variant-ligatures:normal;font-variant-caps:normal;font-variant-numeric:normal;font-feature-settings:normal;text-align:start;writing-mode:lr-tb;text-anchor:start;opacity:1;fill:#cc0000;fill-opacity:1;fill-rule:nonzero;stroke:none;stroke-width:0.28355286;stroke-miterlimit:4;stroke-dasharray:none;stroke-dashoffset:0;stroke-opacity:1"
         id="flowRoot3076"
         xml:space="preserve"><flowRegion
           style="text-align:start;text-anchor:start;fill:#cc0000;fill-opacity:1;stroke-width:0.28355286"
           id="flowRegion3072"><rect
             style="text-align:start;text-anchor:start;fill:#cc0000;fill-opacity:1;stroke-width:0.28355286"
             y="82.39106"
             x="77.22905"
             height="37.958569"
             width="377.96024"
             id="rect3070" /></flowRegion><flowPara
           style="text-align:start;text-anchor:start;stroke-width:0.28355286"
           id="flowPara3074">Sdhakam</flowPara></flowRoot>      <flowRoot
         xml:space="preserve"
         id="flowRoot3084"
         style="font-style:normal;font-variant:normal;font-weight:normal;font-stretch:normal;font-size:18.66666603px;line-height:20px;font-family:'Roboto Condensed';-inkscape-font-specification:'Roboto Condensed, ';font-variant-ligatures:normal;font-variant-caps:normal;font-variant-numeric:normal;font-feature-settings:normal;text-align:center;writing-mode:lr-tb;text-anchor:middle;opacity:1;fill:#4f4f4f;fill-opacity:1;fill-rule:nonzero;stroke:none;stroke-width:0.27261078;stroke-miterlimit:4;stroke-dasharray:none;stroke-dashoffset:0;stroke-opacity:1"
         transform="matrix(0.11011113,0,0,0.11011113,-11.081773,24.468155)"><flowRegion
           id="flowRegion3080"
           style="text-align:center;text-anchor:middle;fill:#4f4f4f;fill-opacity:1;stroke-width:0.27261078"><rect
             id="rect3078"
             width="346.69589"
             height="54.632881"
             x="77.22905"
             y="82.39106"
             style="text-align:center;text-anchor:middle;fill:#4f4f4f;fill-opacity:1;stroke-width:0.27261078" /></flowRegion><flowPara
           style="font-style:normal;font-variant:normal;font-weight:normal;font-stretch:normal;font-family:Roboto;-inkscape-font-specification:Roboto;fill:#4f4f4f;fill-opacity:1;stroke-width:0.27261078"
           id="flowPara3082">Carnatic Ear Trainer</flowPara></flowRoot>    </g>
    <g
       id="g1782"
       inkscape:export-filename="/home/ananth/code/kuyil/kuyil.github.io/images/shruti_seal.png"
       inkscape:export-xdpi="384"
       inkscape:export-ydpi="384"
       transform="matrix(4,0,0,4,-54.703875,-109.86967)"
       style="stroke-width:0.11458332">
      <g
         transform="matrix(0.12126735,0,0,0.12126735,0.5291669,-83.243983)"
         id="g3098"
         inkscape:label="Layer 1"
         style="stroke-width:0.11458332">
        <g
           id="g3096"
           style="stroke-width:0.11458332">
          <circle
             style="opacity:1;fill:#ffcc00;fill-rule:nonzero;stroke:none;stroke-width:1;stroke-miterlimit:4;stroke-dasharray:none;stroke-dashoffset:0;stroke-opacity:1"
             id="circle3090"
             cx="24"
             cy="1028.3622"
             r="24" />
          <g
             style="font-style:normal;font-variant:normal;font-weight:normal;font-stretch:normal;font-size:70.51673126px;line-height:125%;font-family:Sail;-inkscape-font-specification:Sail;text-align:start;letter-spacing:0px;word-spacing:0px;text-anchor:start;fill:#cc0000;stroke:none;stroke-width:0.25px;stroke-linecap:butt;stroke-linejoin:miter;stroke-opacity:1"
             id="g3094"
             transform="matrix(0.45096347,0,0,0.45096347,-19.292494,597.07778)">
            <path
               d="m 88.207906,986.75489 c -5.429789,0 -8.038908,-1.12827 -10.930094,-3.66687 -2.468085,-2.1155 -3.807903,-5.00669 -3.807903,-8.17994 0,-5.35927 4.019454,-10.85958 10.78906,-10.85958 2.679636,0 4.865654,0.70517 6.205472,2.04499 1.198785,1.05775 1.833435,2.67964 1.833435,4.37204 0,3.17325 -2.186019,6.55805 -5.429788,6.55805 -1.833435,0 -3.24377,-0.49361 -4.160487,-1.48085 -1.621885,-1.62188 -1.551368,-4.08997 -1.551368,-4.08997 l -1.339818,-0.0705 c -0.07052,0.14104 -0.141034,3.03222 1.903951,5.07721 1.198785,1.2693 2.961703,1.97447 5.147722,1.97447 4.019454,0 6.769606,-4.08997 6.769606,-7.96839 0,-2.1155 -0.775684,-4.01946 -2.256535,-5.35927 -1.621885,-1.55137 -4.089971,-2.39757 -7.12219,-2.39757 -7.615807,0 -12.128878,6.20547 -12.128878,12.19939 0,3.59635 1.480851,6.84012 4.231004,9.16718 3.173253,2.75015 7.897874,4.231 13.609729,4.231 13.962316,0 22.847416,-7.47477 22.847416,-18.05228 0,-9.80183 -10.85957,-13.82128 -16.924011,-19.46262 3.948937,-0.98724 7.404261,-3.10274 8.532521,-3.94894 1.19879,0.70517 2.75016,1.05775 4.51307,1.05775 7.05168,0 10.9301,-5.42979 10.9301,-10.64802 0,-2.89119 -1.12827,-5.64134 -3.24377,-7.61581 -2.39757,-2.18602 -5.92341,-3.45532 -10.15441,-3.45532 -12.481462,0 -23.058972,7.96839 -23.058972,20.6614 0,0.8462 0,1.62189 0.141033,2.39757 -4.231003,-1.41033 -6.134955,-4.37204 -6.981156,-6.91064 -1.833435,-5.71185 0.352584,-13.53921 4.795138,-16.78298 l -0.775684,-1.12827 c -4.936171,3.66687 -7.33374,12.05836 -5.288755,18.33435 0.846201,2.5386 2.961703,6.34651 8.462008,7.96839 2.891186,12.48146 20.097268,11.91733 20.097268,24.96293 0,6.55805 -5.570822,11.07112 -15.654714,11.07112 z m 15.231614,-40.68815 c -1.12827,0.77568 -4.654105,2.89118 -8.744075,3.8079 -7.968391,-5.42979 -3.66687,-22.3538 11.776295,-22.3538 3.87842,0 7.05167,1.12827 9.23769,3.10273 1.83344,1.76292 2.82067,4.08997 2.82067,6.62858 0,4.58358 -3.3848,9.44924 -9.59028,9.44924 -1.2693,0 -2.32705,-0.28207 -3.24376,-0.70517 3.17325,-2.82067 5.14772,-6.48754 5.14772,-9.80182 0,-3.38481 -1.69241,-5.14773 -4.72462,-5.14773 -3.80791,0 -5.92341,3.17326 -5.92341,7.19271 0,2.9617 1.12827,5.92341 3.24377,7.82736 z m 2.60912,-13.75076 c 2.25653,0 3.3848,1.2693 3.3848,3.87842 0,3.31428 -2.18602,7.05167 -4.93617,9.02614 -1.97447,-1.62189 -2.89119,-4.37204 -2.89119,-6.98116 0,-3.45532 1.55137,-5.9234 4.44256,-5.9234 z"
               id="path3092"
               inkscape:connector-curvature="0"
               style="stroke-width:0.25px" />
          </g>
        </g>
      </g>
      <flowRoot
         transform="matrix(0.14850713,0,0,0.14850713,-3.3731644,26.836228)"
         style="font-style:normal;font-variant:normal;font-weight:normal;font-stretch:normal;font-size:18.66666603px;line-height:20px;font-family:'Roboto Condensed';-inkscape-font-specification:'Roboto Condensed, ';font-variant-ligatures:normal;font-variant-caps:normal;font-variant-numeric:normal;font-feature-settings:normal;text-align:start;writing-mode:lr-tb;text-anchor:start;opacity:1;fill:#cc0000;fill-opacity:1;fill-rule:nonzero;stroke:none;stroke-width:0.27789935;stroke-miterlimit:4;stroke-dasharray:none;stroke-dashoffset:0;stroke-opacity:1"
         id="flowRoot3106"
         xml:space="preserve"><flowRegion
           style="text-align:start;text-anchor:start;fill:#cc0000;fill-opacity:1;stroke-width:0.27789935"
           id="flowRegion3102"><rect
             style="text-align:start;text-anchor:start;fill:#cc0000;fill-opacity:1;stroke-width:0.27789935"
             y="82.39106"
             x="77.22905"
             height="37.958569"
             width="377.96024"
             id="rect3100" /></flowRegion><flowPara
           style="text-align:start;text-anchor:start;stroke-width:0.27789935"
           id="flowPara3104">Shruti</flowPara></flowRoot>      <flowRoot
         xml:space="preserve"
         id="flowRoot3114"
         style="font-style:normal;font-variant:normal;font-weight:normal;font-stretch:normal;font-size:18.66666603px;line-height:20px;font-family:'Roboto Condensed';-inkscape-font-specification:'Roboto Condensed, ';font-variant-ligatures:normal;font-variant-caps:normal;font-variant-numeric:normal;font-feature-settings:normal;text-align:center;writing-mode:lr-tb;text-anchor:middle;opacity:1;fill:#4f4f4f;fill-opacity:1;fill-rule:nonzero;stroke:none;stroke-width:0.26717547;stroke-miterlimit:4;stroke-dasharray:none;stroke-dashoffset:0;stroke-opacity:1"
         transform="matrix(0.11011113,0,0,0.11011113,-12.847915,32.956032)"><flowRegion
           id="flowRegion3110"
           style="text-align:center;text-anchor:middle;fill:#4f4f4f;fill-opacity:1;stroke-width:0.26717547"><rect
             id="rect3108"
             width="346.69589"
             height="54.632881"
             x="77.22905"
             y="82.39106"
             style="text-align:center;text-anchor:middle;fill:#4f4f4f;fill-opacity:1;stroke-width:0.26717547" /></flowRegion><flowPara
           style="font-style:normal;font-variant:normal;font-weight:normal;font-stretch:normal;font-family:Roboto;-inkscape-font-specification:Roboto;fill:#4f4f4f;fill-opacity:1;stroke-width:0.26717547"
           id="flowPara3112">Carnatic Tuner</flowPara></flowRoot>    </g>
  </g>
</svg>
