<?xml version="1.0" encoding="UTF-8" standalone="no"?>
<!-- Created with Inkscape (http://www.inkscape.org/) -->

<svg
   xmlns:dc="http://purl.org/dc/elements/1.1/"
   xmlns:cc="http://creativecommons.org/ns#"
   xmlns:rdf="http://www.w3.org/1999/02/22-rdf-syntax-ns#"
   xmlns:svg="http://www.w3.org/2000/svg"
   xmlns="http://www.w3.org/2000/svg"
   xmlns:sodipodi="http://sodipodi.sourceforge.net/DTD/sodipodi-0.dtd"
   xmlns:inkscape="http://www.inkscape.org/namespaces/inkscape"
   width="84.666664mm"
   height="47.625mm"
   viewBox="0 0 84.666664 47.625"
   version="1.1"
   id="svg8"
   inkscape:version="0.92.2 (unknown)"
   sodipodi:docname="shruti_navaratri_offer_india.svg"
   inkscape:export-filename="/home/ragu/code/kuyil.github.io/images/shruti/notification/xxxhdpi/navaratri_offer_india.png"
   inkscape:export-xdpi="384"
   inkscape:export-ydpi="384">
  <defs
     id="defs2">
    <filter
       inkscape:collect="always"
       style="color-interpolation-filters:sRGB"
       id="filter6868"
       x="-0.009375"
       width="1.01875"
       y="-0.016666667"
       height="1.0333333">
      <feGaussianBlur
         inkscape:collect="always"
         stdDeviation="2.3996032"
         id="feGaussianBlur6870" />
    </filter>
  </defs>
  <sodipodi:namedview
     id="base"
     pagecolor="#ffffff"
     bordercolor="#666666"
     borderopacity="1.0"
     inkscape:pageopacity="1"
     inkscape:pageshadow="2"
     inkscape:zoom="3.1494452"
     inkscape:cx="144.80759"
     inkscape:cy="117.70039"
     inkscape:document-units="mm"
     inkscape:current-layer="layer2"
     showgrid="false"
     fit-margin-top="0"
     fit-margin-left="0"
     fit-margin-right="0"
     fit-margin-bottom="0"
     inkscape:window-width="1920"
     inkscape:window-height="1056"
     inkscape:window-x="0"
     inkscape:window-y="24"
     inkscape:window-maximized="1"
     inkscape:snap-page="true" />
  <metadata
     id="metadata5">
    <rdf:RDF>
      <cc:Work
         rdf:about="">
        <dc:format>image/svg+xml</dc:format>
        <dc:type
           rdf:resource="http://purl.org/dc/dcmitype/StillImage" />
        <dc:title></dc:title>
      </cc:Work>
    </rdf:RDF>
  </metadata>
  <g
     inkscape:label="background"
     inkscape:groupmode="layer"
     id="layer1"
     transform="translate(169.33336,-27.880945)"
     style="display:inline;opacity:0.152">
    <g
       id="g5594"
       transform="matrix(0.1378266,0,0,0.1378266,-169.33336,27.880952)"
       style="stroke-width:1.91968262;filter:url(#filter6868)">
      <g
         transform="translate(469.21965,-122.66484)"
         id="layer1-6"
         inkscape:label="Layer 1"
         style="stroke-width:1.91968262">
        <path
           id="rect4446"
           d="M -469.21964,122.66482 H 145.07877 V 468.20766 H -469.21964 Z"
           style="opacity:0.59600004;fill:#bfbfbf;fill-opacity:1;fill-rule:nonzero;stroke:none;stroke-width:0.57590479;stroke-miterlimit:4;stroke-dasharray:none;stroke-dashoffset:0;stroke-opacity:1"
           inkscape:connector-curvature="0" />
        <g
           id="flowRoot7783"
           style="font-style:normal;font-variant:normal;font-weight:bold;font-stretch:normal;font-size:43.89706039px;line-height:125%;font-family:Roboto;-inkscape-font-specification:'Roboto Bold';text-align:center;writing-mode:lr-tb;text-anchor:middle;opacity:1;fill:#ffffff;fill-opacity:1;fill-rule:nonzero;stroke:none;stroke-width:0.95984131;stroke-miterlimit:4;stroke-dasharray:none;stroke-dashoffset:0;stroke-opacity:1"
           transform="rotate(-11.993259,-616.85293,-1807.2932)" />
        <g
           id="flowRoot7797"
           style="font-style:normal;font-variant:normal;font-weight:bold;font-stretch:normal;font-size:43.89706039px;line-height:125%;font-family:Roboto;-inkscape-font-specification:'Roboto Bold';text-align:center;writing-mode:lr-tb;text-anchor:middle;opacity:1;fill:#ffffff;fill-opacity:1;fill-rule:nonzero;stroke:none;stroke-width:0.95984131;stroke-miterlimit:4;stroke-dasharray:none;stroke-dashoffset:0;stroke-opacity:1"
           transform="rotate(-11.993259,-47.355974,-1863.7133)" />
        <g
           id="flowRoot7811"
           style="font-style:normal;font-variant:normal;font-weight:bold;font-stretch:normal;font-size:43.89706039px;line-height:125%;font-family:Roboto;-inkscape-font-specification:'Roboto Bold';text-align:center;writing-mode:lr-tb;text-anchor:middle;opacity:1;fill:#ffffff;fill-opacity:1;fill-rule:nonzero;stroke:none;stroke-width:0.95984131;stroke-miterlimit:4;stroke-dasharray:none;stroke-dashoffset:0;stroke-opacity:1"
           transform="rotate(-11.993259,-676.58564,-2375.9321)" />
        <g
           id="flowRoot7825"
           style="font-style:normal;font-variant:normal;font-weight:bold;font-stretch:normal;font-size:43.89706039px;line-height:125%;font-family:Roboto;-inkscape-font-specification:'Roboto Bold';text-align:center;writing-mode:lr-tb;text-anchor:middle;opacity:1;fill:#ffffff;fill-opacity:1;fill-rule:nonzero;stroke:none;stroke-width:0.95984131;stroke-miterlimit:4;stroke-dasharray:none;stroke-dashoffset:0;stroke-opacity:1"
           transform="rotate(-11.993259,-106.73498,-2428.9863)" />
        <g
           id="flowRoot7839"
           style="font-style:normal;font-variant:normal;font-weight:bold;font-stretch:normal;font-size:43.89706039px;line-height:125%;font-family:Roboto;-inkscape-font-specification:'Roboto Bold';text-align:center;writing-mode:lr-tb;text-anchor:middle;opacity:1;fill:#ffffff;fill-opacity:1;fill-rule:nonzero;stroke:none;stroke-width:0.95984131;stroke-miterlimit:4;stroke-dasharray:none;stroke-dashoffset:0;stroke-opacity:1"
           transform="rotate(-11.993259,-737.23432,-2946.8738)" />
        <g
           id="flowRoot7853"
           style="font-style:normal;font-variant:normal;font-weight:bold;font-stretch:normal;font-size:43.89706039px;line-height:125%;font-family:Roboto;-inkscape-font-specification:'Roboto Bold';text-align:center;writing-mode:lr-tb;text-anchor:middle;opacity:1;fill:#ffffff;fill-opacity:1;fill-rule:nonzero;stroke:none;stroke-width:0.95984131;stroke-miterlimit:4;stroke-dasharray:none;stroke-dashoffset:0;stroke-opacity:1"
           transform="rotate(-11.993259,-168.58376,-3001.5392)" />
        <path
           inkscape:connector-curvature="0"
           id="circle7865"
           d="M -72.285461,161.23323 A 56,56 0 0 1 -128.28546,217.23323 56,56 0 0 1 -184.28546,161.23323 56,56 0 0 1 -128.28546,105.23323 56,56 0 0 1 -72.285461,161.23323 Z"
           style="opacity:1;fill:#5c6bc0;fill-opacity:1;fill-rule:nonzero;stroke:none;stroke-width:0.95984131;stroke-miterlimit:4;stroke-dasharray:none;stroke-dashoffset:0;stroke-opacity:1"
           transform="rotate(-11.993259)" />
        <g
           id="flowRoot7867"
           style="font-style:normal;font-variant:normal;font-weight:bold;font-stretch:normal;font-size:43.89706039px;line-height:125%;font-family:Roboto;-inkscape-font-specification:'Roboto Bold';text-align:center;writing-mode:lr-tb;text-anchor:middle;opacity:1;fill:#ffffff;fill-opacity:1;fill-rule:nonzero;stroke:none;stroke-width:0.95984131;stroke-miterlimit:4;stroke-dasharray:none;stroke-dashoffset:0;stroke-opacity:1"
           transform="rotate(-11.993259,-797.61244,-3517.1879)" />
        <g
           id="flowRoot7881"
           style="font-style:normal;font-variant:normal;font-weight:bold;font-stretch:normal;font-size:43.89706039px;line-height:125%;font-family:Roboto;-inkscape-font-specification:'Roboto Bold';text-align:center;writing-mode:lr-tb;text-anchor:middle;opacity:1;fill:#ffffff;fill-opacity:1;fill-rule:nonzero;stroke:none;stroke-width:0.95984131;stroke-miterlimit:4;stroke-dasharray:none;stroke-dashoffset:0;stroke-opacity:1"
           transform="rotate(-11.993259,-228.96193,-3571.8533)" />
        <g
           id="flowRoot7895"
           style="font-style:normal;font-variant:normal;font-weight:bold;font-stretch:normal;font-size:43.89706039px;line-height:125%;font-family:Roboto;-inkscape-font-specification:'Roboto Bold';text-align:center;writing-mode:lr-tb;text-anchor:middle;opacity:1;fill:#ffffff;fill-opacity:1;fill-rule:nonzero;stroke:none;stroke-width:0.95984131;stroke-miterlimit:4;stroke-dasharray:none;stroke-dashoffset:0;stroke-opacity:1"
           transform="rotate(-11.993259,-870.61238,-4209.0517)" />
        <path
           d="M 72.771441,280.45001 A 56,56 0 0 1 16.771441,336.45001 56,56 0 0 1 -39.228559,280.45001 56,56 0 0 1 16.771441,224.45001 56,56 0 0 1 72.771441,280.45001 Z M -21.890841,120.75173 A 56,56 0 0 0 -39.228217,161.2339 56,56 0 0 0 16.771686,217.23347 56,56 0 0 0 72.771261,161.23356 56,56 0 0 0 68.525114,139.95911 Z M -72.285461,280.45001 A 56,56 0 0 1 -128.28546,336.45001 56,56 0 0 1 -184.28546,280.45001 56,56 0 0 1 -128.28546,224.45001 56,56 0 0 1 -72.285461,280.45001 Z M -191.90288,280.45001 A 56,56 0 0 1 -247.90288,336.45001 56,56 0 0 1 -303.90288,280.45001 56,56 0 0 1 -247.90288,224.45001 56,56 0 0 1 -191.90288,280.45001 Z M -191.90288,161.23323 A 56,56 0 0 1 -247.90288,217.23323 56,56 0 0 1 -303.90288,161.23323 56,56 0 0 1 -247.90288,105.23323 56,56 0 0 1 -191.90288,161.23323 Z M -311.52026,280.44995 A 56,56 0 0 1 -367.52026,336.44995 56,56 0 0 1 -423.52026,280.44995 56,56 0 0 1 -367.52026,224.44995 56,56 0 0 1 -311.52026,280.44995 Z M -311.52026,161.23323 A 56,56 0 0 1 -367.52026,217.23323 56,56 0 0 1 -423.52026,161.23323 56,56 0 0 1 -367.52026,105.23323 56,56 0 0 1 -311.52026,161.23323 Z M -476.01296,225.56518 A 56,56 0 0 0 -487.13732,224.44994 56,56 0 0 0 -532.23737,247.35762 L -541.79195,292.33443 A 56,56 0 0 0 -487.13699,336.44942 56,56 0 0 0 -431.13742,280.44951 56,56 0 0 0 -476.01296,225.56518 Z M -476.01189,106.3499 A 56,56 0 0 0 -487.13776,105.23234 56,56 0 0 0 -502.50622,107.4026 L -523.06469,204.17859 A 56,56 0 0 0 -487.13782,217.23372 56,56 0 0 0 -431.13826,161.23382 56,56 0 0 0 -476.01189,106.3499 Z"
           style="opacity:1;fill:#424242;fill-opacity:1;fill-rule:nonzero;stroke:none;stroke-width:0.95984131;stroke-miterlimit:4;stroke-dasharray:none;stroke-dashoffset:0;stroke-opacity:1"
           transform="rotate(-11.993259)"
           id="use7907"
           inkscape:connector-curvature="0" />
        <g
           id="flowRoot7909"
           style="font-style:normal;font-variant:normal;font-weight:bold;font-stretch:normal;font-size:43.89706039px;line-height:125%;font-family:Roboto;-inkscape-font-specification:'Roboto Bold';text-align:center;writing-mode:lr-tb;text-anchor:middle;opacity:1;fill:#ffffff;fill-opacity:1;fill-rule:nonzero;stroke:none;stroke-width:0.95984131;stroke-miterlimit:4;stroke-dasharray:none;stroke-dashoffset:0;stroke-opacity:1"
           transform="rotate(-11.993259,-302.37193,-4261.2033)">
          <path
             d="M -844.47831,265.64062 H -854.03406 V 264.01059 L -849.30011,258.84717 Q -848.27523,257.70516 -847.84576,256.94383 -847.40653,256.17273 -847.40653,255.40163 -847.40653,254.38652 -847.98241,253.76183 -848.54853,253.13715 -849.51484,253.13715 -850.66661,253.13715 -851.30105,253.83992 -851.9355,254.54269 -851.9355,255.76278 H -854.30736 Q -854.30736,254.4646 -853.72171,253.42997 -853.12631,252.38557 -852.03311,251.80969 -850.93015,251.23381 -849.49532,251.23381 -847.42605,251.23381 -846.23524,252.2782 -845.03467,253.31284 -845.03467,255.14785 -845.03467,256.21177 -845.63984,257.38306 -846.23524,258.54458 -847.60174,260.02821 L -851.07656,263.74705 H -844.47831 Z M -860.65156,258.89062 Q -860.91523,258.37976 -861.11299,257.2262 -863.02461,259.22021 -865.79316,259.22021 -868.47932,259.22021 -870.17671,257.68762 -871.8741,256.15503 -871.8741,253.89734 -871.8741,251.04639 -869.76472,249.53027 -867.63887,247.99768 -863.70027,247.99768 H -861.24482 V 246.82764 Q -861.24482,245.44336 -862.01936,244.61938 -862.7939,243.77893 -864.37593,243.77893 -865.74373,243.77893 -866.61714,244.47107 -867.49055,245.14673 -867.49055,246.20142 H -871.49507 Q -871.49507,244.73474 -870.52278,243.46582 -869.55049,242.18042 -867.88606,241.45532 -866.20515,240.73022 -864.14522,240.73022 -861.01411,240.73022 -859.15193,242.31226 -857.28975,243.87781 -857.24031,246.72876 V 254.77075 Q -857.24031,257.17676 -856.56465,258.61047 V 258.89062 Z M -865.05159,256.00671 Q -863.86506,256.00671 -862.82686,255.42993 -861.77217,254.85315 -861.24482,253.88086 V 250.51904 H -863.40364 Q -865.62837,250.51904 -866.74898,251.29358 -867.86958,252.06812 -867.86958,253.48535 -867.86958,254.63892 -867.11152,255.33105 -866.33699,256.00671 -865.05159,256.00671 Z M -895.04426,234.89648 -888.12288,253.2876 -881.21797,234.89648 H -875.82918 V 258.89062 H -879.98201 V 250.98047 L -879.57002,240.40063 -886.6562,258.89062 H -889.63899 L -896.70869,240.41711 -896.2967,250.98047 V 258.89062 H -900.44954 V 234.89648 Z M -846.04491,146.42383 H -848.40701 V 135.01356 L -851.89158,136.20436 V 134.20342 L -846.3475,132.16343 H -846.04491 Z M -859.08497,139.67383 Q -859.34864,139.16297 -859.5464,138.00941 -861.45802,140.00342 -864.22657,140.00342 -866.91273,140.00342 -868.61012,138.47083 -870.30751,136.93824 -870.30751,134.68055 -870.30751,131.8296 -868.19813,130.31348 -866.07228,128.78089 -862.13368,128.78089 H -859.67823 V 127.61085 Q -859.67823,126.22657 -860.45277,125.40259 -861.22731,124.56214 -862.80934,124.56214 -864.17714,124.56214 -865.05055,125.25428 -865.92396,125.92994 -865.92396,126.98463 H -869.92848 Q -869.92848,125.51795 -868.95619,124.24903 -867.9839,122.96363 -866.31947,122.23853 -864.63856,121.51343 -862.57863,121.51343 -859.44752,121.51343 -857.58534,123.09547 -855.72316,124.66102 -855.67372,127.51197 V 135.55396 Q -855.67372,137.95997 -854.99806,139.39368 V 139.67383 Z M -863.485,136.78992 Q -862.29847,136.78992 -861.26027,136.21314 -860.20558,135.63636 -859.67823,134.66407 V 131.30225 H -861.83705 Q -864.06178,131.30225 -865.18239,132.07679 -866.30299,132.85133 -866.30299,134.26856 -866.30299,135.42213 -865.54493,136.11426 -864.7704,136.78992 -863.485,136.78992 Z M -893.47767,115.67969 -886.55629,134.07081 -879.65138,115.67969 H -874.26259 V 139.67383 H -878.41542 V 131.76368 L -878.00343,121.18384 -885.08961,139.67383 H -888.0724 L -895.1421,121.20032 -894.73011,131.76368 V 139.67383 H -898.88295 V 115.67969 Z M -1003.7188,257.65863 H -1002.2743 Q -1001.1811,257.64887 -1000.5466,257.09251 -999.90241,256.53615 -999.90241,255.48199 -999.90241,254.46688 -1000.4392,253.91052 -1000.9663,253.3444 -1002.0595,253.3444 -1003.0161,253.3444 -1003.631,253.90076 -1004.2459,254.44736 -1004.2459,255.33558 H -1006.6178 Q -1006.6178,254.24238 -1006.0419,253.3444 -1005.4563,252.44641 -1004.4216,251.94861 -1003.3772,251.44106 -1002.0888,251.44106 -999.96097,251.44106 -998.75065,252.51473 -997.53056,253.57865 -997.53056,255.48199 -997.53056,256.43854 -998.14548,257.28773 -998.75065,258.12715 -999.71696,258.55662 -998.54567,258.95681 -997.94051,259.81575 -997.32558,260.67469 -997.32558,261.8655 -997.32558,263.7786 -998.64328,264.91085 -999.95121,266.04309 -1002.0888,266.04309 -1004.1386,266.04309 -1005.4465,264.94989 -1006.7544,263.85669 -1006.7544,262.0412 H -1004.3826 Q -1004.3826,262.97822 -1003.7579,263.56387 -1003.1234,264.14951 -1002.0595,264.14951 -1000.9566,264.14951 -1000.3221,263.56387 -999.68767,262.97822 -999.68767,261.8655 -999.68767,260.74302 -1000.3514,260.13786 -1001.0151,259.53269 -1002.3231,259.53269 H -1003.7188 Z M -1009.8491,259.09787 H -1013.8537 V 241.26706 H -1009.8491 Z M -1014.1008,236.63633 Q -1014.1008,235.71348 -1013.5241,235.10373 -1012.9308,234.49399 -1011.8432,234.49399 -1010.7555,234.49399 -1010.1622,235.10373 -1009.569,235.71348 -1009.569,236.63633 -1009.569,237.5427 -1010.1622,238.15244 -1010.7555,238.7457 -1011.8432,238.7457 -1012.9308,238.7457 -1013.5241,238.15244 -1014.1008,237.5427 -1014.1008,236.63633 Z M -1018.6821,259.09787 H -1022.8515 L -1033.5466,242.07456 V 259.09787 H -1037.716 V 235.10373 H -1033.5466 L -1022.8185,252.19297 V 235.10373 H -1018.6821 Z M -998.34802,138.30176 H -996.90344 Q -995.81024,138.292 -995.17579,137.73564 -994.53158,137.17928 -994.53158,136.12512 -994.53158,135.11001 -995.06842,134.55365 -995.5955,133.98753 -996.6887,133.98753 -997.64525,133.98753 -998.26018,134.54389 -998.8751,135.09049 -998.8751,135.97871 H -1001.247 Q -1001.247,134.88551 -1000.6711,133.98753 -1000.0854,133.08954 -999.0508,132.59174 -998.0064,132.08419 -996.71798,132.08419 -994.59015,132.08419 -993.37982,133.15786 -992.15973,134.22178 -992.15973,136.12512 -992.15973,137.08167 -992.77465,137.93086 -993.37982,138.77028 -994.34613,139.19975 -993.17484,139.59994 -992.56968,140.45888 -991.95475,141.31782 -991.95475,142.50863 -991.95475,144.42173 -993.27245,145.55398 -994.58039,146.68622 -996.71798,146.68622 -998.76773,146.68622 -1000.0757,145.59302 -1001.3836,144.49982 -1001.3836,142.68433 H -999.01175 Q -999.01175,143.62135 -998.38707,144.207 -997.75262,144.79264 -996.6887,144.79264 -995.58574,144.79264 -994.95129,144.207 -994.31685,143.62135 -994.31685,142.50863 -994.31685,141.38615 -994.98058,140.78099 -995.6443,140.17582 -996.95224,140.17582 H -998.34802 Z M -1007.7083,139.741 Q -1007.972,139.23014 -1008.1697,138.07658 -1010.0813,140.07059 -1012.8499,140.07059 -1015.536,140.07059 -1017.2334,138.538 -1018.9308,137.00541 -1018.9308,134.74772 -1018.9308,131.89677 -1016.8214,130.38065 -1014.6956,128.84806 -1010.757,128.84806 H -1008.3015 V 127.67802 Q -1008.3015,126.29374 -1009.0761,125.46976 -1009.8506,124.62931 -1011.4327,124.62931 -1012.8005,124.62931 -1013.6739,125.32145 -1014.5473,125.99711 -1014.5473,127.0518 H -1018.5518 Q -1018.5518,125.58512 -1017.5795,124.3162 -1016.6072,123.0308 -1014.9428,122.3057 -1013.2619,121.5806 -1011.2019,121.5806 -1008.0708,121.5806 -1006.2087,123.16264 -1004.3465,124.72819 -1004.297,127.57914 V 135.62113 Q -1004.297,138.02714 -1003.6214,139.46085 V 139.741 Z M -1012.1083,136.85709 Q -1010.9218,136.85709 -1009.8836,136.28031 -1008.8289,135.70353 -1008.3015,134.73124 V 131.36942 H -1010.4604 Q -1012.6851,131.36942 -1013.8057,132.14396 -1014.9263,132.9185 -1014.9263,134.33573 -1014.9263,135.4893 -1014.1682,136.18143 -1013.3937,136.85709 -1012.1083,136.85709 Z M -1022.5893,136.62638 Q -1023.8911,138.32377 -1026.1983,139.19718 -1028.5054,140.07059 -1031.4388,140.07059 -1034.4545,140.07059 -1036.7781,138.7028 -1039.1017,137.335 -1040.3706,134.79716 -1041.6231,132.24284 -1041.6725,128.84806 V 126.9694 Q -1041.6725,121.53117 -1039.0688,118.48246 -1036.465,115.41727 -1031.8013,115.41727 -1027.7968,115.41727 -1025.4402,117.39481 -1023.0837,119.37235 -1022.6057,123.09672 H -1026.6927 Q -1027.3848,118.76261 -1031.7189,118.76261 -1034.5204,118.76261 -1035.9871,120.78959 -1037.4373,122.80009 -1037.4867,126.70573 V 128.55143 Q -1037.4867,132.44059 -1035.8553,134.5994 -1034.2073,136.74174 -1031.2904,136.74174 -1028.0934,136.74174 -1026.7421,135.29154 V 130.59489 H -1031.6859 V 127.43082 H -1022.5893 Z M -1116.7331,265.94547 H -1126.2889 V 264.31544 L -1121.5549,259.15202 Q -1120.53,258.01001 -1120.1006,257.24868 -1119.6613,256.47758 -1119.6613,255.70648 -1119.6613,254.69137 -1120.2372,254.06668 -1120.8033,253.442 -1121.7696,253.442 -1122.9214,253.442 -1123.5559,254.14477 -1124.1903,254.84754 -1124.1903,256.06763 H -1126.5622 Q -1126.5622,254.76945 -1125.9765,253.73482 -1125.3811,252.69042 -1124.2879,252.11454 -1123.1849,251.53866 -1121.7501,251.53866 -1119.6809,251.53866 -1118.49,252.58305 -1117.2895,253.61769 -1117.2895,255.4527 -1117.2895,256.51662 -1117.8946,257.68791 -1118.49,258.84943 -1119.8565,260.33306 L -1123.3314,264.0519 H -1116.7331 Z M -1129.6764,259.19547 H -1133.6809 V 241.36466 H -1129.6764 Z M -1133.9281,236.73393 Q -1133.9281,235.81108 -1133.3513,235.20133 -1132.758,234.59159 -1131.6704,234.59159 -1130.5828,234.59159 -1129.9895,235.20133 -1129.3962,235.81108 -1129.3962,236.73393 -1129.3962,237.6403 -1129.9895,238.25004 -1130.5828,238.8433 -1131.6704,238.8433 -1132.758,238.8433 -1133.3513,238.25004 -1133.9281,237.6403 -1133.9281,236.73393 Z M -1138.5094,259.19547 H -1142.6787 L -1153.3739,242.17216 V 259.19547 H -1157.5432 V 235.20133 H -1153.3739 L -1142.6457,252.29057 V 235.20133 H -1138.5094 Z M -1111.3623,146.58858 H -1120.918 V 144.95855 L -1116.1841,139.79513 Q -1115.1592,138.65312 -1114.7297,137.89179 -1114.2905,137.12069 -1114.2905,136.34959 -1114.2905,135.33448 -1114.8664,134.70979 -1115.4325,134.08511 -1116.3988,134.08511 -1117.5506,134.08511 -1118.185,134.78788 -1118.8195,135.49065 -1118.8195,136.71074 H -1121.1913 Q -1121.1913,135.41256 -1120.6057,134.37793 -1120.0103,133.33353 -1118.9171,132.75765 -1117.8141,132.18177 -1116.3793,132.18177 -1114.31,132.18177 -1113.1192,133.22616 -1111.9187,134.2608 -1111.9187,136.09581 -1111.9187,137.15973 -1112.5238,138.33102 -1113.1192,139.49254 -1114.4857,140.97617 L -1117.9605,144.69501 H -1111.3623 Z M -1127.5355,139.83858 Q -1127.7992,139.32772 -1127.997,138.17416 -1129.9086,140.16817 -1132.6771,140.16817 -1135.3633,140.16817 -1137.0607,138.63558 -1138.7581,137.10299 -1138.7581,134.8453 -1138.7581,131.99435 -1136.6487,130.47823 -1134.5229,128.94564 -1130.5843,128.94564 H -1128.1288 V 127.7756 Q -1128.1288,126.39132 -1128.9033,125.56734 -1129.6779,124.72689 -1131.2599,124.72689 -1132.6277,124.72689 -1133.5011,125.41903 -1134.3745,126.09469 -1134.3745,127.14938 H -1138.3791 Q -1138.3791,125.6827 -1137.4068,124.41378 -1136.4345,123.12838 -1134.77,122.40328 -1133.0891,121.67818 -1131.0292,121.67818 -1127.8981,121.67818 -1126.0359,123.26022 -1124.1737,124.82577 -1124.1243,127.67672 V 135.71871 Q -1124.1243,138.12472 -1123.4486,139.55843 V 139.83858 Z M -1131.9356,136.95467 Q -1130.749,136.95467 -1129.7108,136.37789 -1128.6562,135.80111 -1128.1288,134.82882 V 131.467 H -1130.2876 Q -1132.5124,131.467 -1133.633,132.24154 -1134.7536,133.01608 -1134.7536,134.43331 -1134.7536,135.58688 -1133.9955,136.27901 -1133.221,136.95467 -1131.9356,136.95467 Z M -1142.4165,136.72396 Q -1143.7184,138.42135 -1146.0255,139.29476 -1148.3327,140.16817 -1151.266,140.16817 -1154.2818,140.16817 -1156.6054,138.80038 -1158.929,137.43258 -1160.1979,134.89474 -1161.4503,132.34042 -1161.4998,128.94564 V 127.06698 Q -1161.4998,121.62875 -1158.896,118.58004 -1156.2923,115.51485 -1151.6286,115.51485 -1147.624,115.51485 -1145.2675,117.49239 -1142.9109,119.46993 -1142.433,123.1943 H -1146.5199 Q -1147.2121,118.86019 -1151.5462,118.86019 -1154.3477,118.86019 -1155.8144,120.88717 -1157.2646,122.89767 -1157.314,126.80331 V 128.64901 Q -1157.314,132.53817 -1155.6825,134.69698 -1154.0346,136.83932 -1151.1177,136.83932 -1147.9207,136.83932 -1146.5694,135.38912 V 130.69247 H -1151.5132 V 127.5284 H -1142.4165 Z M -1223.8411,266.29978 H -1233.3969 V 264.66975 L -1228.6629,259.50633 Q -1227.6381,258.36432 -1227.2086,257.60299 -1226.7694,256.83189 -1226.7694,256.06079 -1226.7694,255.04568 -1227.3452,254.42099 -1227.9114,253.79631 -1228.8777,253.79631 -1230.0294,253.79631 -1230.6639,254.49908 -1231.2983,255.20185 -1231.2983,256.42194 H -1233.6702 Q -1233.6702,255.12376 -1233.0845,254.08913 -1232.4891,253.04473 -1231.3959,252.46885 -1230.293,251.89297 -1228.8582,251.89297 -1226.7889,251.89297 -1225.5981,252.93736 -1224.3975,253.972 -1224.3975,255.80701 -1224.3975,256.87093 -1225.0027,258.04222 -1225.5981,259.20374 -1226.9646,260.68737 L -1230.4394,264.40621 H -1223.8411 Z M -1240.0144,259.54978 Q -1240.2781,259.03892 -1240.4758,257.88536 -1242.3874,259.87937 -1245.156,259.87937 -1247.8422,259.87937 -1249.5395,258.34678 -1251.2369,256.81419 -1251.2369,254.5565 -1251.2369,251.70555 -1249.1276,250.18943 -1247.0017,248.65684 -1243.0631,248.65684 H -1240.6077 V 247.4868 Q -1240.6077,246.10252 -1241.3822,245.27854 -1242.1567,244.43809 -1243.7388,244.43809 -1245.1066,244.43809 -1245.98,245.13023 -1246.8534,245.80589 -1246.8534,246.86058 H -1250.8579 Q -1250.8579,245.3939 -1249.8856,244.12498 -1248.9133,242.83958 -1247.2489,242.11448 -1245.568,241.38938 -1243.508,241.38938 -1240.3769,241.38938 -1238.5148,242.97142 -1236.6526,244.53697 -1236.6031,247.38792 V 255.42991 Q -1236.6031,257.83592 -1235.9275,259.26963 V 259.54978 Z M -1244.4144,256.66587 Q -1243.2279,256.66587 -1242.1897,256.08909 -1241.135,255.51231 -1240.6077,254.54002 V 251.1782 H -1242.7665 Q -1244.9912,251.1782 -1246.1118,251.95274 -1247.2324,252.72728 -1247.2324,254.14451 -1247.2324,255.29808 -1246.4744,255.99021 -1245.6998,256.66587 -1244.4144,256.66587 Z M -1265.4422,243.66355 Q -1263.4812,241.38938 -1260.4819,241.38938 -1254.78,241.38938 -1254.6976,247.89878 V 259.54978 H -1258.7021 V 248.0471 Q -1258.7021,246.2014 -1259.5096,245.44334 -1260.3006,244.6688 -1261.8497,244.6688 -1264.2557,244.6688 -1265.4422,246.81114 V 259.54978 H -1269.4468 V 234.23728 H -1265.4422 Z M -1291.0843,259.54978 V 235.55564 H -1283.9982 Q -1280.8176,235.55564 -1278.3622,236.97288 -1275.8902,238.39012 -1274.5389,240.99388 -1273.1876,243.59764 -1273.1876,246.95945 V 248.16246 Q -1273.1876,251.57371 -1274.5554,254.16099 -1275.9067,256.74827 -1278.4281,258.14903 -1280.933,259.54978 -1284.1794,259.54978 Z M -1286.915,238.91746 V 256.22093 H -1284.1959 Q -1280.9165,256.22093 -1279.1697,254.17747 -1277.4064,252.11753 -1277.3734,248.27781 V 246.94297 Q -1277.3734,243.03733 -1279.0708,240.9774 -1280.7682,238.91746 -1283.9982,238.91746 Z M -1237.0937,146.72869 H -1246.6494 V 145.09866 L -1241.9155,139.93524 Q -1240.8906,138.79323 -1240.4611,138.0319 -1240.0219,137.2608 -1240.0219,136.4897 -1240.0219,135.47459 -1240.5978,134.8499 -1241.1639,134.22522 -1242.1302,134.22522 -1243.282,134.22522 -1243.9164,134.92799 -1244.5509,135.63076 -1244.5509,136.85085 H -1246.9227 Q -1246.9227,135.55267 -1246.3371,134.51804 -1245.7417,133.47364 -1244.6485,132.89776 -1243.5455,132.32188 -1242.1107,132.32188 -1240.0414,132.32188 -1238.8506,133.36627 -1237.6501,134.40091 -1237.6501,136.23592 -1237.6501,137.29984 -1238.2552,138.47113 -1238.8506,139.63265 -1240.2171,141.11628 L -1243.6919,144.83512 H -1237.0937 Z M -1250.037,139.97869 H -1254.0415 V 122.14788 H -1250.037 Z M -1254.2887,117.51715 Q -1254.2887,116.5943 -1253.7119,115.98455 -1253.1186,115.37481 -1252.031,115.37481 -1250.9433,115.37481 -1250.3501,115.98455 -1249.7568,116.5943 -1249.7568,117.51715 -1249.7568,118.42352 -1250.3501,119.03326 -1250.9433,119.62652 -1252.031,119.62652 -1253.1186,119.62652 -1253.7119,119.03326 -1254.2887,118.42352 -1254.2887,117.51715 Z M -1266.1869,130.7337 H -1270.8341 V 139.97869 H -1275.0034 V 115.98455 H -1266.5659 Q -1262.4131,115.98455 -1260.1554,117.84674 -1257.8977,119.70892 -1257.8977,123.23553 -1257.8977,125.64154 -1259.0677,127.27301 -1260.2213,128.888 -1262.2977,129.76141 L -1256.9089,139.76446 V 139.97869 H -1261.3749 Z M -1270.8341,127.38836 H -1266.5494 Q -1264.44,127.38836 -1263.2535,126.33368 -1262.067,125.26251 -1262.067,123.41681 -1262.067,121.4887 -1263.1711,120.43402 -1264.2588,119.37933 -1266.4341,119.34637 H -1270.8341 Z M -1345.7323,266.29979 H -1348.0944 V 254.88952 L -1351.5789,256.08032 V 254.07938 L -1346.0349,252.03939 H -1345.7323 Z M -1358.7723,259.54979 Q -1359.036,259.03893 -1359.2338,257.88537 -1361.1454,259.87938 -1363.9139,259.87938 -1366.6001,259.87938 -1368.2975,258.34679 -1369.9949,256.8142 -1369.9949,254.55651 -1369.9949,251.70556 -1367.8855,250.18944 -1365.7596,248.65685 -1361.821,248.65685 H -1359.3656 V 247.48681 Q -1359.3656,246.10253 -1360.1401,245.27855 -1360.9147,244.4381 -1362.4967,244.4381 -1363.8645,244.4381 -1364.7379,245.13024 -1365.6113,245.8059 -1365.6113,246.86059 H -1369.6158 Q -1369.6158,245.39391 -1368.6435,244.12499 -1367.6713,242.83959 -1366.0068,242.11449 -1364.3259,241.38939 -1362.266,241.38939 -1359.1349,241.38939 -1357.2727,242.97143 -1355.4105,244.53698 -1355.3611,247.38793 V 255.42992 Q -1355.3611,257.83593 -1354.6854,259.26964 V 259.54979 Z M -1363.1724,256.66588 Q -1361.9858,256.66588 -1360.9476,256.0891 -1359.8929,255.51232 -1359.3656,254.54003 V 251.17821 H -1361.5244 Q -1363.7491,251.17821 -1364.8697,251.95275 -1365.9903,252.72729 -1365.9903,254.14452 -1365.9903,255.29809 -1365.2323,255.99022 -1364.4578,256.66588 -1363.1724,256.66588 Z M -1384.2002,243.66356 Q -1382.2391,241.38939 -1379.2399,241.38939 -1373.538,241.38939 -1373.4556,247.89879 V 259.54979 H -1377.4601 V 248.04711 Q -1377.4601,246.20141 -1378.2676,245.44335 -1379.0586,244.66881 -1380.6077,244.66881 -1383.0137,244.66881 -1384.2002,246.81115 V 259.54979 H -1388.2047 V 234.23729 H -1384.2002 Z M -1409.8423,259.54979 V 235.55565 H -1402.7561 Q -1399.5756,235.55565 -1397.1201,236.97289 -1394.6482,238.39013 -1393.2969,240.99389 -1391.9455,243.59765 -1391.9455,246.95946 V 248.16247 Q -1391.9455,251.57372 -1393.3133,254.161 -1394.6647,256.74828 -1397.186,258.14904 -1399.6909,259.54979 -1402.9374,259.54979 Z M -1405.673,238.91747 V 256.22094 H -1402.9539 Q -1399.6744,256.22094 -1397.9276,254.17748 -1396.1643,252.11754 -1396.1313,248.27782 V 246.94298 Q -1396.1313,243.03734 -1397.8287,240.97741 -1399.5261,238.91747 -1402.7561,238.91747 Z M -1359.692,146.72872 H -1362.0541 V 135.31845 L -1365.5386,136.50925 V 134.50831 L -1359.9946,132.46832 H -1359.692 Z M -1369.502,139.97872 H -1373.5066 V 122.14791 H -1369.502 Z M -1373.7538,117.51718 Q -1373.7538,116.59433 -1373.177,115.98458 -1372.5837,115.37484 -1371.4961,115.37484 -1370.4084,115.37484 -1369.8152,115.98458 -1369.2219,116.59433 -1369.2219,117.51718 -1369.2219,118.42355 -1369.8152,119.03329 -1370.4084,119.62655 -1371.4961,119.62655 -1372.5837,119.62655 -1373.177,119.03329 -1373.7538,118.42355 -1373.7538,117.51718 Z M -1385.652,130.73373 H -1390.2992 V 139.97872 H -1394.4685 V 115.98458 H -1386.031 Q -1381.8781,115.98458 -1379.6205,117.84677 -1377.3628,119.70895 -1377.3628,123.23556 -1377.3628,125.64157 -1378.5328,127.27304 -1379.6864,128.88803 -1381.7628,129.76144 L -1376.374,139.76449 V 139.97872 H -1380.8399 Z M -1390.2992,127.38839 H -1386.0145 Q -1383.9051,127.38839 -1382.7186,126.33371 -1381.5321,125.26254 -1381.5321,123.41684 -1381.5321,121.48873 -1382.6362,120.43405 -1383.7239,119.37936 -1385.8991,119.3464 H -1390.2992 Z"
             style="font-size:19.98995018px;baseline-shift:sub;fill:#ffffff;stroke-width:0.95984131"
             id="path4355"
             inkscape:connector-curvature="0" />
        </g>
        <g
           id="flowRoot7919"
           style="font-style:normal;font-variant:normal;font-weight:500;font-stretch:normal;font-size:33.75px;line-height:125%;font-family:Roboto;-inkscape-font-specification:'Roboto Medium';text-align:center;writing-mode:lr-tb;text-anchor:middle;opacity:1;fill:#616161;fill-opacity:1;fill-rule:nonzero;stroke:none;stroke-width:0.95984131;stroke-miterlimit:4;stroke-dasharray:none;stroke-dashoffset:0;stroke-opacity:1"
           transform="rotate(-11.993259,-812.38659,-1766.9409)" />
        <path
           d="M -331.06271,383.36624 H -111.79076 V 387.34324 H -331.06271 Z M -173.73529,414.41536 Q -173.73529,419.58992 -175.67987,422.22664 -177.60797,424.84688 -181.56305,424.84688 -185.45221,424.84688 -187.42975,422.29255 -189.39081,419.72175 -189.44025,414.69551 V 410.54268 Q -189.44025,405.36812 -187.51215,402.78084 -185.56757,400.19356 -181.59601,400.19356 -177.65741,400.19356 -175.72931,402.71492 -173.78473,405.23628 -173.73529,410.26252 Z M -177.73981,409.93294 Q -177.73981,406.55464 -178.66266,404.98909 -179.58551,403.40706 -181.59601,403.40706 -183.55707,403.40706 -184.47992,404.90669 -185.40277,406.38984 -185.45221,409.55391 V 414.99214 Q -185.45221,418.35396 -184.51288,420.0019 -183.57355,421.64985 -181.56305,421.64985 -179.63495,421.64985 -178.7121,420.13374 -177.78925,418.60115 -177.73981,415.35469 Z M -196.09797,400.40779 V 403.72017 H -196.59235 Q -199.95417,403.7696 -201.96466,405.56587 -203.97516,407.36213 -204.35419,410.65803 -202.42609,408.63106 -199.42682,408.63106 -196.24628,408.63106 -194.41706,410.87227 -192.57135,413.11348 -192.57135,416.65657 -192.57135,420.31502 -194.73017,422.58919 -196.8725,424.84688 -200.36615,424.84688 -203.95868,424.84688 -206.19989,422.19368 -208.42463,419.54048 -208.42463,415.23933 V 413.87153 Q -208.42463,407.55989 -205.35944,403.98384 -202.27777,400.40779 -196.50995,400.40779 Z M -200.39911,411.86104 Q -201.71747,411.86104 -202.8216,412.60261 -203.90924,413.34419 -204.42011,414.58015 V 415.79963 Q -204.42011,418.46931 -203.2995,420.05134 -202.1789,421.61689 -200.39911,421.61689 -198.61933,421.61689 -197.58112,420.28206 -196.54291,418.94722 -196.54291,416.77192 -196.54291,414.59663 -197.5976,413.22883 -198.65229,411.86104 -200.39911,411.86104 Z M -215.23066,420.29854 Q -214.11005,420.29854 -213.50031,420.94124 -212.89057,421.56746 -212.89057,422.52327 -212.89057,423.4626 -213.50031,424.08882 -214.11005,424.69856 -215.23066,424.69856 -216.30182,424.69856 -216.92804,424.08882 -217.55426,423.47908 -217.55426,422.52327 -217.55426,421.56746 -216.94452,420.94124 -216.33478,420.29854 -215.23066,420.29854 Z M -221.03144,424.51729 H -237.16486 V 421.76521 L -229.17231,413.04756 Q -227.44196,411.11946 -226.71686,409.83406 -225.97528,408.53218 -225.97528,407.2303 -225.97528,405.51643 -226.94757,404.46174 -227.90339,403.40706 -229.53485,403.40706 -231.47943,403.40706 -232.5506,404.59358 -233.62177,405.7801 -233.62177,407.84004 H -237.62629 Q -237.62629,405.64827 -236.63752,403.90144 -235.63227,402.13814 -233.78656,401.16585 -231.92438,400.19356 -229.5019,400.19356 -226.00824,400.19356 -223.99775,401.95686 -221.97077,403.70369 -221.97077,406.80183 -221.97077,408.5981 -222.9925,410.57564 -223.99775,412.53669 -226.30487,415.04158 L -232.17157,421.32026 H -221.03144 Z M -242.80085,415.96443 H -239.81806 V 419.17793 H -242.80085 V 424.51729 H -246.80536 V 419.17793 H -257.17096 L -257.28632,416.73897 -246.9372,400.52314 H -242.80085 Z M -253.08405,415.96443 H -246.80536 V 405.9449 L -247.10199,406.47224 Z M -259.39569,415.93147 H -268.04743 V 412.70149 H -259.39569 Z"
           style="opacity:1;fill:#616161;fill-opacity:1;fill-rule:nonzero;stroke:none;stroke-width:0.95984131;stroke-miterlimit:4;stroke-dasharray:none;stroke-dashoffset:0;stroke-opacity:1"
           transform="rotate(-11.993259)"
           id="rect7927"
           inkscape:connector-curvature="0" />
        <path
           d="M -287.49683,385.35495 A 13.435029,13.435029 0 0 1 -300.93185,398.78998 13.435029,13.435029 0 0 1 -314.36688,385.35495 13.435029,13.435029 0 0 1 -300.93185,371.91992 13.435029,13.435029 0 0 1 -287.49683,385.35495 Z M -295.70737,383.36624 H -222.29815 V 387.34324 H -295.70737 Z"
           style="opacity:1;fill:#ff9100;fill-opacity:1;fill-rule:nonzero;stroke:none;stroke-width:0.95984131;stroke-miterlimit:4;stroke-dasharray:none;stroke-dashoffset:0;stroke-opacity:1"
           transform="rotate(-11.993259)"
           id="circle7931"
           inkscape:connector-curvature="0" />
      </g>
      <g
         style="display:none;stroke-width:1.91968262"
         transform="translate(469.21965,-122.66484)"
         inkscape:label="mask"
         id="layer4">
        <rect
           style="display:inline;opacity:1;fill:#bfbfbf;fill-opacity:0.6352201;fill-rule:nonzero;stroke:none;stroke-width:0.95984131;stroke-miterlimit:4;stroke-dasharray:none;stroke-dashoffset:0;stroke-opacity:1"
           id="rect7935"
           width="345.54285"
           height="614.2984"
           x="122.66483"
           y="-145.07875"
           transform="rotate(90)"
           inkscape:export-filename="/tmp/chala-swarams.png"
           inkscape:export-xdpi="90"
           inkscape:export-ydpi="90" />
      </g>
      <g
         style="display:none;stroke-width:1.91968262"
         transform="translate(469.21965,-122.66484)"
         inkscape:label="grid"
         id="layer3">
        <g
           id="g8694"
           style="stroke-width:1.91968262">
          <path
             inkscape:connector-curvature="0"
             id="path7939"
             d="M -553.04671,352.8482 H 215.6705"
             style="fill:none;fill-rule:evenodd;stroke:#000000;stroke-width:1.91968262px;stroke-linecap:butt;stroke-linejoin:miter;stroke-opacity:1" />
          <path
             style="fill:none;fill-rule:evenodd;stroke:#000000;stroke-width:1.91968262px;stroke-linecap:butt;stroke-linejoin:miter;stroke-opacity:1"
             d="M -561.76562,238.02447 H 206.9516"
             id="path7941"
             inkscape:connector-curvature="0" />
          <path
             inkscape:connector-curvature="0"
             id="path7943"
             d="M -558.13274,467.67175 H 210.5844"
             style="fill:none;fill-rule:evenodd;stroke:#000000;stroke-width:1.91968262px;stroke-linecap:butt;stroke-linejoin:miter;stroke-opacity:1" />
          <path
             style="fill:none;fill-rule:evenodd;stroke:#000000;stroke-width:1.91968262px;stroke-linecap:butt;stroke-linejoin:miter;stroke-opacity:1"
             d="M -576.29713,123.20079 H 192.42"
             id="path7945"
             inkscape:connector-curvature="0" />
          <path
             style="fill:none;fill-rule:evenodd;stroke:#000000;stroke-width:1.91968262px;stroke-linecap:butt;stroke-linejoin:miter;stroke-opacity:1"
             d="M -59.58404,83.313175 V 527.97754"
             id="path7947"
             inkscape:connector-curvature="0" />
          <path
             inkscape:connector-curvature="0"
             id="path7949"
             d="M -263.71083,83.313175 V 527.97754"
             style="fill:none;fill-rule:evenodd;stroke:#000000;stroke-width:1.91968262px;stroke-linecap:butt;stroke-linejoin:miter;stroke-opacity:1" />
          <path
             style="fill:none;fill-rule:evenodd;stroke:#000000;stroke-width:1.91968262px;stroke-linecap:butt;stroke-linejoin:miter;stroke-opacity:1"
             d="M -467.83768,83.313175 V 527.97754"
             id="path7951"
             inkscape:connector-curvature="0" />
          <path
             inkscape:connector-curvature="0"
             id="path7953"
             d="M 144.5428,83.313175 V 527.97754"
             style="fill:none;fill-rule:evenodd;stroke:#000000;stroke-width:1.91968262px;stroke-linecap:butt;stroke-linejoin:miter;stroke-opacity:1" />
        </g>
      </g>
    </g>
  </g>
  <g
     inkscape:groupmode="layer"
     id="layer2"
     inkscape:label="design">
    <flowRoot
       xml:space="preserve"
       id="flowRoot5597"
       style="font-style:normal;font-variant:normal;font-weight:normal;font-stretch:normal;font-size:192px;line-height:20px;font-family:'Dancing Script';-inkscape-font-specification:'Dancing Script';text-align:start;writing-mode:lr-tb;text-anchor:start;opacity:1;fill:#424242;fill-opacity:1;fill-rule:nonzero;stroke:none;stroke-width:1.25788593;stroke-miterlimit:4;stroke-dasharray:none;stroke-dashoffset:0;stroke-opacity:1;"
       transform="matrix(0.15899694,0,0,0.15899694,81.71097,79.526071)"><flowRegion
         id="flowRegion5599"
         style="fill:#424242;stroke-width:1.25788593;"><rect
           id="rect5601"
           width="270.68945"
           height="95.516983"
           x="-410.34174"
           y="-470.68478"
           style="fill:#424242;stroke-width:1.25788593;" /></flowRegion><flowPara
         id="flowPara5603"
         style="font-style:normal;font-variant:normal;font-weight:bold;font-stretch:normal;font-size:31.09757042px;line-height:3.77952766px;font-family:'Roboto Condensed';-inkscape-font-specification:'Roboto Condensed, Bold';fill:#424242;stroke-width:1.25788593;">12 Swarams Pack</flowPara></flowRoot>    <rect
       style="opacity:1;fill:#ffffff;fill-opacity:0.50289017;fill-rule:nonzero;stroke:#000000;stroke-width:0.20000002;stroke-miterlimit:4;stroke-dasharray:none;stroke-dashoffset:0;stroke-opacity:1"
       id="rect5667"
       width="53.012077"
       height="19.948122"
       x="15.827293"
       y="16.86607" />
    <flowRoot
       transform="matrix(0.26458333,0,0,0.26458333,126.39273,145.44878)"
       style="font-style:normal;font-variant:normal;font-weight:normal;font-stretch:normal;font-size:24px;line-height:20px;font-family:'Dancing Script';-inkscape-font-specification:'Dancing Script';text-align:start;writing-mode:lr-tb;text-anchor:start;opacity:1;fill:#757575;fill-opacity:1;fill-rule:nonzero;stroke:none;stroke-width:0.75590551;stroke-miterlimit:4;stroke-dasharray:none;stroke-dashoffset:0;stroke-opacity:1;"
       id="flowRoot5611"
       xml:space="preserve"><flowRegion
         id="flowRegion5607"
         style="font-size:24px;fill:#757575;"><rect
           y="-470.68478"
           x="-410.34174"
           height="117.46606"
           width="144.90472"
           id="rect5605"
           style="font-size:24px;fill:#757575;" /></flowRegion><flowPara
         style="font-style:normal;font-variant:normal;font-weight:bold;font-stretch:normal;font-size:24px;font-family:'Roboto Condensed';-inkscape-font-specification:'Roboto Condensed, Bold';fill:#757575;"
         id="flowPara5609">₹ 350.00</flowPara></flowRoot>    <flowRoot
       xml:space="preserve"
       id="flowRoot5613"
       style="fill:#000000;-inkscape-font-specification:'Roboto Condensed, ';font-family:'Roboto Condensed';font-weight:normal;font-style:normal;font-stretch:normal;font-variant:normal;font-size:32px;text-anchor:start;text-align:start;writing-mode:lr;line-height:20px;fill-opacity:1;stroke:none;opacity:1;stroke-opacity:1;stroke-width:0.75590551;stroke-miterlimit:4;stroke-dasharray:none;stroke-dashoffset:0;fill-rule:nonzero"><flowRegion
         id="flowRegion5615"><rect
           id="rect5617"
           width="15.336787"
           height="43.523315"
           x="-103.21243"
           y="-297.51294" /></flowRegion><flowPara
         id="flowPara5619" /></flowRoot>    <g
       id="g6891">
      <rect
         y="26.924665"
         x="17.965757"
         height="6.9474344"
         width="47.055866"
         id="rect6501"
         style="opacity:1;fill:#ff1744;fill-opacity:1;fill-rule:nonzero;stroke:none;stroke-width:0.18573754;stroke-miterlimit:4;stroke-dasharray:none;stroke-dashoffset:0;stroke-opacity:1" />
      <flowRoot
         transform="matrix(0.26458333,0,0,0.26458333,127.53443,141.04322)"
         style="font-style:normal;font-variant:normal;font-weight:normal;font-stretch:normal;font-size:192px;line-height:20px;font-family:'Dancing Script';-inkscape-font-specification:'Dancing Script';text-align:start;writing-mode:lr-tb;text-anchor:start;opacity:1;fill:#ffffff;fill-opacity:1;fill-rule:nonzero;stroke:none;stroke-width:0.75590551;stroke-miterlimit:4;stroke-dasharray:none;stroke-dashoffset:0;stroke-opacity:1"
         id="flowRoot5635"
         xml:space="preserve"><flowRegion
           style="fill:#ffffff"
           id="flowRegion5631"><rect
             style="fill:#ffffff"
             y="-470.68478"
             x="-410.34174"
             height="124.5127"
             width="319.827"
             id="rect5629" /></flowRegion><flowPara
           style="font-style:normal;font-variant:normal;font-weight:normal;font-stretch:normal;font-size:24px;font-family:'Roboto Condensed';-inkscape-font-specification:'Roboto Condensed, ';fill:#ffffff"
           id="flowPara5633">Limited time offer</flowPara></flowRoot>    </g>
    <g
       id="g6499"
       transform="translate(-1.0685103,-0.86139977)"
       style="fill:#9e9e9e">
      <flowRoot
         transform="matrix(0.26458333,0,0,0.26458333,153.26879,134.45685)"
         style="font-style:normal;font-variant:normal;font-weight:normal;font-stretch:normal;font-size:192px;line-height:20px;font-family:'Dancing Script';-inkscape-font-specification:'Dancing Script';text-align:start;writing-mode:lr-tb;text-anchor:start;opacity:1;fill:#9e9e9e;fill-opacity:1;fill-rule:nonzero;stroke:none;stroke-width:0.75590551;stroke-miterlimit:4;stroke-dasharray:none;stroke-dashoffset:0;stroke-opacity:1"
         id="flowRoot5627"
         xml:space="preserve"><flowRegion
           style="fill:#9e9e9e"
           id="flowRegion5623"><rect
             style="fill:#9e9e9e"
             y="-470.68478"
             x="-410.34174"
             height="117.46606"
             width="144.90472"
             id="rect5621" /></flowRegion><flowPara
           style="font-style:normal;font-variant:normal;font-weight:normal;font-stretch:normal;font-size:24px;font-family:'Roboto Condensed';-inkscape-font-specification:'Roboto Condensed, ';fill:#9e9e9e"
           id="flowPara5625">₹ 500.00</flowPara></flowRoot>      <path
         inkscape:connector-curvature="0"
         id="path5661"
         d="M 45.530695,24.15708 H 65.930219"
         style="fill:#9e9e9e;fill-rule:evenodd;stroke:#9e9e9e;stroke-width:0.18573751;stroke-linecap:butt;stroke-linejoin:miter;stroke-miterlimit:4;stroke-dasharray:none;stroke-opacity:1" />
    </g>
    <circle
       style="opacity:1;fill:#ff9100;fill-opacity:1;fill-rule:nonzero;stroke:none;stroke-width:0.2;stroke-miterlimit:4;stroke-dasharray:none;stroke-dashoffset:0;stroke-opacity:1"
       id="path5665"
       cx="69.625"
       cy="16.146227"
       r="6.1206603" />
    <flowRoot
       transform="matrix(0.13466452,0,0,0.13466452,122.75943,75.122318)"
       style="font-style:normal;font-variant:normal;font-weight:normal;font-stretch:normal;font-size:192px;line-height:20px;font-family:'Dancing Script';-inkscape-font-specification:'Dancing Script';text-align:start;writing-mode:lr-tb;text-anchor:start;opacity:1;fill:#424242;fill-opacity:1;fill-rule:nonzero;stroke:none;stroke-width:1.48517215;stroke-miterlimit:4;stroke-dasharray:none;stroke-dashoffset:0;stroke-opacity:1;"
       id="flowRoot5643"
       xml:space="preserve"><flowRegion
         style="stroke-width:1.48517215;fill:#424242;"
         id="flowRegion5639"><rect
           style="stroke-width:1.48517215;fill:#424242;"
           y="-470.68478"
           x="-410.34174"
           height="90.523064"
           width="47.49538"
           id="rect5637" /></flowRegion><flowPara
         style="font-style:normal;font-variant:normal;font-weight:300;font-stretch:normal;font-size:32px;line-height:0px;font-family:'Roboto Condensed';-inkscape-font-specification:'Roboto Condensed, Light';stroke-width:1.48517215;fill:#424242;"
         id="flowPara5645">off</flowPara></flowRoot>    <flowRoot
       xml:space="preserve"
       id="flowRoot5655"
       style="font-style:normal;font-variant:normal;font-weight:normal;font-stretch:normal;font-size:192px;line-height:20px;font-family:'Dancing Script';-inkscape-font-specification:'Dancing Script';text-align:start;writing-mode:lr-tb;text-anchor:start;opacity:1;fill:#424242;fill-opacity:1;fill-rule:nonzero;stroke:none;stroke-width:1.48517215;stroke-miterlimit:4;stroke-dasharray:none;stroke-dashoffset:0;stroke-opacity:1;"
       transform="matrix(0.13466452,0,0,0.13466452,121.76673,71.167936)"><flowRegion
         style="stroke-width:1.48517215;fill:#424242;"
         id="flowRegion5649"><rect
           style="stroke-width:1.48517215;fill:#424242;"
           id="rect5647"
           width="76.92543"
           height="89.694046"
           x="-410.34174"
           y="-470.68478" /></flowRegion><flowPara
         id="flowPara5653"
         style="font-style:normal;font-variant:normal;font-weight:bold;font-stretch:normal;font-size:32px;line-height:0px;font-family:'Roboto Condensed';-inkscape-font-specification:'Roboto Condensed, Bold';stroke-width:1.48517215;fill:#424242;">30%</flowPara></flowRoot>  </g>
</svg>
