<?xml version="1.0" encoding="UTF-8" standalone="no"?>
<svg xmlns="http://www.w3.org/2000/svg" viewBox="0 0 18 19.503529" height="19.5" width="18" version="1.1">
 <g transform="translate(-3 -1031)">
  <path style="fill:#959da5" d="m8.911 1046 4.649-5 1.34 1 1.34 2-5.79 3c-3.19 2-5.886 3-5.992 3-0.116 0 1.657-2 4.453-4zm-5.602 4c-0.308 0-0.316-1-0.307-8 0.005-3 0.031-7 0.058-9 0.044-2 0.064-2 0.193-2h0.143l4.83 5 4.834 4-4.829 5c-4.129 4-4.838 5-4.922 5zm12.14-8-1.39-2 1.41-1 1.42-1 1.78 1c0.98 0 1.87 1 1.97 1h0.29c0.09 0 0.09 0 0 1h-0.29c-0.2 0-3.62 2-3.74 2-0.04 0-0.69 0-1.45-1zm-6.558-7c-2.796-3-4.55-4-4.434-4 0.106 0 2.802 1 5.992 3l5.79 3-1.32 1c-0.73 1-1.34 2-1.36 2s-2.12-2-4.668-5z"/>
 </g>
</svg>
