<?xml version="1.0" encoding="UTF-8"?>
<svg id="svg90" width="46.448mm" height="14.232mm" version="1.1" viewBox="0 0 46.447918 14.231628" xmlns="http://www.w3.org/2000/svg" xmlns:cc="http://creativecommons.org/ns#" xmlns:dc="http://purl.org/dc/elements/1.1/" xmlns:rdf="http://www.w3.org/1999/02/22-rdf-syntax-ns#">
 <metadata id="metadata87">
  <rdf:RDF>
   <cc:Work rdf:about="">
    <dc:format>image/svg+xml</dc:format>
    <dc:type rdf:resource="http://purl.org/dc/dcmitype/StillImage"/>
    <dc:title/>
   </cc:Work>
  </rdf:RDF>
 </metadata>
 <g id="layer1" transform="translate(322.58 -25.301)">
  <g id="text5343" transform="matrix(.27023 0 0 .25905 -323.17 16.542)" fill="#424242" stroke="#000" stroke-width="5.6693" aria-label="Carnatic ear trainer">
   <path id="path350" d="m167.47 80.726c0.24485-0.30136 0.56504-0.48971 0.94174-0.52738l-1.2431 6.9501h2.2602l0.67806-3.7482v-0.01883c0.0565-0.18835 0.94174-3.1266 2.505-3.1266 0.50854 0 0.96058 0.15068 0.96058 1.1489 0 1.2808-1.6198 2.3355-1.6198 3.6916h0.45204c0-1.1866 1.6575-2.279 1.6575-3.767 0-1.0548-0.47087-1.5068-1.4503-1.5068-0.94175 0-1.6198 0.54621-2.2037 1.7705v-0.11301c0-1.0548-0.64038-1.6575-1.8082-1.6575-0.56505 0-1.0548 0.24485-1.4126 0.67806zm-3.795-0.90408c-2.4485 0-4.0872 1.7516-4.0872 4.7841 0 1.6386 1.0171 2.7122 3.0889 2.7122 2.9194 0 3.428-2.4862 3.428-2.4862l-0.33902-0.15068c0 0.01883-0.67806 2.2037-2.6746 2.2037-0.73457 0-1.375-0.45204-1.375-1.6575 0-0.3767 0.0188-0.73456 0.0377-1.0736 2.7122-0.01884 4.3132-0.82874 4.3132-2.4297 0-1.1489-0.67805-1.9023-2.392-1.9023zm0.54621 0.47087c0.88524 0 1.375 0.62155 1.375 1.4315 0 1.1866-0.97942 1.9777-3.7858 1.9965 0.32019-2.4109 1.4315-3.428 2.4109-3.428zm-5.9527 1.9023c0-1.488-0.88524-2.3732-2.3544-2.3732-1.2996 0-1.9777 0.77223-2.4109 1.7705v-0.11301c0-1.0548-0.64038-1.6575-1.8082-1.6575-0.56505 0-1.0548 0.24485-1.4126 0.67806l0.28252 0.22602c0.24486-0.30136 0.56505-0.48971 0.94175-0.52738l-0.62155 3.4845c-0.13185 0.79107-0.30136 1.488-0.30136 2.0718 0 0.90408 0.64039 1.5633 1.8082 1.5633 0.56505 0 1.0548-0.24485 1.4126-0.67806l-0.28252-0.22602c-0.24486 0.30136-0.58389 0.48971-0.96058 0.52738l0.64038-3.5221c0.50855-1.8647 1.3184-3.0324 2.1472-3.0324 0.50854 0 0.77223 0.20718 0.77223 0.8099 0 1.1113-0.67806 3.2961-0.67806 4.5769 0 0.99825 0.58388 1.5445 1.714 1.5445 1.2243 0 1.5821-0.67806 1.5821-0.67806l-0.28252-0.22602s-0.45204 0.52738-0.94175 0.52738c0.0753-1.6198 0.7534-3.5598 0.7534-4.7464zm-9.0443-2.3732s-0.8664 0.16952-2.3167 0.16952h-0.80991l-0.0377 0.33903h0.79107l-0.62155 3.3715c-0.13185 0.79107-0.30136 1.4691-0.30136 2.053 0 0.90408 0.64039 1.5633 1.8082 1.5633 0.56505 0 1.0548-0.24485 1.4126-0.67806l-0.28252-0.22602c-0.24486 0.30136-0.56505 0.48971-0.94175 0.52738zm-2.1283-2.7687c0 0.7534 0.60271 1.3561 1.3561 1.3561s1.375-0.60272 1.375-1.3561c0-0.7534-0.62155-1.375-1.375-1.375s-1.3561 0.62155-1.3561 1.375zm-2.4179 2.7687s-0.86641 0.16952-2.3167 0.16952c-0.0942 0.45204-0.15067 0.77223-0.20718 1.1301-0.26369-0.7534-0.8099-1.2996-1.827-1.2996-2.1848 0-3.7858 1.6575-3.7858 4.5957 0 1.8835 1.1113 2.9006 2.7311 2.9006 1.0359 0 1.714-0.7534 2.1095-1.4503 0.0942 0.92291 0.71573 1.4503 1.8082 1.4503 0.56505 0 1.0548-0.24485 1.4126-0.67806l-0.28252-0.22602c-0.24486 0.30136-0.56505 0.48971-0.94175 0.52738zm-5.1608 7.0631c-0.50854 0-0.84757-0.30136-0.84757-1.5068 0-2.0907 0.71573-5.0854 2.053-5.0854 0.71572 0 1.1678 0.86641 1.2431 1.7705-0.28252 1.5633-0.41437 2.3544-0.48971 2.7122-0.15068 0.41437-0.88524 2.1095-1.9588 2.1095zm-9.9746-6.159c0.24485-0.30136 0.56504-0.48971 0.94174-0.52738l-1.2431 6.9501h2.2602l0.67806-3.7482v-0.01883c0.0565-0.18835 0.94174-3.1266 2.505-3.1266 0.50855 0 0.96058 0.15068 0.96058 1.1489 0 1.2808-1.6198 2.3355-1.6198 3.6916h0.45204c0-1.1866 1.6575-2.279 1.6575-3.767 0-1.0548-0.47087-1.5068-1.4503-1.5068-0.94174 0-1.6198 0.54621-2.2037 1.7705v-0.11301c0-1.0548-0.64039-1.6575-1.8082-1.6575-0.56505 0-1.0548 0.24485-1.4126 0.67806zm-2.4724-3.6916s-0.86641 0.16951-2.3167 0.16951c-0.16952 0.97942-0.35787 1.9023-0.50855 2.7876h-0.96058l-0.0377 0.33903h0.92291c-0.4332 2.3544-0.77223 4.2567-0.77223 5.1231 0 1.1866 0.94175 1.8647 2.1095 1.8647 1.714 0 2.505-1.375 2.8818-2.9759l-0.33903-0.11301c-0.24486 1.0359-0.96058 2.5616-1.9777 2.5616-0.33903 0-0.58388-0.20718-0.58388-0.60272 0-0.69689 0.48971-3.5221 0.94174-5.8577h2.3544l0.0377-0.33903h-2.3355c0.32019-1.6386 0.58388-2.9571 0.58388-2.9571zm-15.001 3.6916c0.24485-0.30136 0.56505-0.48971 0.94175-0.52738l-1.2431 6.9501h2.2602l0.67806-3.7482v-0.01883c0.0565-0.18835 0.94175-3.1266 2.505-3.1266 0.50855 0 0.96059 0.15068 0.96059 1.1489 0 1.2808-1.6198 2.3355-1.6198 3.6916h0.45204c0-1.1866 1.6575-2.279 1.6575-3.767 0-1.0548-0.47087-1.5068-1.4503-1.5068-0.94174 0-1.6198 0.54621-2.2037 1.7705v-0.11301c0-1.0548-0.64039-1.6575-1.8082-1.6575-0.56504 0-1.0548 0.24485-1.4126 0.67806zm-1.382-0.90408s-0.86641 0.16952-2.3167 0.16952c-0.0942 0.45204-0.15068 0.77223-0.20718 1.1301-0.26369-0.7534-0.80991-1.2996-1.827-1.2996-2.1848 0-3.7858 1.6575-3.7858 4.5957 0 1.8835 1.1113 2.9006 2.7311 2.9006 1.0359 0 1.714-0.7534 2.1095-1.4503 0.0942 0.92291 0.71573 1.4503 1.8082 1.4503 0.56504 0 1.0548-0.24485 1.4126-0.67806l-0.28253-0.22602c-0.24485 0.30136-0.56505 0.48971-0.94174 0.52738zm-5.1608 7.0631c-0.50855 0-0.84758-0.30136-0.84758-1.5068 0-2.0907 0.71573-5.0854 2.053-5.0854 0.71573 0 1.1678 0.86641 1.2431 1.7705-0.28253 1.5633-0.41437 2.3544-0.48971 2.7122-0.15068 0.41437-0.88524 2.1095-1.9588 2.1095zm-6.3753-7.0631c-2.4485 0-4.0872 1.7516-4.0872 4.7841 0 1.6386 1.0171 2.7122 3.0889 2.7122 2.9194 0 3.428-2.4862 3.428-2.4862l-0.33903-0.15068c0 0.01883-0.67806 2.2037-2.6746 2.2037-0.73456 0-1.375-0.45204-1.375-1.6575 0-0.3767 0.01883-0.73456 0.03767-1.0736 2.7122-0.01884 4.3132-0.82874 4.3132-2.4297 0-1.1489-0.67806-1.9023-2.392-1.9023zm0.54621 0.47087c0.88524 0 1.375 0.62155 1.375 1.4315 0 1.1866-0.97942 1.9777-3.7858 1.9965 0.32019-2.4109 1.4315-3.428 2.4109-3.428zm-12.096 1.9588c0 0.7534 0.60272 1.3561 1.3561 1.3561 0.64039 0 1.3373-0.4332 1.3373-1.3938 0-1.3938-0.92291-2.392-2.6934-2.392-2.5239 0-4.1625 1.7516-4.1625 4.7841 0 1.6386 1.0171 2.7122 3.0889 2.7122 2.9194 0 3.428-2.4862 3.428-2.4862l-0.33903-0.15068c0 0.01883-0.67806 2.2037-2.6746 2.2037-0.73456 0-1.375-0.45204-1.375-1.6575 0-3.5221 1.3373-4.9348 2.505-4.9348 0.54621 0 1.0924 0.24485 1.3184 0.65922-0.13184-0.03767-0.16952-0.07534-0.4332-0.07534-0.7534 0-1.3561 0.62155-1.3561 1.375zm-5.1455-2.4297s-0.86641 0.16952-2.3167 0.16952h-0.8099l-0.03767 0.33903h0.79107l-0.62155 3.3715c-0.13184 0.79107-0.30136 1.4691-0.30136 2.053 0 0.90408 0.64039 1.5633 1.8082 1.5633 0.56505 0 1.0548-0.24485 1.4126-0.67806l-0.28252-0.22602c-0.24485 0.30136-0.56505 0.48971-0.94175 0.52738zm-2.1283-2.7687c0 0.7534 0.60272 1.3561 1.3561 1.3561 0.7534 0 1.375-0.60272 1.375-1.3561 0-0.7534-0.62155-1.375-1.375-1.375-0.7534 0-1.3561 0.62155-1.3561 1.375zm-3.5083-0.01883s-0.86641 0.16951-2.3167 0.16951c-0.16951 0.97942-0.35786 1.9023-0.50854 2.7876h-0.96058l-0.03767 0.33903h0.92291c-0.4332 2.3544-0.77223 4.2567-0.77223 5.1231 0 1.1866 0.94175 1.8647 2.1095 1.8647 1.714 0 2.505-1.375 2.8817-2.9759l-0.33903-0.11301c-0.24485 1.0359-0.96058 2.5616-1.9777 2.5616-0.33903 0-0.58388-0.20718-0.58388-0.60272 0-0.69689 0.48971-3.5221 0.94175-5.8577h2.3544l0.03767-0.33903h-2.3355c0.32019-1.6386 0.58388-2.9571 0.58388-2.9571zm-4.9795 2.7876s-0.86641 0.16952-2.3167 0.16952c-0.09417 0.45204-0.15068 0.77223-0.20718 1.1301-0.26369-0.7534-0.8099-1.2996-1.827-1.2996-2.1849 0-3.7858 1.6575-3.7858 4.5957 0 1.8835 1.1113 2.9006 2.7311 2.9006 1.0359 0 1.714-0.7534 2.1095-1.4503 0.09417 0.92291 0.71573 1.4503 1.8082 1.4503 0.56505 0 1.0548-0.24485 1.4126-0.67806l-0.28252-0.22602c-0.24485 0.30136-0.56505 0.48971-0.94175 0.52738zm-5.1608 7.0631c-0.50854 0-0.84757-0.30136-0.84757-1.5068 0-2.0907 0.71573-5.0854 2.053-5.0854 0.71573 0 1.1678 0.86641 1.2431 1.7705-0.28252 1.5633-0.41437 2.3544-0.48971 2.7122-0.15068 0.41437-0.88524 2.1095-1.9588 2.1095zm-4.3141-4.6899c0-1.488-0.88524-2.3732-2.3544-2.3732-1.2996 0-1.9777 0.77223-2.4109 1.7705v-0.11301c0-1.0548-0.64039-1.6575-1.8082-1.6575-0.56505 0-1.0548 0.24485-1.4126 0.67806l0.28252 0.22602c0.24485-0.30136 0.56505-0.48971 0.94175-0.52738l-0.62155 3.4845c-0.13184 0.79107-0.30136 1.488-0.30136 2.0718 0 0.90408 0.64039 1.5633 1.8082 1.5633 0.56505 0 1.0548-0.24485 1.4126-0.67806l-0.28252-0.22602c-0.24485 0.30136-0.58388 0.48971-0.96058 0.52738l0.64039-3.5221c0.50854-1.8647 1.3184-3.0324 2.1472-3.0324 0.50854 0 0.77223 0.20718 0.77223 0.8099 0 1.1113-0.67806 3.2961-0.67806 4.5769 0 0.99825 0.58388 1.5445 1.714 1.5445 1.2243 0 1.5821-0.67806 1.5821-0.67806l-0.28252-0.22602s-0.45204 0.52738-0.94175 0.52738c0.07534-1.6198 0.7534-3.5598 0.7534-4.7464zm-15.041-1.4691c0.24485-0.30136 0.56505-0.48971 0.94175-0.52738l-1.2431 6.9501h2.2602l0.67806-3.7482v-0.01883c0.0565-0.18835 0.94175-3.1266 2.505-3.1266 0.50854 0 0.96058 0.15068 0.96058 1.1489 0 1.2808-1.6198 2.3355-1.6198 3.6916h0.45204c0-1.1866 1.6575-2.279 1.6575-3.767 0-1.0548-0.47087-1.5068-1.4503-1.5068-0.94175 0-1.6198 0.54621-2.2037 1.7705v-0.11301c0-1.0548-0.64039-1.6575-1.8082-1.6575-0.56505 0-1.0548 0.24485-1.4126 0.67806zm-1.382-0.90408s-0.86641 0.16952-2.3167 0.16952c-0.09417 0.45204-0.15068 0.77223-0.20718 1.1301-0.26369-0.7534-0.8099-1.2996-1.827-1.2996-2.1849 0-3.7858 1.6575-3.7858 4.5957 0 1.8835 1.1113 2.9006 2.7311 2.9006 1.0359 0 1.714-0.7534 2.1095-1.4503 0.09417 0.92291 0.71573 1.4503 1.8082 1.4503 0.56505 0 1.0548-0.24485 1.4126-0.67806l-0.28252-0.22602c-0.24485 0.30136-0.56505 0.48971-0.94175 0.52738zm-5.1608 7.0631c-0.50854 0-0.84757-0.30136-0.84757-1.5068 0-2.0907 0.71573-5.0854 2.053-5.0854 0.71573 0 1.1678 0.86641 1.2431 1.7705-0.28252 1.5633-0.41437 2.3544-0.48971 2.7122-0.15068 0.41437-0.88524 2.1095-1.9588 2.1095zm-12.272-2.2979c0-5.9142 2.6557-7.8353 4.6334-8.438 0.35786-0.03767 0.73456-0.07534 1.1301-0.07534 2.4674 0 2.6934 1.2054 2.6934 2.0907 0 0.69689-0.33903 1.2243-0.73456 1.827-0.39553 0.64039-0.82874 1.2808-0.82874 2.1095h0.41437c0-0.69689 0.3767-1.2808 0.7534-1.8835 0.41437-0.62155 0.82874-1.2808 0.82874-2.0907 0-1.6575-0.88524-2.4485-3.1266-2.4485-4.8217 0-7.986 3.3338-7.986 7.8165 0 3.3526 1.827 5.2549 4.9913 5.2549 3.993 0 4.7841-3.0136 4.7841-3.0136l-0.3767-0.15068s-0.82874 2.7876-4.4074 2.7876c-0.33903 0-0.64039-0.01884-0.94175-0.05651-0.82874-0.41437-1.827-1.375-1.827-3.7293z" fill="#424242" stroke="none"/>
  </g>
  <path id="path5351" d="m-315.68 34.117v1.1083h39.286v-1.1083z" color="#000000" color-rendering="auto" fill="#ffab00" fill-rule="evenodd" image-rendering="auto" shape-rendering="auto" solid-color="#000000" style="isolation:auto;mix-blend-mode:normal;text-decoration-color:#000000;text-decoration-line:none;text-decoration-style:solid;text-indent:0;text-transform:none;white-space:normal"/>
  <path id="path5931" d="m-314.31 27.505v0.55417h4.1457v-0.55417zm37.626 2.504c0-0.87099-0.5101-1.3892-1.3567-1.3892-0.79229 0-1.1504 0.57331-1.3892 1.2789-0.0434-0.80484-0.54266-1.2789-1.3458-1.2789-0.68376 0-1.0419 0.42998-1.2807 1.0033v-0.03308c0-0.61741-0.36901-0.97021-1.0419-0.97021-0.3256 0-0.60779 0.14333-0.814 0.3969l0.1628 0.1323c0.14109-0.1764 0.3256-0.28665 0.54267-0.3087l-0.71632 4.0683h1.3024l0.39071-2.205c0.28219-1.0805 0.6512-1.753 1.1288-1.753 0.29304 0 0.44499 0.12128 0.44499 0.47408 0 0.65048-0.39072 1.9294-0.39072 2.6791 0 0.58433 0.33645 0.90406 0.98765 0.90406 0.70547 0 0.91168-0.3969 0.91168-0.3969l-0.1628-0.1323s-0.26048 0.3087-0.54267 0.3087c0.0217-0.62843 0.20622-1.334 0.3256-1.9404 0.29304-1.1687 0.66206-1.8963 1.1613-1.8963 0.29304 0 0.44499 0.12128 0.44499 0.47408 0 0.65048-0.39073 1.9294-0.39073 2.6791 0 0.58433 0.33646 0.90406 0.98766 0.90406 0.70546 0 0.91168-0.3969 0.91168-0.3969l-0.1628-0.1323s-0.26048 0.3087-0.54267 0.3087c0.0434-0.94816 0.43413-2.0838 0.43413-2.7783zm-7.8727-1.3892s-0.49925 0.09923-1.335 0.09923c-0.0543 0.2646-0.0868 0.45203-0.11938 0.66151-0.15195-0.441-0.4667-0.76073-1.0528-0.76073-1.259 0-2.1815 0.97021-2.1815 2.6901 0 1.1025 0.64034 1.6979 1.5737 1.6979 0.59693 0 0.98765-0.441 1.2156-0.84894 0.0543 0.54023 0.41243 0.84894 1.0419 0.84894 0.3256 0 0.60779-0.14333 0.814-0.3969l-0.1628-0.1323c-0.14109 0.1764-0.3256 0.28665-0.54267 0.3087zm-2.9738 4.1344c-0.29304 0-0.4884-0.1764-0.4884-0.88201 0-1.2238 0.41243-2.9768 1.183-2.9768 0.41243 0 0.67291 0.50716 0.71632 1.0364-0.1628 0.91509-0.23877 1.3781-0.28218 1.5876-0.0868 0.24255-0.51011 1.2348-1.1288 1.2348zm-2.5751-0.06615c-0.91168 0 0.11939-2.2712-1.9644-2.2712-0.10853 0-0.18451 0.01103-0.26048 0.02205 0.36902-0.85996 0.91168-1.4774 1.6606-1.5656-0.0434 0.03308-0.26048 0.19845-0.26048 0.67253 0 0.36383 0.21707 0.67254 0.69461 0.67254 0.43414 0 0.73803-0.33076 0.73803-0.77176 0-0.441-0.27134-0.82688-0.94424-0.82688-0.88997 0-1.6063 0.51818-1.9644 1.4222 0.29304-1.6207 0.54266-3.0209 0.54266-3.0209 0.0109-0.09923 0.0217-0.19845 0.0217-0.28665 0-0.61741-0.36901-0.97021-1.0419-0.97021-0.32561 0-0.60779 0.14333-0.814 0.3969l0.1628 0.1323c0.14109-0.1764 0.32559-0.28665 0.54266-0.3087l-1.2264 6.9238h1.2916c0.0977-0.56228 0.20621-1.1135 0.39072-2.1279 0.96594 0.1764 0.26048 2.2271 2.073 2.2271 0.70547 0 0.91168-0.3969 0.91168-0.3969l-0.1628-0.1323s-0.10853 0.20948-0.39072 0.20948zm-4.5625-4.0683s-0.49926 0.09923-1.335 0.09923c-0.0543 0.2646-0.0868 0.45203-0.11939 0.66151-0.15195-0.441-0.46669-0.76073-1.0528-0.76073-1.259 0-2.1815 0.97021-2.1815 2.6901 0 1.1025 0.64035 1.6979 1.5737 1.6979 0.59693 0 0.98765-0.441 1.2156-0.84894 0.0543 0.54023 0.41243 0.84894 1.0419 0.84894 0.3256 0 0.60779-0.14333 0.814-0.3969l-0.1628-0.1323c-0.14109 0.1764-0.3256 0.28665-0.54266 0.3087zm-2.9738 4.1344c-0.29303 0-0.48839-0.1764-0.48839-0.88201 0-1.2238 0.41242-2.9768 1.183-2.9768 0.41242 0 0.6729 0.50716 0.71632 1.0364-0.1628 0.91509-0.23877 1.3781-0.28219 1.5876-0.0868 0.24255-0.51011 1.2348-1.1288 1.2348zm-2.489-2.7453c0-0.87099-0.5101-1.3892-1.3567-1.3892-0.73803 0-1.1288 0.44101-1.3784 1.0143l0.45584-2.613c0.0109-0.09923 0.0217-0.19845 0.0217-0.28665 0-0.61741-0.36901-0.97021-1.0419-0.97021-0.32559 0-0.60778 0.14333-0.814 0.39691l0.1628 0.1323c0.1411-0.1764 0.32561-0.28665 0.54267-0.3087l-1.2047 6.9238h1.3024l0.35816-2.0727c0.29304-1.1576 0.77058-1.8853 1.2698-1.8853 0.29304 0 0.44498 0.12128 0.44498 0.47408 0 0.65048-0.39072 1.9294-0.39072 2.6791 0 0.58433 0.33646 0.90406 0.98766 0.90406 0.70546 0 0.91167-0.3969 0.91167-0.3969l-0.16279-0.1323s-0.26048 0.3087-0.54267 0.3087c0.0434-0.94816 0.43413-2.0838 0.43413-2.7783zm-5.8442 2.7783c0.49925-2.7342 1.0311-5.7661 1.0311-5.7661 0.0109-0.09923 0.0217-0.19845 0.0217-0.28665 0-0.61741-0.36901-0.97021-1.0419-0.97021-0.3256 0-0.60778 0.14333-0.814 0.39691l0.1628 0.1323c0.1411-0.1764 0.3256-0.28665 0.54267-0.3087l-0.58608 3.2414c-0.0326-0.0882-0.0977-0.1764-0.1628-0.2646-0.20621-0.23153-0.4884-0.34178-0.85741-0.34178-1.259 0-2.1815 1.0253-2.1815 2.8004 0 0.95919 0.52096 1.5876 1.5195 1.5876 0.60778 0 0.98765-0.42998 1.2156-0.82689 0.0543 0.52921 0.42328 0.82689 1.0419 0.82689 0.3256 0 0.60778-0.14333 0.814-0.3969l-0.1628-0.1323c-0.1411 0.1764-0.32561 0.28665-0.54267 0.3087zm-2.2249-0.03308c-0.29304 0-0.43414-0.1764-0.43414-0.88201 0-1.2238 0.47755-3.0429 0.95509-3.0429 0.75974 0 0.91168 0.60638 0.93339 0.93714l-0.31475 1.742c-0.0868 0.23153-0.5101 1.2458-1.1396 1.2458zm-2.2182-4.1344s-0.49926 0.09923-1.335 0.09923c-0.0543 0.2646-0.0868 0.45203-0.11939 0.66151-0.15194-0.441-0.46669-0.76073-1.0528-0.76073-1.259 0-2.1815 0.97021-2.1815 2.6901 0 1.1025 0.64035 1.6979 1.5737 1.6979 0.59694 0 0.98766-0.441 1.2156-0.84894 0.0543 0.54023 0.41242 0.84894 1.0419 0.84894 0.3256 0 0.60779-0.14333 0.814-0.3969l-0.1628-0.1323c-0.14109 0.1764-0.3256 0.28665-0.54266 0.3087zm-2.9738 4.1344c-0.29304 0-0.4884-0.1764-0.4884-0.88201 0-1.2238 0.41242-2.9768 1.183-2.9768 0.41243 0 0.67291 0.50716 0.71632 1.0364-0.1628 0.91509-0.23877 1.3781-0.28219 1.5876-0.0868 0.24255-0.5101 1.2348-1.1287 1.2348zm-6.7175 2.2932c-0.83571 0-1.2373-0.1764-1.6823-0.57331-0.37986-0.33075-0.58608-0.78278-0.58608-1.2789 0-0.83791 0.61864-1.6979 1.6606-1.6979 0.41243 0 0.74888 0.11025 0.95509 0.31973 0.18451 0.16538 0.28219 0.41896 0.28219 0.68356 0 0.49613-0.33645 1.0253-0.83571 1.0253-0.28218 0-0.49925-0.07718-0.64034-0.23153-0.24963-0.25358-0.23878-0.63946-0.23878-0.63946l-0.20621-0.01103c-0.0108 0.02205-0.0217 0.47408 0.29304 0.79381 0.18451 0.19845 0.45584 0.3087 0.79229 0.3087 0.61864 0 1.0419-0.63946 1.0419-1.2458 0-0.33075-0.11938-0.62843-0.3473-0.83791-0.24963-0.24255-0.6295-0.37485-1.0962-0.37485-1.1722 0-1.8668 0.97021-1.8668 1.9073 0 0.56228 0.22792 1.0694 0.6512 1.4333 0.4884 0.42998 1.2156 0.66151 2.0947 0.66151 2.149 0 3.5165-1.1687 3.5165-2.8224 0-1.5325-1.6714-2.1609-2.6048-3.0429 0.60779-0.15435 1.1396-0.48511 1.3132-0.61741 0.18451 0.11025 0.42328 0.16538 0.69461 0.16538 1.0853 0 1.6823-0.84894 1.6823-1.6648 0-0.45203-0.17365-0.88201-0.49925-1.1907-0.36902-0.34178-0.91168-0.54023-1.5629-0.54023-1.921 0-3.549 1.2458-3.549 3.2304 0 0.1323 0 0.25358 0.0217 0.37486-0.6512-0.2205-0.94424-0.68356-1.0745-1.0805-0.28219-0.89304 0.0543-2.1168 0.73802-2.624l-0.11938-0.1764c-0.75973 0.57331-1.1288 1.8853-0.814 2.8665 0.13024 0.3969 0.45584 0.99226 1.3024 1.2458 0.44498 1.9514 3.0932 1.8632 3.0932 3.9029 0 1.0253-0.85742 1.7309-2.4094 1.7309zm2.3443-6.3615c-0.17366 0.12128-0.71632 0.45203-1.3458 0.59536-1.2264-0.84894-0.56437-3.495 1.8125-3.495 0.59693 0 1.0853 0.1764 1.4218 0.4851 0.28219 0.27563 0.43414 0.63946 0.43414 1.0364 0 0.71663-0.52096 1.4774-1.4761 1.4774-0.19536 0-0.35816-0.0441-0.49925-0.11025 0.4884-0.44101 0.79229-1.0143 0.79229-1.5325 0-0.52921-0.26048-0.80484-0.72717-0.80484-0.58608 0-0.91168 0.49613-0.91168 1.1246 0 0.46306 0.17366 0.92611 0.49926 1.2238zm0.40157-2.1499c0.3473 0 0.52096 0.19845 0.52096 0.60638 0 0.51818-0.33646 1.1025-0.75973 1.4112-0.3039-0.25358-0.44499-0.68356-0.44499-1.0915 0-0.54023 0.23877-0.92611 0.68376-0.92611z" color="#000000" color-rendering="auto" fill="#bf360c" fill-rule="evenodd" image-rendering="auto" shape-rendering="auto" solid-color="#000000" style="isolation:auto;mix-blend-mode:normal;text-decoration-color:#000000;text-decoration-line:none;text-decoration-style:solid;text-indent:0;text-transform:none;white-space:normal"/>
 </g>
</svg>
