<?xml version="1.0" encoding="UTF-8" standalone="no"?>
<!-- Created with Inkscape (http://www.inkscape.org/) -->

<svg
   xmlns:dc="http://purl.org/dc/elements/1.1/"
   xmlns:cc="http://creativecommons.org/ns#"
   xmlns:rdf="http://www.w3.org/1999/02/22-rdf-syntax-ns#"
   xmlns:svg="http://www.w3.org/2000/svg"
   xmlns="http://www.w3.org/2000/svg"
   xmlns:sodipodi="http://sodipodi.sourceforge.net/DTD/sodipodi-0.dtd"
   xmlns:inkscape="http://www.inkscape.org/namespaces/inkscape"
   width="48"
   height="48"
   viewBox="0 0 12.7 12.7"
   version="1.1"
   id="svg4790"
   inkscape:version="0.92.3 (2405546, 2018-03-11)"
   sodipodi:docname="shrutibox_logo.svg">
  <defs
     id="defs4784" />
  <sodipodi:namedview
     id="base"
     pagecolor="#ffffff"
     bordercolor="#666666"
     borderopacity="1.0"
     inkscape:pageopacity="0.0"
     inkscape:pageshadow="2"
     inkscape:zoom="17.37263"
     inkscape:cx="16.792312"
     inkscape:cy="25.236082"
     inkscape:document-units="mm"
     inkscape:current-layer="svg4790"
     showgrid="false"
     units="px"
     showguides="false"
     inkscape:guide-bbox="true"
     inkscape:snap-page="true"
     inkscape:snap-object-midpoints="true"
     inkscape:object-paths="true"
     inkscape:measure-start="18,66.5996"
     inkscape:measure-end="90,66.5996"
     inkscape:window-width="1920"
     inkscape:window-height="1025"
     inkscape:window-x="0"
     inkscape:window-y="27"
     inkscape:window-maximized="1"
     inkscape:snap-bbox="true"
     inkscape:bbox-nodes="true"
     inkscape:snap-bbox-edge-midpoints="false"
     inkscape:snap-midpoints="true"
     inkscape:showpageshadow="true"
     showborder="true"
     inkscape:pagecheckerboard="true">
    <sodipodi:guide
       position="4.7625,0"
       orientation="1,0"
       id="guide5337"
       inkscape:locked="false"
       inkscape:label=""
       inkscape:color="rgb(0,0,255)" />
    <sodipodi:guide
       position="0,4.7625"
       orientation="0,1"
       id="guide5339"
       inkscape:locked="false"
       inkscape:label=""
       inkscape:color="rgb(0,0,255)" />
    <sodipodi:guide
       position="23.8125,0"
       orientation="1,0"
       id="guide5341"
       inkscape:locked="false"
       inkscape:label=""
       inkscape:color="rgb(0,0,255)" />
    <sodipodi:guide
       position="0,23.8125"
       orientation="0,1"
       id="guide5343"
       inkscape:locked="false"
       inkscape:label=""
       inkscape:color="rgb(0,0,255)" />
  </sodipodi:namedview>
  <metadata
     id="metadata4787">
    <rdf:RDF>
      <cc:Work
         rdf:about="">
        <dc:format>image/svg+xml</dc:format>
        <dc:type
           rdf:resource="http://purl.org/dc/dcmitype/StillImage" />
        <dc:title />
      </cc:Work>
    </rdf:RDF>
  </metadata>
  <circle
     style="fill:#ffffff;fill-opacity:1;stroke:none;stroke-width:0.26458332;stroke-miterlimit:4;stroke-dasharray:none;stroke-opacity:1"
     id="path923"
     cx="6.3499999"
     cy="6.3499999"
     r="5.8208332" />
  <path
     style="display:inline;fill:#cc0000;fill-opacity:1;stroke:none;stroke-width:0.99999994;stroke-miterlimit:4;stroke-dasharray:none;stroke-opacity:1"
     d="M 24 2 A 22 21.999998 0 0 0 2 24 A 22 21.999998 0 0 0 24 46 A 22 21.999998 0 0 0 46 24 A 22 21.999998 0 0 0 24 2 z M 25.759766 4.0722656 C 26.577042 4.1589415 27.268938 5.6865179 26.771484 8.515625 C 27.790189 2.7382655 31.42102 3.8349155 29.458984 9.234375 C 31.465438 3.7216808 34.852249 5.4334293 31.982422 10.410156 C 34.915662 5.3296318 37.952152 7.6050371 34.261719 12.007812 C 38.029403 7.5176707 40.621466 10.274551 36.238281 13.964844 C 40.723632 10.210291 42.793323 13.381519 37.824219 16.253906 C 42.90475 13.32066 44.397392 16.809643 39 18.777344 C 44.51269 16.770888 45.377783 20.464289 39.720703 21.464844 C 45.498051 20.44614 45.705816 24.233328 39.960938 24.236328 C 45.827448 24.236328 45.378773 28.002372 39.720703 27.007812 C 45.498074 28.026515 44.399463 31.657348 39 29.695312 C 44.512694 31.70177 42.800946 35.086626 37.824219 32.216797 C 37.818927 32.213395 37.818611 32.209631 37.814453 32.207031 A 15.962258 15.962258 0 0 1 37.810547 32.212891 C 37.815082 32.215504 37.818927 32.21575 37.824219 32.21875 C 42.90475 35.151988 40.629338 38.186529 36.226562 34.496094 C 40.720557 38.267003 37.954798 40.861798 34.259766 36.462891 C 38.030676 40.95688 34.857473 43.034258 31.982422 38.060547 C 34.915663 43.141075 31.426685 44.633724 29.458984 39.236328 C 31.465441 44.749022 27.772044 45.614111 26.771484 39.957031 C 27.79019 45.734383 24.003 45.942148 24 40.197266 C 24 46.063784 20.233961 45.615105 21.228516 39.957031 C 20.20981 45.734394 16.578985 44.63578 18.541016 39.236328 C 16.534558 44.74903 13.149703 43.037274 16.019531 38.060547 C 16.022328 38.055633 16.026697 38.054939 16.029297 38.050781 A 15.962258 15.962258 0 0 1 16.023438 38.046875 C 16.020824 38.05141 16.020578 38.055256 16.017578 38.060547 C 13.084335 43.141067 10.049807 40.865658 13.740234 36.462891 C 9.9693294 40.956873 7.3745395 38.191129 11.773438 34.496094 C 7.2794481 38.266995 5.2020749 35.091849 10.175781 32.216797 C 5.0952538 35.150039 3.602608 31.663011 9 29.695312 C 3.4873052 31.70177 2.6222158 28.008371 8.2792969 27.007812 C 2.5019335 28.026517 2.29418 24.239328 8.0390625 24.236328 C 2.1725752 24.236328 2.6212241 20.470288 8.2792969 21.464844 C 2.5019343 20.446141 3.6005444 16.813332 9 18.775391 C 3.4873048 16.768934 5.1990577 13.384081 10.175781 16.253906 C 5.0952541 13.32066 7.3706636 10.284181 11.773438 13.974609 C 7.2794481 10.203707 10.045175 7.6089065 13.740234 12.007812 C 9.9693279 7.5138257 13.142526 5.4364492 16.017578 10.410156 C 13.084336 5.3296322 16.573217 3.8369791 18.541016 9.234375 C 16.534561 3.7216808 20.227956 2.8585414 21.228516 8.515625 C 20.209809 2.7382693 23.997 2.5285555 24 8.2734375 C 24 5.3401877 24.942485 3.9855633 25.759766 4.0722656 z M 21.228516 8.515625 C 21.228765 8.5171746 21.228273 8.5181714 21.228516 8.5195312 A 15.962258 15.962258 0 0 0 21.230469 8.5195312 C 21.230198 8.5179215 21.228779 8.5171149 21.228516 8.515625 z M 18.541016 9.234375 C 18.542874 9.2392884 18.541269 9.2450866 18.542969 9.25 A 15.962258 15.962258 0 0 1 18.548828 9.2460938 C 18.547127 9.2415583 18.542916 9.2400443 18.541016 9.234375 z M 16.017578 10.410156 C 16.021663 10.416959 16.022391 10.42364 16.025391 10.429688 A 15.962258 15.962258 0 0 1 16.033203 10.425781 C 16.029461 10.420112 16.021773 10.417715 16.017578 10.410156 z M 13.740234 12.007812 C 13.744656 12.012726 13.744547 12.016949 13.748047 12.021484 A 15.962258 15.962258 0 0 1 13.751953 12.017578 C 13.748249 12.013421 13.74443 12.012726 13.740234 12.007812 z M 10.175781 16.253906 C 10.18077 16.257308 10.183191 16.261072 10.1875 16.263672 A 15.962258 15.962258 0 0 1 10.189453 16.259766 C 10.184842 16.257152 10.181035 16.256906 10.175781 16.253906 z M 9 18.775391 C 9.0078236 18.778452 9.0111907 18.784509 9.0175781 18.787109 A 15.962258 15.962258 0 0 1 9.0195312 18.779297 C 9.0130305 18.777277 9.0077858 18.778191 9 18.775391 z M 8.2792969 21.464844 C 8.2853819 21.46594 8.2897439 21.469712 8.2949219 21.470703 A 15.962258 15.962258 0 0 1 8.2949219 21.462891 C 8.2896305 21.46209 8.2854953 21.465944 8.2792969 21.464844 z M 8.2792969 27.007812 C 8.280707 27.007559 8.2818433 27.008051 8.2832031 27.007812 A 15.962258 15.962258 0 0 0 8.2832031 27.005859 C 8.2817333 27.00613 8.2807871 27.007552 8.2792969 27.007812 z M 9 29.695312 C 9.0054425 29.693451 9.0089475 29.695059 9.0136719 29.693359 A 15.962258 15.962258 0 0 1 9.0117188 29.6875 C 9.0071077 29.688672 9.0053291 29.693413 9 29.695312 z M 10.175781 32.216797 C 10.182698 32.212788 10.189454 32.213938 10.195312 32.210938 A 15.962258 15.962258 0 0 1 10.191406 32.203125 C 10.185435 32.206905 10.183189 32.212602 10.175781 32.216797 z M 11.773438 34.496094 C 11.778578 34.491596 11.782725 34.491781 11.787109 34.488281 A 15.962258 15.962258 0 0 1 11.783203 34.482422 C 11.77897 34.485861 11.778464 34.491898 11.773438 34.496094 z M 18.541016 39.236328 C 18.544001 39.228391 18.548181 39.225175 18.550781 39.21875 A 15.962258 15.962258 0 0 1 18.542969 39.216797 C 18.54095 39.2236 18.543815 39.228769 18.541016 39.236328 z M 21.228516 39.957031 C 21.229687 39.951362 21.233385 39.946698 21.234375 39.941406 A 15.962258 15.962258 0 0 1 21.226562 39.941406 C 21.225762 39.946698 21.229615 39.950984 21.228516 39.957031 z M 26.771484 39.957031 C 26.771235 39.955451 26.771724 39.954523 26.771484 39.953125 A 15.962258 15.962258 0 0 0 26.769531 39.953125 C 26.769802 39.954705 26.771221 39.955531 26.771484 39.957031 z M 29.458984 39.236328 C 29.45712 39.231415 29.458731 39.22757 29.457031 39.222656 A 15.962258 15.962258 0 0 1 29.451172 39.224609 C 29.452873 39.229145 29.457084 39.230659 29.458984 39.236328 z M 31.982422 38.060547 C 31.978337 38.053744 31.977609 38.046685 31.974609 38.041016 A 15.962258 15.962258 0 0 1 31.966797 38.044922 C 31.970539 38.050591 31.978227 38.052988 31.982422 38.060547 z M 34.259766 36.462891 C 34.255608 36.457939 34.255453 36.453716 34.251953 36.449219 A 15.962258 15.962258 0 0 1 34.248047 36.455078 C 34.251826 36.458782 34.255608 36.457977 34.259766 36.462891 z M 39 29.695312 C 38.992063 29.692251 38.988469 29.688147 38.982422 29.685547 A 15.962258 15.962258 0 0 1 38.980469 29.693359 C 38.987272 29.69538 38.992441 29.692513 39 29.695312 z M 39.720703 27.007812 C 39.715034 27.006716 39.710369 27.002947 39.705078 27.001953 A 15.962258 15.962258 0 0 1 39.705078 27.009766 C 39.710369 27.010565 39.714656 27.006712 39.720703 27.007812 z M 39.720703 21.464844 C 39.719123 21.465097 39.718195 21.464606 39.716797 21.464844 A 15.962258 15.962258 0 0 0 39.716797 21.466797 C 39.718377 21.46653 39.719203 21.465108 39.720703 21.464844 z M 39 18.777344 C 38.995087 18.779202 38.991242 18.777597 38.986328 18.779297 A 15.962258 15.962258 0 0 1 38.988281 18.783203 C 38.992817 18.781729 38.994331 18.779244 39 18.777344 z M 37.824219 16.253906 C 37.817416 16.257916 37.810357 16.256766 37.804688 16.259766 A 15.962258 15.962258 0 0 1 37.808594 16.269531 C 37.814263 16.265752 37.81666 16.258102 37.824219 16.253906 z M 31.982422 10.410156 C 31.979625 10.41507 31.975256 10.417718 31.972656 10.421875 A 15.962258 15.962258 0 0 1 31.976562 10.425781 C 31.979176 10.421246 31.979422 10.415826 31.982422 10.410156 z M 29.458984 9.234375 C 29.455999 9.242312 29.451819 9.247859 29.449219 9.2539062 A 15.962258 15.962258 0 0 1 29.457031 9.2558594 C 29.45905 9.2490562 29.456184 9.2419341 29.458984 9.234375 z M 26.771484 8.515625 C 26.770313 8.5212943 26.766618 8.5240055 26.765625 8.5292969 A 15.962258 15.962258 0 0 1 26.773438 8.53125 C 26.774237 8.5259587 26.770384 8.5216722 26.771484 8.515625 z M 36.224609 13.976562 C 36.220638 13.978909 36.216356 13.981701 36.212891 13.984375 A 15.962258 15.962258 0 0 1 36.21875 13.988281 C 36.222204 13.985424 36.221605 13.980356 36.224609 13.976562 z "
     transform="scale(0.26458333)"
     id="path54" />
  <path
     style="display:inline;fill:#cc0000;fill-opacity:1;stroke:none;stroke-width:2.11666727;stroke-linecap:butt;stroke-linejoin:miter;stroke-miterlimit:4;stroke-dasharray:none;stroke-opacity:1"
     d="M 5.3088569,2.7586061 C 4.9518756,2.7821162 4.5866532,3.293169 4.9865534,3.9809272 4.5301641,3.1992051 3.7818661,3.385412 3.7095015,3.7892101 3.5937315,4.435208 3.6419635,4.5307901 3.5488298,4.7273152 3.4251683,4.906214 3.318732,4.9118562 2.8171653,5.3351152 2.5031374,5.6001142 2.7117726,6.3446551 3.6163629,6.3449142 a 2.731902,2.731902 0 0 0 0,3.175e-4 c -0.9064427,0.0036 -1.1196073,0.7454058 -0.8059188,1.0101199 0.5015664,0.4232589 0.6083555,0.429201 0.7319844,0.6081201 0.0931,0.1965429 0.044902,0.2917849 0.1606717,0.9377839 0.07267,0.4055052 0.8255481,0.5976922 1.2776919,-0.192677 1.969e-4,-3.439e-4 1.286e-4,-6.35e-4 3.175e-4,-9.789e-4 a 2.731902,2.731902 0 0 0 0.010882,0.0064 c -8.466e-4,0.0014 -0.00164,0.0023 -0.00257,0.0038 -0.4501237,0.7867909 0.08568,1.3421033 0.4717732,1.2027971 0.6173365,-0.2227392 0.6758935,-0.3120591 0.892656,-0.3296642 0.2167615,0.01765 0.2749995,0.1069242 0.8923359,0.3296642 0.3875119,0.1398182 0.9301808,-0.4160441 0.4717733,-1.2027971 -0.00217,-0.0037 -0.00445,-0.0059 -0.0064,-0.009 a 2.731902,2.731902 0 0 0 0.00161,-9.789e-4 c 0.00167,0.0032 0.00262,0.0062 0.0048,0.0099 0.4563192,0.783214 1.2052877,0.5970169 1.2776922,0.1929979 0.1157703,-0.645999 0.067538,-0.74158 0.1606717,-0.9381051 0.123662,-0.1788991 0.2304174,-0.184541 0.7319843,-0.6078 0.3148398,-0.2656859 0.1046327,-1.0137349 -0.8059189,-1.0101189 -0.00114,5.1e-6 -0.0018,3.175e-4 -0.00288,3.175e-4 a 2.731902,2.731902 0 0 0 6.35e-4,-0.0099 C 9.9865977,6.3415971 10.199762,5.6001039 9.886074,5.3353898 9.3845097,4.9121769 9.2780409,4.9062349 9.1544124,4.7273159 9.0613122,4.5307729 9.1095092,4.4352109 8.9937408,3.7892109 8.9210701,3.3837078 8.1681926,3.1918399 7.7160488,3.9822088 8.1661723,3.1954179 7.6303685,2.6401068 7.2442756,2.7794118 6.6269391,3.0021518 6.5683818,3.0914708 6.3516195,3.1090768 6.1348578,3.0914368 6.0763,3.0021518 5.4589633,2.7794118 c -0.048439,-0.01748 -0.09908,-0.02416 -0.1501095,-0.0208 z"
     id="use852"
     inkscape:connector-curvature="0"
     inkscape:label="lotus" />
  <path
     style="display:inline;fill:#ffcc00;fill-opacity:1;stroke:none;stroke-width:1.05833364;stroke-miterlimit:4;stroke-dasharray:none;stroke-opacity:1"
     d="M 9.0802262,6.3453732 A 2.731902,2.731902 0 0 1 6.3483247,9.0772752 2.731902,2.731902 0 0 1 3.6164224,6.3453732 2.731902,2.731902 0 0 1 6.3483247,3.6134712 2.731902,2.731902 0 0 1 9.0802262,6.3453732 Z"
     id="circle6277"
     inkscape:connector-curvature="0"
     inkscape:label="inner_circle" />
  <path
     style="display:inline;fill:#cc0000;fill-opacity:1;stroke:none;stroke-width:2.11666727;stroke-linecap:butt;stroke-linejoin:miter;stroke-miterlimit:4;stroke-dasharray:none;stroke-opacity:1"
     d="M 6.3500225,3.8589831 C 5.7849606,4.491015 5.8927887,5.3678561 6.1013335,5.909628 5.7446699,5.4446421 5.0477949,4.891233 4.1927968,5.104349 4.4576418,5.9097841 5.2708554,6.2549852 5.8443225,6.345234 5.2633073,6.4216542 4.4357155,6.7487702 4.1927968,7.5957202 5.0230389,7.7691361 5.7285533,7.2366161 6.0933317,6.7850012 5.8688259,7.3263231 5.7377399,8.2069673 6.3500225,8.8410862 6.9150842,8.209054 6.8072561,7.3322132 6.5987115,6.7904421 6.9553749,7.2554272 7.6522498,7.8088371 8.507248,7.5957202 8.242403,6.7902852 7.4291897,6.4450841 6.8557222,6.354836 7.4367374,6.2784201 8.2643292,5.9512991 8.507248,5.104349 7.6770058,4.9309332 6.9714915,5.463454 6.6067131,5.9150692 6.8312189,5.373747 6.9623049,4.4931031 6.3500225,3.8589831 Z"
     id="path4733"
     inkscape:connector-curvature="0"
     inkscape:label="inner_flower" />
</svg>
