<?xml version="1.0" encoding="UTF-8" standalone="no"?>
<svg
   xmlns:dc="http://purl.org/dc/elements/1.1/"
   xmlns:cc="http://creativecommons.org/ns#"
   xmlns:rdf="http://www.w3.org/1999/02/22-rdf-syntax-ns#"
   xmlns:svg="http://www.w3.org/2000/svg"
   xmlns="http://www.w3.org/2000/svg"
   version="1.1"
   id="svg2"
   viewBox="0 0 56 94.985281">
  <metadata
     id="metadata4592">
    <rdf:RDF>
      <cc:Work
         rdf:about="">
        <dc:format>image/svg+xml</dc:format>
        <dc:type
           rdf:resource="http://purl.org/dc/dcmitype/StillImage" />
        <dc:title></dc:title>
      </cc:Work>
    </rdf:RDF>
  </metadata>
  <defs
     id="defs4590" />
  <g
     id="g4155"
     transform="translate(4,-961.3769)">
    <circle
       r="24"
       cy="1028.3622"
       cx="24"
       id="path4144"
       style="opacity:1;fill:#ffcc00;fill-rule:nonzero;stroke:none;stroke-width:4;stroke-miterlimit:4;stroke-dasharray:none;stroke-dashoffset:0;stroke-opacity:1" />
    <g
       transform="matrix(0.45096347,0,0,0.45096347,-19.292494,597.07778)"
       id="text4891"
       style="font-style:normal;font-variant:normal;font-weight:normal;font-stretch:normal;font-size:70.51673126px;line-height:125%;font-family:Sail;-inkscape-font-specification:Sail;text-align:start;letter-spacing:0px;word-spacing:0px;text-anchor:start;fill:#cc0000;stroke:none;stroke-width:1px;stroke-linecap:butt;stroke-linejoin:miter;stroke-opacity:1">
      <path
         id="path5142"
         d="m 88.207906,986.75489 c -5.429789,0 -8.038908,-1.12827 -10.930094,-3.66687 -2.468085,-2.1155 -3.807903,-5.00669 -3.807903,-8.17994 0,-5.35927 4.019454,-10.85958 10.78906,-10.85958 2.679636,0 4.865654,0.70517 6.205472,2.04499 1.198785,1.05775 1.833435,2.67964 1.833435,4.37204 0,3.17325 -2.186019,6.55805 -5.429788,6.55805 -1.833435,0 -3.24377,-0.49361 -4.160487,-1.48085 -1.621885,-1.62188 -1.551368,-4.08997 -1.551368,-4.08997 l -1.339818,-0.0705 c -0.07052,0.14104 -0.141034,3.03222 1.903951,5.07721 1.198785,1.2693 2.961703,1.97447 5.147722,1.97447 4.019454,0 6.769606,-4.08997 6.769606,-7.96839 0,-2.1155 -0.775684,-4.01946 -2.256535,-5.35927 -1.621885,-1.55137 -4.089971,-2.39757 -7.12219,-2.39757 -7.615807,0 -12.128878,6.20547 -12.128878,12.19939 0,3.59635 1.480851,6.84012 4.231004,9.16718 3.173253,2.75015 7.897874,4.231 13.609729,4.231 13.962316,0 22.847416,-7.47477 22.847416,-18.05228 0,-9.80183 -10.85957,-13.82128 -16.924011,-19.46262 3.948937,-0.98724 7.404261,-3.10274 8.532521,-3.94894 1.19879,0.70517 2.75016,1.05775 4.51307,1.05775 7.05168,0 10.9301,-5.42979 10.9301,-10.64802 0,-2.89119 -1.12827,-5.64134 -3.24377,-7.61581 -2.39757,-2.18602 -5.92341,-3.45532 -10.15441,-3.45532 -12.481462,0 -23.058972,7.96839 -23.058972,20.6614 0,0.8462 0,1.62189 0.141033,2.39757 -4.231003,-1.41033 -6.134955,-4.37204 -6.981156,-6.91064 -1.833435,-5.71185 0.352584,-13.53921 4.795138,-16.78298 l -0.775684,-1.12827 c -4.936171,3.66687 -7.33374,12.05836 -5.288755,18.33435 0.846201,2.5386 2.961703,6.34651 8.462008,7.96839 2.891186,12.48146 20.097268,11.91733 20.097268,24.96293 0,6.55805 -5.570822,11.07112 -15.654714,11.07112 z m 15.231614,-40.68815 c -1.12827,0.77568 -4.654105,2.89118 -8.744075,3.8079 -7.968391,-5.42979 -3.66687,-22.3538 11.776295,-22.3538 3.87842,0 7.05167,1.12827 9.23769,3.10273 1.83344,1.76292 2.82067,4.08997 2.82067,6.62858 0,4.58358 -3.3848,9.44924 -9.59028,9.44924 -1.2693,0 -2.32705,-0.28207 -3.24376,-0.70517 3.17325,-2.82067 5.14772,-6.48754 5.14772,-9.80182 0,-3.38481 -1.69241,-5.14773 -4.72462,-5.14773 -3.80791,0 -5.92341,3.17326 -5.92341,7.19271 0,2.9617 1.12827,5.92341 3.24377,7.82736 z m 2.60912,-13.75076 c 2.25653,0 3.3848,1.2693 3.3848,3.87842 0,3.31428 -2.18602,7.05167 -4.93617,9.02614 -1.97447,-1.62189 -2.89119,-4.37204 -2.89119,-6.98116 0,-3.45532 1.55137,-5.9234 4.44256,-5.9234 z" />
    </g>
  </g>
  <g
     transform="translate(3.508305,-46.96684)"
     id="g4259">
    <g
       transform="matrix(0.74281983,0,0,0.74281983,10.345026,-737.85912)"
       id="g5202"
       style="fill:#ffffff">
      <g
         id="flowRoot4457"
         style="font-style:normal;font-variant:normal;font-weight:normal;font-stretch:normal;font-size:197.99998474px;line-height:125%;font-family:Sail;-inkscape-font-specification:'Sail, Normal';text-align:start;letter-spacing:0px;word-spacing:0px;writing-mode:lr-tb;text-anchor:start;fill:#ffffff;fill-opacity:1;stroke:none;stroke-width:1px;stroke-linecap:butt;stroke-linejoin:miter;stroke-opacity:1"
         transform="matrix(0.07133568,0,0,0.07133568,36.670915,1037.4233)">
        <path
           id="path4208"
           d="m -490.69735,738.2088 q 0,29.7 19.206,39.204 4.752,0.594 12.474,0.594 7.92,0 16.632,-2.97 8.712,-2.97 13.464,-7.326 10.098,-9.306 12.672,-16.038 l 0.99,-2.97 3.96,1.584 q -1.386,4.554 -5.346,10.494 -3.96,5.94 -9.108,10.098 -4.95,4.158 -14.652,7.524 -9.504,3.564 -21.186,3.564 -24.948,0 -38.808,-14.454 -13.662,-14.454 -13.662,-40.788 0,-35.83799 23.166,-59.00399 23.166,-23.166 60.786,-23.166 17.424,0 25.146,6.336 7.722,6.138 7.722,19.404 0,8.91 -8.712,21.97799 -7.92,12.672 -7.92,19.8 l -4.356,0 q 0,-3.96 1.584,-8.514 1.584,-4.554 2.772,-6.534 1.188,-1.98 4.356,-7.12799 7.722,-11.682 7.722,-19.206 0,-15.84 -13.068,-19.998 -6.138,-1.98 -12.87,-1.98 -6.732,0 -14.256,0.792 -6.93,2.178 -13.266,5.742 -6.138,3.366 -12.87,10.494 -6.732,6.93 -11.484,16.236 -4.752,9.306 -7.92,23.95799 -3.168,14.454 -3.168,32.274 z" />
        <path
           id="path4210"
           d="m -323.08417,766.9188 q -17.424,0 -19.008,-15.246 -8.712,15.246 -21.978,15.246 -13.266,0 -21.186,-7.92 -7.72199,-8.118 -7.72199,-22.572 0,-22.572 11.08799,-35.442 11.088,-12.86999 28.71,-12.86999 14.454,0 19.206,13.66199 0.99,-5.94 2.178,-11.87999 14.652,0 21.78,-1.188 l 2.574,-0.594 -13.662,74.84399 q 5.94,-0.594 9.9,-5.544 l 2.97,2.376 q -5.94,7.128 -14.85,7.128 z m -47.52,-20.394 q 0,8.91 2.178,12.474 2.376,3.366 7.128,3.366 4.752,0 9.702,-5.148 6.534,-6.732 10.494,-17.028 0.594,-2.574 2.178,-12.276 1.782,-9.9 2.97,-16.236 -0.594,-7.524 -4.158,-13.068 -3.564,-5.544 -8.91,-5.544 -9.702,0 -15.642,17.424 -5.94,17.226 -5.94,36.036 z" />
        <path
           id="path4212"
           d="m -295.88392,695.2428 q 5.94,-7.12799 14.85,-7.12799 9.108,0 14.058,4.55399 4.94999,4.554 4.94999,12.87 l 0,1.188 q 8.91,-18.61199 23.166,-18.61199 15.246,0 15.246,15.83999 0,6.534 -4.356,13.86 -4.356,7.326 -8.712,14.058 -4.356,6.534 -4.356,11.682 l -4.752,0 q 0,-7.326 8.514,-19.8 8.514,-12.474 8.514,-19.206 0,-6.93 -2.772,-9.306 -2.574,-2.574 -7.92,-2.574 -5.148,0 -10.296,4.554 -4.95,4.554 -8.316,11.484 -5.346,10.296 -7.12799,16.83 l 0,0.198 -7.128,39.402 -23.76,0 13.068,-73.062 q -5.94,0.594 -9.9,5.544 l -2.97,-2.376 z" />
        <path
           id="path4214"
           d="m -142.71547,762.9588 q 4.75199,0 9.89999,-5.544 l 2.97,2.376 q -1.386,2.772 -6.138,4.95 -4.75199,2.178 -10.49399,2.178 -18.018,0 -18.018,-16.236 0,-6.93 3.564,-24.75 3.564,-17.82 3.564,-23.364 0,-8.514 -8.118,-8.514 -6.534,0 -12.672,8.514 -5.94,8.514 -9.9,23.364 l -6.732,37.026 q 6.138,-0.594 10.098,-5.544 l 2.97,2.376 q -5.94,7.128 -14.85,7.128 -8.91,0 -14.058,-4.554 -4.95,-4.554 -4.95,-11.88 0,-2.772 3.168,-21.78 l 6.534,-36.63 q -5.94,0.594 -9.9,5.544 l -2.97,-2.376 q 5.94,-7.12799 14.85,-7.12799 9.108,0 14.058,4.55399 4.95,4.554 4.95,12.87 l 0,1.188 q 8.118,-18.61199 25.344,-18.61199 11.682,0 18.216,6.73199 6.53399,6.534 6.53399,18.216 0,6.138 -3.762,23.76 -3.76199,17.424 -4.15799,26.136 z" />
        <path
           id="path4216"
           d="m -50.834193,766.9188 q -17.423999,0 -19.007999,-15.246 -8.711999,15.246 -21.977998,15.246 -13.266,0 -21.186,-7.92 -7.722,-8.118 -7.722,-22.572 0,-22.572 11.088,-35.442 11.088001,-12.86999 28.709999,-12.86999 14.453999,0 19.205999,13.66199 0.99,-5.94 2.178,-11.87999 14.651998,0 21.779998,-1.188 l 2.574,-0.594 -13.661999,74.84399 q 5.939999,-0.594 9.899999,-5.544 l 2.97,2.376 q -5.94,7.128 -14.849999,7.128 z m -47.519996,-20.394 q 0,8.91 2.177999,12.474 2.376,3.366 7.128,3.366 4.752,0 9.701999,-5.148 6.534,-6.732 10.493999,-17.028 0.594,-2.574 2.178,-12.276 1.782,-9.9 2.97,-16.236 -0.594,-7.524 -4.158,-13.068 -3.563999,-5.544 -8.909999,-5.544 -9.701999,0 -15.641999,17.424 -5.939999,17.226 -5.939999,36.036 z" />
        <path
           id="path4218"
           d="m -12.545939,689.89681 5.346,-29.304 q 14.6519988,0 21.779998,-1.188 l 2.574,-0.594 q -2.772,13.86 -6.137999,31.086 l 24.551998,0 -0.396,3.56399 -24.749998,0 q -9.89999962,51.084 -9.89999962,61.578 0,6.336 6.73199952,6.336 6.7319991,0 12.2759991,-8.514 5.543999,-8.514 7.919999,-18.414 l 3.564,1.188 q -7.325999,31.284 -30.29399764,31.284 -9.50399926,0 -15.83999836,-5.148 -6.336,-5.346 -6.336,-14.652 0,-9.504 8.117999,-53.658 l -9.701999,0 0.396,-3.56399 10.097999,0 z" />
        <path
           id="path4220"
           d="m 75.616623,759.7908 q -5.94,7.128 -14.849999,7.128 -8.909999,0 -14.057999,-4.554 -4.95,-4.554 -4.95,-11.88 0,-2.574 3.168,-21.582 l 6.534,-35.442 -8.316,0 0.396,-3.56399 8.514,0 q 14.651998,0 21.581998,-1.188 l 2.772,-0.594 -13.661999,74.84399 q 5.939999,-0.594 9.899999,-5.544 l 2.97,2.376 z M 58.192624,669.10681 q -4.158,-4.158 -4.158,-10.098 0,-5.94 4.158,-10.098 4.158,-4.356 10.097999,-4.356 5.94,0 10.098,4.356 4.355999,4.158 4.355999,10.098 0,5.94 -4.355999,10.098 -4.158,4.158 -10.098,4.158 -5.939999,0 -10.097999,-4.158 z" />
        <path
           id="path4222"
           d="m 134.65775,723.7548 q -4.158,-4.158 -4.158,-10.098 0,-5.94 4.158,-10.098 4.158,-4.356 10.098,-4.356 1.782,0 4.554,0.792 -3.762,-6.93 -14.058,-6.93 -10.296,0 -18.216,13.068 -7.92,13.068 -7.92,38.808 0,8.91 3.96,13.266 4.158,4.158 10.296,4.158 6.138,0 11.088,-2.376 5.148,-2.376 8.118,-5.544 2.97,-3.366 5.148,-6.93 3.96,-6.534 3.96,-8.316 l 3.564,1.584 q -0.594,3.168 -3.564,8.514 -2.97,5.148 -6.534,8.514 -3.564,3.366 -10.494,6.336 -6.93,2.772 -15.444,2.772 -16.038,0 -24.354,-7.524 -8.117999,-7.722 -8.117999,-20.988 0,-23.562 11.681999,-36.828 11.88,-13.46399 32.076,-13.46399 13.662,0 20.988,6.92999 7.326,6.93 7.326,18.216 0,7.128 -4.356,10.89 -4.158,3.762 -9.9,3.762 -5.742,0 -9.9,-4.158 z" />
      </g>
      <g
         id="flowRoot4465"
         style="font-style:normal;font-variant:normal;font-weight:normal;font-stretch:normal;font-size:220.80560303px;line-height:125%;font-family:Sail;-inkscape-font-specification:'Sail, Normal';text-align:start;letter-spacing:0px;word-spacing:0px;writing-mode:lr-tb;text-anchor:start;fill:#ffffff;fill-opacity:1;stroke:none;stroke-width:1px;stroke-linecap:butt;stroke-linejoin:miter;stroke-opacity:1"
         transform="matrix(0.05815261,0,0,0.05815261,40.051108,1067.9912)">
        <path
           id="path4225"
           d="m -319.09735,458.57468 5.96176,-32.67923 q 16.33961,0 24.28861,-1.32483 l 2.87048,-0.66242 q -3.09128,15.45639 -6.84498,34.66648 l 27.3799,0 -0.44161,3.9745 -27.60071,0 q -11.04028,56.96785 -11.04028,68.67054 0,7.06578 7.5074,7.06578 7.50739,0 13.68994,-9.49464 6.18256,-9.49464 8.83223,-20.53492 l 3.9745,1.32484 q -8.16981,34.88728 -33.78326,34.88728 -10.59867,0 -17.66445,-5.74094 -7.06578,-5.96176 -7.06578,-16.33962 0,-10.59867 9.05303,-59.83832 l -10.81947,0 0.44161,-3.9745 11.26108,0 z" />
        <path
           id="path4227"
           d="m -247.93929,461.00354 q -5.29934,0 -11.04028,6.18256 l -3.31209,-2.64967 q 1.54564,-3.09128 6.84498,-5.52014 5.29933,-2.42886 11.7027,-2.42886 20.09331,0 20.09331,18.10606 0,7.7282 -3.97451,27.6007 -3.9745,19.8725 -3.9745,26.05506 0,9.49464 9.05303,9.49464 6.40337,0 12.36512,-7.50739 6.18255,-7.50739 10.59867,-20.75572 l 9.27383,-51.0061 q 16.33962,0 23.84701,-1.32483 l 2.87047,-0.66242 -14.79398,83.46452 q 6.62417,-0.66242 11.04028,-6.18256 l 3.31209,2.64967 q -6.62417,7.949 -16.56042,7.949 -9.93625,0 -15.45639,-4.85772 -5.52014,-4.85773 -5.74095,-13.68995 -9.27384,18.54767 -27.37989,18.54767 -13.02754,0 -20.31412,-7.28658 -7.28658,-7.50739 -7.28658,-20.53493 0,-6.84497 4.1953,-26.27586 4.19531,-19.6517 4.63692,-29.36715 z" />
        <path
           id="path4229"
           d="m -66.205927,540.05195 q 5.299334,0 11.04028,-6.18256 l 3.312084,2.64967 q -1.54564,3.09128 -6.844974,5.52014 -5.299334,2.42886 -11.702697,2.42886 -20.09331,0 -20.09331,-18.10606 0,-7.72819 3.974501,-27.6007 3.974501,-19.8725 3.974501,-26.05506 0,-9.49464 -9.05303,-9.49464 -7.286585,0 -14.131558,9.49464 -6.62417,9.49464 -11.04028,26.05506 l -7.50739,41.29065 q 6.84497,-0.66242 11.26108,-6.18256 l 3.31209,2.64967 q -6.62417,7.949 -16.56042,7.949 -9.93625,0 -15.6772,-5.07853 -5.52014,-5.07853 -5.52014,-13.24833 0,-3.09128 3.53289,-24.28862 l 7.28659,-40.84904 q -6.62417,0.66242 -11.04029,6.18256 l -3.31208,-2.64967 q 6.62417,-7.949 16.56042,-7.949 10.15706,0 15.6772,5.07853 5.52014,5.07853 5.52014,14.35236 l 0,1.32484 q 9.05303,-20.75573 28.263116,-20.75573 13.027531,0 20.314116,7.50739 7.286585,7.28659 7.286585,20.31412 0,6.84497 -4.195307,26.49667 -4.195306,19.43089 -4.636917,29.14634 z" />
        <path
           id="path4231"
           d="m 6.0078568,456.58743 q 28.0423112,0 28.0423112,22.30137 0,13.91075 -13.248336,21.19733 -13.0275304,7.06578 -37.316147,7.28659 -0.441611,7.949 -0.441611,12.58592 0,9.93625 4.416112,14.79397 4.6369178,4.63692 11.4818915,4.63692 6.8449736,0 12.3651135,-2.64967 5.740946,-2.64966 9.05303,-6.18255 3.312084,-3.7537 5.740946,-7.7282 4.416112,-7.28658 4.416112,-9.27383 l 3.974501,1.76644 q -0.662417,3.53289 -3.974501,9.49464 -3.312084,5.74095 -7.286585,9.49464 -3.974501,3.7537 -11.702697,7.06578 -7.7281963,3.09128 -17.2228372,3.09128 -17.8852538,0 -27.1590888,-8.39061 -9.05303,-8.61142 -9.05303,-23.4054 0,-26.27586 13.02753,-41.06984 13.027531,-15.01478 34.8872858,-15.01478 z M 28.530028,478.8888 q 0,-7.28659 -4.416112,-11.92351 -4.195306,-4.85772 -12.806725,-4.85772 -8.3906127,0 -16.56042,10.15706 -7.949002,10.15706 -10.598669,30.02956 44.381926,-0.2208 44.381926,-23.40539 z" />
        <path
           id="path4233"
           d="m 47.18467,464.53643 q 6.624168,-7.949 16.56042,-7.949 10.157058,0 15.677198,5.07853 5.52014,5.07853 5.52014,14.35236 l 0,1.32484 q 9.936252,-20.75573 25.834252,-20.75573 17.00204,0 17.00204,17.66445 0,7.28658 -4.85773,15.45639 -4.85772,8.16981 -9.71544,15.6772 -4.85773,7.28658 -4.85773,13.02753 l -5.29933,0 q 0,-8.16981 9.49464,-22.08056 9.49464,-13.91075 9.49464,-21.41814 0,-7.7282 -3.09128,-10.37787 -2.87047,-2.87047 -8.83222,-2.87047 -5.74095,0 -11.481894,5.07853 -5.52014,5.07853 -9.273836,12.80672 -5.961751,11.48189 -7.949001,18.76848 l 0,0.22081 -7.949002,43.94031 -26.496672,0 14.573169,-81.47727 q -6.624168,0.66242 -11.04028,6.18256 l -3.312084,-2.64967 z" />
      </g>
    </g>
    <path
       d="m 6.1709119,65.233342 q 1.694551,0 2.6305886,-0.693958 0.9521761,-0.693958 0.9521761,-1.839799 0,-0.823066 -0.4196029,-1.452467 Q 8.9306092,60.617711 8.3173431,60.214244 7.704077,59.794644 7.0585338,59.391178 6.4291292,58.987712 5.8804174,58.374445 5.3317058,57.761179 5.1541813,56.986529 3.6855706,56.550787 3.2175517,55.162871 3.0400273,54.630297 3.0400273,54.049306 q 0,-0.580984 0.1775244,-1.210392 Q 3.588739,51.59624 4.4279452,50.96684 l 0.1775245,0.258216 q -0.7585134,0.548709 -1.0974236,1.710691 -0.1613857,0.580991 -0.1613857,1.113559 0,0.532574 0.1613857,1.016732 0.387326,1.178116 1.5977195,1.581582 -0.032277,-0.177524 -0.032277,-0.548715 0,-2.11415 1.5331651,-3.421375 1.5331651,-1.307224 3.7441513,-1.307224 1.452471,0 2.323954,0.790791 0.742375,0.693958 0.742375,1.710684 0,1.000591 -0.67782,1.742966 -0.67782,0.72624 -1.82366,0.72624 -0.629404,0 -1.0328683,-0.242082 -0.8230678,0.629407 -1.9527684,0.903765 0.3227716,0.306633 1.5008879,1.1297 1.1942548,0.823066 1.7752438,1.581582 0.597127,0.742375 0.597127,1.742966 0,1.839799 -1.436333,2.985633 -1.4201952,1.145841 -3.6150421,1.145841 -2.1787084,0 -3.2922704,-0.968316 -0.9683148,-0.823067 -0.9683148,-2.017324 0,-1.178116 0.7585132,-2.017317 0.7746519,-0.855349 1.9204911,-0.855349 1.1458393,0 1.6945509,0.516434 0.5487118,0.500299 0.5487118,1.226532 0,0.726241 -0.4518802,1.291091 -0.4357417,0.56485 -1.1458393,0.56485 -0.7100975,0 -1.1297006,-0.451883 -0.3873259,-0.387325 -0.4357417,-0.968316 -0.016139,-0.161384 0,-0.193659 l 0.3066331,0.01613 q -0.016139,0.564857 0.3550488,0.936041 0.3066329,0.338908 0.8876219,0.338908 0.5971274,0 0.9521762,-0.468017 0.3550488,-0.451882 0.3550488,-1.049007 0,-0.613267 -0.4196031,-0.984451 -0.4680188,-0.468024 -1.500888,-0.468024 -1.0328691,0 -1.7106895,0.758516 -0.6778204,0.742375 -0.6778204,1.791383 0,1.065142 0.8714834,1.807517 0.5164345,0.451882 1.0490077,0.645548 0.5487117,0.193659 1.4524722,0.193659 z M 8.9144706,54.129997 q 0,-0.710092 0.3550487,-1.178116 0.3711873,-0.468017 1.0005917,-0.468017 1.081285,0 1.081285,1.194258 0,1.178116 -1.178116,2.227124 0.355049,0.161383 0.742374,0.161383 1.000592,0 1.59772,-0.645541 0.597128,-0.661683 0.597128,-1.533166 0,-0.887624 -0.645544,-1.500891 -0.79079,-0.710092 -2.081877,-0.710092 -1.2910861,0 -2.1948465,0.629401 -1.4040565,1.000591 -1.4040565,2.582173 0,1.307225 0.8714833,1.904357 Q 8.7369462,56.550787 9.656845,55.92138 8.9144706,55.259704 8.9144706,54.129997 Z m 1.3395024,-1.355634 q -0.4841573,0 -0.7585135,0.371184 -0.2582173,0.371191 -0.2582173,0.98445 0,1.049008 0.6616818,1.597724 0.484157,-0.338909 0.806929,-0.9199 0.322771,-0.580991 0.322771,-1.14584 0,-0.887618 -0.774651,-0.887618 z"
       style="font-style:normal;font-variant:normal;font-weight:normal;font-stretch:normal;font-size:medium;line-height:50%;font-family:Sail;-inkscape-font-specification:'Sail, Normal';text-align:start;letter-spacing:0px;word-spacing:0px;writing-mode:lr-tb;text-anchor:start;fill:#ffffff;fill-opacity:1;stroke:none;stroke-width:1px;stroke-linecap:butt;stroke-linejoin:miter;stroke-opacity:1"
       id="path4195" />
    <path
       d="m 19.661757,61.924935 q 0.387326,0 0.806929,-0.451883 l 0.242079,0.193666 q -0.112971,0.225942 -0.500297,0.403467 -0.387325,0.177524 -0.855344,0.177524 -1.468611,0 -1.468611,-1.323365 0,-0.56485 0.290495,-2.017324 0.290494,-1.452474 0.290494,-1.90435 0,-0.693958 -0.661682,-0.693958 -0.548712,0 -1.065146,0.742375 -0.500296,0.742374 -0.823068,2.017316 l -0.532573,3.034057 -1.93663,0 1.791383,-10.135029 q -0.484158,0.04842 -0.806929,0.451883 l -0.242079,-0.193666 q 0.484158,-0.580991 1.210393,-0.580991 0.742375,0 1.14584,0.371191 0.403465,0.371183 0.403465,1.049007 0,0.129109 -0.03228,0.419601 l -0.67782,3.824847 q 0.661682,-1.484749 2.0496,-1.484749 0.952176,0 1.484749,0.548709 0.532573,0.532574 0.532573,1.484749 0,0.500299 -0.306633,1.936632 -0.306633,1.420192 -0.33891,2.130291 z"
       style="font-style:normal;font-variant:normal;font-weight:normal;font-stretch:normal;font-size:medium;line-height:50%;font-family:Sail;-inkscape-font-specification:'Sail, Normal';text-align:start;letter-spacing:0px;word-spacing:0px;writing-mode:lr-tb;text-anchor:start;fill:#ffffff;fill-opacity:1;stroke:none;stroke-width:1px;stroke-linecap:butt;stroke-linejoin:miter;stroke-opacity:1"
       id="path4197" />
    <path
       d="m 21.555267,56.405538 q 0.484157,-0.580984 1.210393,-0.580984 0.742375,0 1.14584,0.371184 0.403464,0.371191 0.403464,1.049008 l 0,0.09683 q 0.726236,-1.517025 1.888214,-1.517025 1.24267,0 1.24267,1.291083 0,0.532575 -0.355048,1.1297 -0.355049,0.597132 -0.710098,1.145841 -0.355048,0.532574 -0.355048,0.952175 l -0.387327,0 q 0,-0.597125 0.693959,-1.613858 0.69396,-1.016733 0.69396,-1.565441 0,-0.56485 -0.225941,-0.758516 -0.209801,-0.2098 -0.645543,-0.2098 -0.419603,0 -0.839206,0.371191 -0.403464,0.371183 -0.677821,0.936033 -0.435741,0.839208 -0.580989,1.371782 l 0,0.01613 -0.580989,3.211581 -1.936629,0 1.065146,-5.955139 q -0.484157,0.04842 -0.806928,0.451883 L 21.555267,56.40553 Z"
       style="font-style:normal;font-variant:normal;font-weight:normal;font-stretch:normal;font-size:medium;line-height:50%;font-family:Sail;-inkscape-font-specification:'Sail, Normal';text-align:start;letter-spacing:0px;word-spacing:0px;writing-mode:lr-tb;text-anchor:start;fill:#ffffff;fill-opacity:1;stroke:none;stroke-width:1px;stroke-linecap:butt;stroke-linejoin:miter;stroke-opacity:1"
       id="path4199" />
    <path
       d="m 28.794681,56.147321 q -0.387326,0 -0.80693,0.451883 l -0.242078,-0.193666 q 0.11297,-0.225934 0.500296,-0.403459 0.387326,-0.177525 0.855344,-0.177525 1.468611,0 1.468611,1.323359 0,0.564849 -0.290494,2.017323 -0.290494,1.452475 -0.290494,1.904357 0,0.693958 0.661682,0.693958 0.468018,0 0.90376,-0.548715 0.45188,-0.548709 0.774652,-1.517025 l 0.67782,-3.728015 q 1.194255,0 1.742967,-0.09683 l 0.209801,-0.04842 -1.081284,6.100381 q 0.484157,-0.04842 0.806929,-0.451883 l 0.242078,0.193666 q -0.484157,0.580991 -1.210393,0.580991 -0.726236,0 -1.129701,-0.355049 -0.403464,-0.35505 -0.419603,-1.000592 -0.677821,1.355641 -2.001184,1.355641 -0.952177,0 -1.48475,-0.532574 -0.532573,-0.548716 -0.532573,-1.500891 0,-0.500292 0.306633,-1.920491 0.306634,-1.436332 0.338911,-2.146432 z"
       style="font-style:normal;font-variant:normal;font-weight:normal;font-stretch:normal;font-size:medium;line-height:50%;font-family:Sail;-inkscape-font-specification:'Sail, Normal';text-align:start;letter-spacing:0px;word-spacing:0px;writing-mode:lr-tb;text-anchor:start;fill:#ffffff;fill-opacity:1;stroke:none;stroke-width:1px;stroke-linecap:butt;stroke-linejoin:miter;stroke-opacity:1"
       id="path4201" />
    <path
       d="m 36.83245,55.969796 0.435742,-2.388507 q 1.194255,0 1.775244,-0.09683 l 0.209801,-0.04842 q -0.22594,1.129707 -0.500296,2.533757 l 2.001184,0 -0.03228,0.290499 -2.017322,0 q -0.80693,4.163749 -0.80693,5.019098 0,0.516434 0.548712,0.516434 0.548712,0 1.000593,-0.693958 0.451879,-0.693959 0.645543,-1.500891 l 0.290494,0.09683 q -0.597128,2.549898 -2.469203,2.549898 -0.774652,0 -1.291086,-0.419607 -0.516435,-0.435742 -0.516435,-1.19425 0,-0.774657 0.661682,-4.373557 l -0.790791,0 0.03228,-0.290499 0.823067,0 z"
       style="font-style:normal;font-variant:normal;font-weight:normal;font-stretch:normal;font-size:medium;line-height:50%;font-family:Sail;-inkscape-font-specification:'Sail, Normal';text-align:start;letter-spacing:0px;word-spacing:0px;writing-mode:lr-tb;text-anchor:start;fill:#ffffff;fill-opacity:1;stroke:none;stroke-width:1px;stroke-linecap:butt;stroke-linejoin:miter;stroke-opacity:1"
       id="path4203" />
    <path
       d="m 44.018406,61.666718 q -0.484158,0.580991 -1.210394,0.580991 -0.726236,0 -1.145839,-0.37119 -0.403465,-0.371184 -0.403465,-0.968317 0,-0.2098 0.258218,-1.7591 l 0.532573,-2.888807 -0.677821,0 0.03228,-0.290499 0.693959,0 q 1.194254,0 1.759105,-0.09683 l 0.22594,-0.04842 -1.113562,6.100381 q 0.484157,-0.04842 0.806929,-0.451883 l 0.242079,0.193666 z M 42.59821,54.275247 q -0.338909,-0.338909 -0.338909,-0.823067 0,-0.484158 0.338909,-0.823066 0.338911,-0.35505 0.823068,-0.35505 0.484158,0 0.823068,0.35505 0.355049,0.338908 0.355049,0.823066 0,0.484158 -0.355049,0.823067 -0.33891,0.338908 -0.823068,0.338908 -0.484157,0 -0.823068,-0.338908 z"
       style="font-style:normal;font-variant:normal;font-weight:normal;font-stretch:normal;font-size:medium;line-height:50%;font-family:Sail;-inkscape-font-specification:'Sail, Normal';text-align:start;letter-spacing:0px;word-spacing:0px;writing-mode:lr-tb;text-anchor:start;fill:#ffffff;fill-opacity:1;stroke:none;stroke-width:1px;stroke-linecap:butt;stroke-linejoin:miter;stroke-opacity:1"
       id="path4205" />
    <path
       id="path5200"
       d="m 12.587891,64.435547 0,1 33.302734,0 0,-1 -33.302734,0 z"
       style="color:#000000;font-style:normal;font-variant:normal;font-weight:normal;font-stretch:normal;font-size:medium;line-height:normal;font-family:sans-serif;text-indent:0;text-align:start;text-decoration:none;text-decoration-line:none;text-decoration-style:solid;text-decoration-color:#000000;letter-spacing:normal;word-spacing:normal;text-transform:none;direction:ltr;block-progression:tb;writing-mode:lr-tb;baseline-shift:baseline;text-anchor:start;white-space:normal;clip-rule:nonzero;display:inline;overflow:visible;visibility:visible;opacity:1;isolation:auto;mix-blend-mode:normal;color-interpolation:sRGB;color-interpolation-filters:linearRGB;solid-color:#000000;solid-opacity:1;fill:#ffffff;fill-opacity:1;fill-rule:evenodd;stroke:none;stroke-width:1px;stroke-linecap:butt;stroke-linejoin:miter;stroke-miterlimit:4;stroke-dasharray:none;stroke-dashoffset:0;stroke-opacity:1;color-rendering:auto;image-rendering:auto;shape-rendering:auto;text-rendering:auto;enable-background:accumulate" />
  </g>
</svg>
