<?xml version="1.0" encoding="UTF-8" standalone="no"?>
<svg
   xmlns:dc="http://purl.org/dc/elements/1.1/"
   xmlns:cc="http://creativecommons.org/ns#"
   xmlns:rdf="http://www.w3.org/1999/02/22-rdf-syntax-ns#"
   xmlns:svg="http://www.w3.org/2000/svg"
   xmlns="http://www.w3.org/2000/svg"
   xmlns:sodipodi="http://sodipodi.sourceforge.net/DTD/sodipodi-0.dtd"
   xmlns:inkscape="http://www.inkscape.org/namespaces/inkscape"
   height="504.95999"
   width="960"
   sodipodi:docname="shruti_logo_with_title_early_access.svg"
   inkscape:version="0.91 r"
   viewBox="0 0 960 504.95999"
   id="svg2"
   version="1.1"
   inkscape:export-filename="/home/ragu/code/kuyil.github.io/images/early_release_fb.jpg"
   inkscape:export-xdpi="192.00002"
   inkscape:export-ydpi="192.00002">
  <sodipodi:namedview
     inkscape:current-layer="layer2"
     inkscape:window-maximized="1"
     inkscape:window-y="24"
     inkscape:window-x="0"
     inkscape:cy="336.23565"
     inkscape:cx="374.89003"
     inkscape:zoom="1.0407728"
     fit-margin-bottom="0"
     fit-margin-right="0"
     fit-margin-left="8"
     fit-margin-top="0"
     width="120px"
     showgrid="false"
     id="namedview4238"
     inkscape:window-height="1056"
     inkscape:window-width="1920"
     inkscape:pageshadow="2"
     inkscape:pageopacity="0"
     guidetolerance="10"
     gridtolerance="10"
     objecttolerance="10"
     borderopacity="1"
     bordercolor="#666666"
     pagecolor="#ffffff" />
  <metadata
     id="metadata4592">
    <rdf:RDF>
      <cc:Work
         rdf:about="">
        <dc:format>image/svg+xml</dc:format>
        <dc:type
           rdf:resource="http://purl.org/dc/dcmitype/StillImage" />
        <dc:title></dc:title>
      </cc:Work>
    </rdf:RDF>
  </metadata>
  <defs
     id="defs4590">
    <filter
       style="color-interpolation-filters:sRGB;"
       inkscape:label="Drop Shadow"
       id="filter5691">
      <feFlood
         flood-opacity="0.333333"
         flood-color="rgb(0,0,0)"
         result="flood"
         id="feFlood5693" />
      <feComposite
         in="flood"
         in2="SourceGraphic"
         operator="in"
         result="composite1"
         id="feComposite5695" />
      <feGaussianBlur
         in="composite1"
         stdDeviation="2"
         result="blur"
         id="feGaussianBlur5697" />
      <feOffset
         dx="1.5"
         dy="1.5"
         result="offset"
         id="feOffset5699" />
      <feComposite
         in="SourceGraphic"
         in2="offset"
         operator="over"
         result="composite2"
         id="feComposite5701" />
    </filter>
  </defs>
  <g
     inkscape:groupmode="layer"
     id="layer1"
     inkscape:label="background"
     transform="translate(0,440.96)" />
  <g
     inkscape:groupmode="layer"
     id="layer2"
     inkscape:label="poster"
     transform="translate(0,440.96)">
    <rect
       style="opacity:1;fill:#3d608f;fill-opacity:0.94117647;fill-rule:nonzero;stroke:#bfbfbf;stroke-width:0;stroke-miterlimit:4;stroke-dasharray:none;stroke-dashoffset:0;stroke-opacity:0.70050767"
       id="rect4240"
       width="959.99994"
       height="504.95996"
       x="2.2078924e-05"
       y="-440.95999" />
    <g
       id="g4155"
       transform="matrix(7.8620994,0,0,7.8620994,78.147727,-8273.5655)"
       style="filter:url(#filter5691)">
      <circle
         r="24"
         cy="1028.3622"
         cx="24"
         id="path4144"
         style="opacity:1;fill:#ffcc00;fill-rule:nonzero;stroke:none;stroke-width:4;stroke-miterlimit:4;stroke-dasharray:none;stroke-dashoffset:0;stroke-opacity:1" />
      <g
         transform="matrix(0.45096347,0,0,0.45096347,-19.292494,597.07778)"
         id="text4891"
         style="font-style:normal;font-variant:normal;font-weight:normal;font-stretch:normal;font-size:70.51673126px;line-height:125%;font-family:Sail;-inkscape-font-specification:Sail;text-align:start;letter-spacing:0px;word-spacing:0px;text-anchor:start;fill:#cc0000;stroke:none;stroke-width:1px;stroke-linecap:butt;stroke-linejoin:miter;stroke-opacity:1">
        <path
           id="path5142"
           d="M 88.207906,986.75489 C 82.778117,986.75489 80.168998,985.62662 77.277812,983.08802 74.809727,980.97252 73.469909,978.08133 73.469909,974.90808 73.469909,969.54881 77.489363,964.0485 84.258969,964.0485 86.938605,964.0485 89.124623,964.75367 90.464441,966.09349 91.663226,967.15124 92.297876,968.77313 92.297876,970.46553 92.297876,973.63878 90.111857,977.02358 86.868088,977.02358 85.034653,977.02358 83.624318,976.52997 82.707601,975.54273 81.085716,973.92085 81.156233,971.45276 81.156233,971.45276 L 79.816415,971.38226 C 79.745895,971.5233 79.675381,974.41448 81.720366,976.45947 82.919151,977.72877 84.682069,978.43394 86.868088,978.43394 90.887542,978.43394 93.637694,974.34397 93.637694,970.46555 93.637694,968.35005 92.86201,966.44609 91.381159,965.10628 89.759274,963.55491 87.291188,962.70871 84.258969,962.70871 76.643162,962.70871 72.130091,968.91418 72.130091,974.9081 72.130091,978.50445 73.610942,981.74822 76.361095,984.07528 79.534348,986.82543 84.258969,988.30628 89.970824,988.30628 103.93314,988.30628 112.81824,980.83151 112.81824,970.254 112.81824,960.45217 101.95867,956.43272 95.894229,950.79138 99.843166,949.80414 103.29849,947.68864 104.42675,946.84244 105.62554,947.54761 107.17691,947.90019 108.93982,947.90019 115.9915,947.90019 119.86992,942.4704 119.86992,937.25217 119.86992,934.36098 118.74165,931.61083 116.62615,929.63636 114.22858,927.45034 110.70274,926.18104 106.47174,926.18104 93.990278,926.18104 83.412768,934.14943 83.412768,946.84244 83.412768,947.68864 83.412768,948.46433 83.553801,949.24001 79.322798,947.82968 77.418846,944.86797 76.572645,942.32937 74.73921,936.61752 76.925229,928.79016 81.367783,925.54639 L 80.592099,924.41812 C 75.655928,928.08499 73.258359,936.47648 75.303344,942.75247 76.149545,945.29107 78.265047,949.09898 83.765352,950.72086 86.656538,963.20232 103.86262,962.63819 103.86262,975.68379 103.86262,982.24184 98.291798,986.75491 88.207906,986.75491 Z M 103.43952,946.06674 C 102.31125,946.84242 98.785415,948.95792 94.695445,949.87464 86.727054,944.44485 91.028575,927.52084 106.47174,927.52084 110.35016,927.52084 113.52341,928.64911 115.70943,930.62357 117.54287,932.38649 118.5301,934.71354 118.5301,937.25215 118.5301,941.83573 115.1453,946.70139 108.93982,946.70139 107.67052,946.70139 106.61277,946.41932 105.69606,945.99622 108.86931,943.17555 110.84378,939.50868 110.84378,936.1944 110.84378,932.80959 109.15137,931.04667 106.11916,931.04667 102.31125,931.04667 100.19575,934.21993 100.19575,938.23938 100.19575,941.20108 101.32402,944.16279 103.43952,946.06674 Z M 106.04864,932.31598 C 108.30517,932.31598 109.43344,933.58528 109.43344,936.1944 109.43344,939.50868 107.24742,943.24607 104.49727,945.22054 102.5228,943.59865 101.60608,940.8485 101.60608,938.23938 101.60608,934.78406 103.15745,932.31598 106.04864,932.31598 Z"
           inkscape:connector-curvature="0" />
      </g>
    </g>
    <g
       transform="matrix(7.8620994,0,0,7.8620994,488.74432,-699.32817)"
       id="g4259">
      <g
         transform="matrix(0.74281983,0,0,0.74281983,10.345026,-737.85912)"
         id="g5202"
         style="fill:#ffffff">
        <g
           id="flowRoot4457"
           style="font-style:normal;font-variant:normal;font-weight:normal;font-stretch:normal;font-size:197.99998474px;line-height:125%;font-family:Sail;-inkscape-font-specification:'Sail, Normal';text-align:start;letter-spacing:0px;word-spacing:0px;writing-mode:lr-tb;text-anchor:start;fill:#ffffff;fill-opacity:1;stroke:none;stroke-width:1px;stroke-linecap:butt;stroke-linejoin:miter;stroke-opacity:1"
           transform="matrix(0.07133568,0,0,0.07133568,36.670915,1037.4233)">
          <path
             id="path4208"
             d="M -490.69735,738.2088 Q -490.69735,767.9088 -471.49135,777.4128 -466.73935,778.0068 -459.01735,778.0068 -451.09735,778.0068 -442.38535,775.0368 -433.67335,772.0668 -428.92135,767.7108 -418.82335,758.4048 -416.24935,751.6728 L -415.25935,748.7028 -411.29935,750.2868 Q -412.68535,754.8408 -416.64535,760.7808 -420.60535,766.7208 -425.75335,770.8788 -430.70335,775.0368 -440.40535,778.4028 -449.90935,781.9668 -461.59135,781.9668 -486.53935,781.9668 -500.39935,767.5128 -514.06135,753.0588 -514.06135,726.7248 -514.06135,690.88681 -490.89535,667.72081 -467.72935,644.55481 -430.10935,644.55481 -412.68535,644.55481 -404.96335,650.89081 -397.24135,657.02881 -397.24135,670.29481 -397.24135,679.20481 -405.95335,692.2728 -413.87335,704.9448 -413.87335,712.0728 L -418.22935,712.0728 Q -418.22935,708.1128 -416.64535,703.5588 -415.06135,699.0048 -413.87335,697.0248 -412.68535,695.0448 -409.51735,689.89681 -401.79535,678.21481 -401.79535,670.69081 -401.79535,654.85081 -414.86335,650.69281 -421.00135,648.71281 -427.73335,648.71281 -434.46535,648.71281 -441.98935,649.50481 -448.91935,651.68281 -455.25535,655.24681 -461.39335,658.61281 -468.12535,665.74081 -474.85735,672.67081 -479.60935,681.97681 -484.36135,691.28281 -487.52935,705.9348 -490.69735,720.3888 -490.69735,738.2088 Z"
             inkscape:connector-curvature="0" />
          <path
             id="path4210"
             d="M -323.08417,766.9188 Q -340.50817,766.9188 -342.09217,751.6728 -350.80417,766.9188 -364.07017,766.9188 -377.33617,766.9188 -385.25617,758.9988 -392.97816,750.8808 -392.97816,736.4268 -392.97816,713.8548 -381.89017,700.9848 -370.80217,688.11481 -353.18017,688.11481 -338.72617,688.11481 -333.97417,701.7768 -332.98417,695.8368 -331.79617,689.89681 -317.14417,689.89681 -310.01617,688.70881 L -307.44217,688.11481 -321.10417,762.9588 Q -315.16417,762.3648 -311.20417,757.4148 L -308.23417,759.7908 Q -314.17417,766.9188 -323.08417,766.9188 Z M -370.60417,746.5248 Q -370.60417,755.4348 -368.42617,758.9988 -366.05017,762.3648 -361.29817,762.3648 -356.54617,762.3648 -351.59617,757.2168 -345.06217,750.4848 -341.10217,740.1888 -340.50817,737.6148 -338.92417,727.9128 -337.14217,718.0128 -335.95417,711.6768 -336.54817,704.1528 -340.11217,698.6088 -343.67617,693.0648 -349.02217,693.0648 -358.72417,693.0648 -364.66417,710.4888 -370.60417,727.7148 -370.60417,746.5248 Z"
             inkscape:connector-curvature="0" />
          <path
             id="path4212"
             d="M -295.88392,695.2428 Q -289.94392,688.11481 -281.03392,688.11481 -271.92592,688.11481 -266.97592,692.6688 -262.02593,697.2228 -262.02593,705.5388 L -262.02593,706.7268 Q -253.11593,688.11481 -238.85993,688.11481 -223.61393,688.11481 -223.61393,703.9548 -223.61393,710.4888 -227.96993,717.8148 -232.32593,725.1408 -236.68193,731.8728 -241.03793,738.4068 -241.03793,743.5548 L -245.78993,743.5548 Q -245.78993,736.2288 -237.27593,723.7548 -228.76193,711.2808 -228.76193,704.5488 -228.76193,697.6188 -231.53393,695.2428 -234.10793,692.6688 -239.45393,692.6688 -244.60193,692.6688 -249.74993,697.2228 -254.69993,701.7768 -258.06593,708.7068 -263.41193,719.0028 -265.19392,725.5368 L -265.19392,725.7348 -272.32192,765.1368 -296.08192,765.1368 -283.01392,692.0748 Q -288.95392,692.6688 -292.91392,697.6188 L -295.88392,695.2428 Z"
             inkscape:connector-curvature="0" />
          <path
             id="path4214"
             d="M -142.71547,762.9588 Q -137.96348,762.9588 -132.81548,757.4148 L -129.84548,759.7908 Q -131.23148,762.5628 -135.98348,764.7408 -140.73547,766.9188 -146.47747,766.9188 -164.49547,766.9188 -164.49547,750.6828 -164.49547,743.7528 -160.93147,725.9328 -157.36747,708.1128 -157.36747,702.5688 -157.36747,694.0548 -165.48547,694.0548 -172.01947,694.0548 -178.15747,702.5688 -184.09747,711.0828 -188.05747,725.9328 L -194.78947,762.9588 Q -188.65147,762.3648 -184.69147,757.4148 L -181.72147,759.7908 Q -187.66147,766.9188 -196.57147,766.9188 -205.48147,766.9188 -210.62947,762.3648 -215.57947,757.8108 -215.57947,750.4848 -215.57947,747.7128 -212.41147,728.7048 L -205.87747,692.0748 Q -211.81747,692.6688 -215.77747,697.6188 L -218.74747,695.2428 Q -212.80747,688.11481 -203.89747,688.11481 -194.78947,688.11481 -189.83947,692.6688 -184.88947,697.2228 -184.88947,705.5388 L -184.88947,706.7268 Q -176.77147,688.11481 -159.54547,688.11481 -147.86347,688.11481 -141.32947,694.8468 -134.79548,701.3808 -134.79548,713.0628 -134.79548,719.2008 -138.55748,736.8228 -142.31947,754.2468 -142.71547,762.9588 Z"
             inkscape:connector-curvature="0" />
          <path
             id="path4216"
             d="M -50.834193,766.9188 Q -68.258192,766.9188 -69.842192,751.6728 -78.554191,766.9188 -91.82019,766.9188 -105.08619,766.9188 -113.00619,758.9988 -120.72819,750.8808 -120.72819,736.4268 -120.72819,713.8548 -109.64019,700.9848 -98.552189,688.11481 -80.930191,688.11481 -66.476192,688.11481 -61.724192,701.7768 -60.734192,695.8368 -59.546192,689.89681 -44.894194,689.89681 -37.766194,688.70881 L -35.192194,688.11481 -48.854193,762.9588 Q -42.914194,762.3648 -38.954194,757.4148 L -35.984194,759.7908 Q -41.924194,766.9188 -50.834193,766.9188 Z M -98.354189,746.5248 Q -98.354189,755.4348 -96.17619,758.9988 -93.80019,762.3648 -89.04819,762.3648 -84.29619,762.3648 -79.346191,757.2168 -72.812191,750.4848 -68.852192,740.1888 -68.258192,737.6148 -66.674192,727.9128 -64.892192,718.0128 -63.704192,711.6768 -64.298192,704.1528 -67.862192,698.6088 -71.426191,693.0648 -76.772191,693.0648 -86.47419,693.0648 -92.41419,710.4888 -98.354189,727.7148 -98.354189,746.5248 Z"
             inkscape:connector-curvature="0" />
          <path
             id="path4218"
             d="M -12.545939,689.89681 -7.199939,660.59281 Q 7.4520598,660.59281 14.580059,659.40481 L 17.154059,658.81081 Q 14.382059,672.67081 11.01606,689.89681 L 35.568058,689.89681 35.172058,693.4608 10.42206,693.4608 Q 0.52206038,744.5448 0.52206038,755.0388 0.52206038,761.3748 7.2540599,761.3748 13.986059,761.3748 19.530059,752.8608 25.074058,744.3468 27.450058,734.4468 L 31.014058,735.6348 Q 23.688059,766.9188 0.72006036,766.9188 -8.7839389,766.9188 -15.119938,761.7708 -21.455938,756.4248 -21.455938,747.1188 -21.455938,737.6148 -13.337939,693.4608 L -23.039938,693.4608 -22.643938,689.89681 -12.545939,689.89681 Z"
             inkscape:connector-curvature="0" />
          <path
             id="path4220"
             d="M 75.616623,759.7908 Q 69.676623,766.9188 60.766624,766.9188 51.856625,766.9188 46.708625,762.3648 41.758625,757.8108 41.758625,750.4848 41.758625,747.9108 44.926625,728.9028 L 51.460625,693.4608 43.144625,693.4608 43.540625,689.89681 52.054625,689.89681 Q 66.706623,689.89681 73.636623,688.70881 L 76.408623,688.11481 62.746624,762.9588 Q 68.686623,762.3648 72.646623,757.4148 L 75.616623,759.7908 Z M 58.192624,669.10681 Q 54.034624,664.94881 54.034624,659.00881 54.034624,653.06881 58.192624,648.91081 62.350624,644.55481 68.290623,644.55481 74.230623,644.55481 78.388623,648.91081 82.744622,653.06881 82.744622,659.00881 82.744622,664.94881 78.388623,669.10681 74.230623,673.26481 68.290623,673.26481 62.350624,673.26481 58.192624,669.10681 Z"
             inkscape:connector-curvature="0" />
          <path
             id="path4222"
             d="M 134.65775,723.7548 Q 130.49975,719.5968 130.49975,713.6568 130.49975,707.7168 134.65775,703.5588 138.81575,699.2028 144.75575,699.2028 146.53775,699.2028 149.30975,699.9948 145.54775,693.0648 135.25175,693.0648 124.95575,693.0648 117.03575,706.1328 109.11575,719.2008 109.11575,744.9408 109.11575,753.8508 113.07575,758.2068 117.23375,762.3648 123.37175,762.3648 129.50975,762.3648 134.45975,759.9888 139.60775,757.6128 142.57775,754.4448 145.54775,751.0788 147.72575,747.5148 151.68575,740.9808 151.68575,739.1988 L 155.24975,740.7828 Q 154.65575,743.9508 151.68575,749.2968 148.71575,754.4448 145.15175,757.8108 141.58775,761.1768 134.65775,764.1468 127.72775,766.9188 119.21375,766.9188 103.17575,766.9188 94.85975,759.3948 86.741751,751.6728 86.741751,738.4068 86.741751,714.8448 98.42375,701.5788 110.30375,688.11481 130.49975,688.11481 144.16175,688.11481 151.48775,695.0448 158.81375,701.9748 158.81375,713.2608 158.81375,720.3888 154.45775,724.1508 150.29975,727.9128 144.55775,727.9128 138.81575,727.9128 134.65775,723.7548 Z"
             inkscape:connector-curvature="0" />
        </g>
        <g
           id="flowRoot4465"
           style="font-style:normal;font-variant:normal;font-weight:normal;font-stretch:normal;font-size:220.80560303px;line-height:125%;font-family:Sail;-inkscape-font-specification:'Sail, Normal';text-align:start;letter-spacing:0px;word-spacing:0px;writing-mode:lr-tb;text-anchor:start;fill:#ffffff;fill-opacity:1;stroke:none;stroke-width:1px;stroke-linecap:butt;stroke-linejoin:miter;stroke-opacity:1"
           transform="matrix(0.05815261,0,0,0.05815261,40.051108,1067.9912)">
          <path
             id="path4225"
             d="M -319.09735,458.57468 -313.13559,425.89545 Q -296.79598,425.89545 -288.84698,424.57062 L -285.9765,423.9082 Q -289.06778,439.36459 -292.82148,458.57468 L -265.44158,458.57468 -265.88319,462.54918 -293.4839,462.54918 Q -304.52418,519.51703 -304.52418,531.21972 -304.52418,538.2855 -297.01678,538.2855 -289.50939,538.2855 -283.32684,528.79086 -277.14428,519.29622 -274.49461,508.25594 L -270.52011,509.58078 Q -278.68992,544.46806 -304.30337,544.46806 -314.90204,544.46806 -321.96782,538.72712 -329.0336,532.76536 -329.0336,522.3875 -329.0336,511.78883 -319.98057,462.54918 L -330.80004,462.54918 -330.35843,458.57468 -319.09735,458.57468 Z"
             inkscape:connector-curvature="0" />
          <path
             id="path4227"
             d="M -247.93929,461.00354 Q -253.23863,461.00354 -258.97957,467.1861 L -262.29166,464.53643 Q -260.74602,461.44515 -255.44668,459.01629 -250.14735,456.58743 -243.74398,456.58743 -223.65067,456.58743 -223.65067,474.69349 -223.65067,482.42169 -227.62518,502.29419 -231.59968,522.16669 -231.59968,528.34925 -231.59968,537.84389 -222.54665,537.84389 -216.14328,537.84389 -210.18153,530.3365 -203.99898,522.82911 -199.58286,509.58078 L -190.30903,458.57468 Q -173.96941,458.57468 -166.46202,457.24985 L -163.59155,456.58743 -178.38553,540.05195 Q -171.76136,539.38953 -167.34525,533.86939 L -164.03316,536.51906 Q -170.65733,544.46806 -180.59358,544.46806 -190.52983,544.46806 -196.04997,539.61034 -201.57011,534.75261 -201.79092,525.92039 -211.06476,544.46806 -229.17081,544.46806 -242.19835,544.46806 -249.48493,537.18148 -256.77151,529.67409 -256.77151,516.64655 -256.77151,509.80158 -252.57621,490.37069 -248.3809,470.71899 -247.93929,461.00354 Z"
             inkscape:connector-curvature="0" />
          <path
             id="path4229"
             d="M -66.205927,540.05195 Q -60.906593,540.05195 -55.165647,533.86939 L -51.853563,536.51906 Q -53.399203,539.61034 -58.698537,542.0392 -63.997871,544.46806 -70.401234,544.46806 -90.494544,544.46806 -90.494544,526.362 -90.494544,518.63381 -86.520043,498.7613 -82.545542,478.8888 -82.545542,472.70624 -82.545542,463.2116 -91.598572,463.2116 -98.885157,463.2116 -105.73013,472.70624 -112.3543,482.20088 -116.77041,498.7613 L -124.2778,540.05195 Q -117.43283,539.38953 -113.01672,533.86939 L -109.70463,536.51906 Q -116.3288,544.46806 -126.26505,544.46806 -136.2013,544.46806 -141.94225,539.38953 -147.46239,534.311 -147.46239,526.1412 -147.46239,523.04992 -143.9295,501.85258 L -136.64291,461.00354 Q -143.26708,461.66596 -147.6832,467.1861 L -150.99528,464.53643 Q -144.37111,456.58743 -134.43486,456.58743 -124.2778,456.58743 -118.75766,461.66596 -113.23752,466.74449 -113.23752,476.01832 L -113.23752,477.34316 Q -104.18449,456.58743 -84.974404,456.58743 -71.946873,456.58743 -64.660288,464.09482 -57.373703,471.38141 -57.373703,484.40894 -57.373703,491.25391 -61.56901,510.90561 -65.764316,530.3365 -66.205927,540.05195 Z"
             inkscape:connector-curvature="0" />
          <path
             id="path4231"
             d="M 6.0078568,456.58743 Q 34.050168,456.58743 34.050168,478.8888 34.050168,492.79955 20.801832,500.08613 7.7743016,507.15191 -16.514315,507.37272 -16.955926,515.32172 -16.955926,519.95864 -16.955926,529.89489 -12.539814,534.75261 -7.9028962,539.38953 -1.0579225,539.38953 5.7870511,539.38953 11.307191,536.73986 17.048137,534.0902 20.360221,530.55731 23.672305,526.80361 26.101167,522.82911 30.517279,515.54253 30.517279,513.55528 L 34.49178,515.32172 Q 33.829363,518.85461 30.517279,524.81636 27.205195,530.55731 23.230694,534.311 19.256193,538.0647 11.527997,541.37678 3.7998007,544.46806 -5.6948402,544.46806 -23.580094,544.46806 -32.853929,536.07745 -41.906959,527.46603 -41.906959,512.67205 -41.906959,486.39619 -28.879429,471.60221 -15.851898,456.58743 6.0078568,456.58743 Z M 28.530028,478.8888 Q 28.530028,471.60221 24.113916,466.96529 19.91861,462.10757 11.307191,462.10757 2.9165783,462.10757 -5.253229,472.26463 -13.202231,482.42169 -15.851898,502.29419 28.530028,502.07339 28.530028,478.8888 Z"
             inkscape:connector-curvature="0" />
          <path
             id="path4233"
             d="M 47.18467,464.53643 Q 53.808838,456.58743 63.74509,456.58743 73.902148,456.58743 79.422288,461.66596 84.942428,466.74449 84.942428,476.01832 L 84.942428,477.34316 Q 94.87868,456.58743 110.77668,456.58743 127.77872,456.58743 127.77872,474.25188 127.77872,481.53846 122.92099,489.70827 118.06327,497.87808 113.20555,505.38547 108.34782,512.67205 108.34782,518.413 L 103.04849,518.413 Q 103.04849,510.24319 112.54313,496.33244 122.03777,482.42169 122.03777,474.9143 122.03777,467.1861 118.94649,464.53643 116.07602,461.66596 110.11427,461.66596 104.37332,461.66596 98.632376,466.74449 93.112236,471.82302 89.35854,479.55121 83.396789,491.0331 81.409539,498.31969 L 81.409539,498.5405 73.460537,542.48081 46.963865,542.48081 61.537034,461.00354 Q 54.912866,461.66596 50.496754,467.1861 L 47.18467,464.53643 Z"
             inkscape:connector-curvature="0" />
        </g>
      </g>
      <path
         d="M 6.1709119,65.233342 Q 7.8654629,65.233342 8.8015005,64.539384 9.7536766,63.845426 9.7536766,62.699585 9.7536766,61.876519 9.3340737,61.247118 8.9306092,60.617711 8.3173431,60.214244 7.704077,59.794644 7.0585338,59.391178 6.4291292,58.987712 5.8804174,58.374445 5.3317058,57.761179 5.1541813,56.986529 3.6855706,56.550787 3.2175517,55.162871 3.0400273,54.630297 3.0400273,54.049306 3.0400273,53.468322 3.2175517,52.838914 3.588739,51.59624 4.4279452,50.96684 L 4.6054697,51.225056 Q 3.8469563,51.773765 3.5080461,52.935747 3.3466604,53.516738 3.3466604,54.049306 3.3466604,54.58188 3.5080461,55.066038 3.8953721,56.244154 5.1057656,56.64762 5.0734886,56.470096 5.0734886,56.098905 5.0734886,53.984755 6.6066537,52.67753 8.1398188,51.370306 10.350805,51.370306 11.803276,51.370306 12.674759,52.161097 13.417134,52.855055 13.417134,53.871781 13.417134,54.872372 12.739314,55.614747 12.061494,56.340987 10.915654,56.340987 10.28625,56.340987 9.8827857,56.098905 9.0597179,56.728312 7.9300173,57.00267 8.2527889,57.309303 9.4309052,58.13237 10.62516,58.955436 11.206149,59.713952 11.803276,60.456327 11.803276,61.456918 11.803276,63.296717 10.366943,64.442551 8.9467478,65.588392 6.7519009,65.588392 4.5731925,65.588392 3.4596305,64.620076 2.4913157,63.797009 2.4913157,62.602752 2.4913157,61.424636 3.2498289,60.585435 4.0244808,59.730086 5.17032,59.730086 6.3161593,59.730086 6.8648709,60.24652 7.4135827,60.746819 7.4135827,61.473052 7.4135827,62.199293 6.9617025,62.764143 6.5259608,63.328993 5.8158632,63.328993 5.1057657,63.328993 4.6861626,62.87711 4.2988367,62.489785 4.2504209,61.908794 4.2342819,61.74741 4.2504209,61.715135 L 4.557054,61.731265 Q 4.540915,62.296122 4.9121028,62.667306 5.2187357,63.006214 5.7997247,63.006214 6.3968521,63.006214 6.7519009,62.538197 7.1069497,62.086315 7.1069497,61.48919 7.1069497,60.875923 6.6873466,60.504739 6.2193278,60.036715 5.1864586,60.036715 4.1535895,60.036715 3.4757691,60.795231 2.7979487,61.537606 2.7979487,62.586614 2.7979487,63.651756 3.6694321,64.394131 4.1858666,64.846013 4.7184398,65.039679 5.2671515,65.233338 6.170912,65.233338 Z M 8.9144706,54.129997 Q 8.9144706,53.419905 9.2695193,52.951881 9.6407066,52.483864 10.270111,52.483864 11.351396,52.483864 11.351396,53.678122 11.351396,54.856238 10.17328,55.905246 10.528329,56.066629 10.915654,56.066629 11.916246,56.066629 12.513374,55.421088 13.110502,54.759405 13.110502,53.887922 13.110502,53.000298 12.464958,52.387031 11.674168,51.676939 10.383081,51.676939 9.0919949,51.676939 8.1882345,52.30634 6.784178,53.306931 6.784178,54.888513 6.784178,56.195738 7.6556613,56.79287 8.7369462,56.550787 9.656845,55.92138 8.9144706,55.259704 8.9144706,54.129997 Z M 10.253973,52.774363 Q 9.7698157,52.774363 9.4954595,53.145547 9.2372422,53.516738 9.2372422,54.129997 9.2372422,55.179005 9.898924,55.727721 10.383081,55.388812 10.705853,54.807821 11.028624,54.22683 11.028624,53.661981 11.028624,52.774363 10.253973,52.774363 Z"
         style="font-style:normal;font-variant:normal;font-weight:normal;font-stretch:normal;font-size:medium;line-height:50%;font-family:Sail;-inkscape-font-specification:'Sail, Normal';text-align:start;letter-spacing:0px;word-spacing:0px;writing-mode:lr-tb;text-anchor:start;fill:#ffffff;fill-opacity:1;stroke:none;stroke-width:1px;stroke-linecap:butt;stroke-linejoin:miter;stroke-opacity:1"
         id="path4195"
         inkscape:connector-curvature="0" />
      <path
         d="M 19.661757,61.924935 Q 20.049083,61.924935 20.468686,61.473052 L 20.710765,61.666718 Q 20.597794,61.89266 20.210468,62.070185 19.823143,62.247709 19.355124,62.247709 17.886513,62.247709 17.886513,60.924344 17.886513,60.359494 18.177008,58.90702 18.467502,57.454546 18.467502,57.00267 18.467502,56.308712 17.80582,56.308712 17.257108,56.308712 16.740674,57.051087 16.240378,57.793461 15.917606,59.068403 L 15.385033,62.10246 13.448403,62.10246 15.239786,51.967431 Q 14.755628,52.015851 14.432857,52.419314 L 14.190778,52.225648 Q 14.674936,51.644657 15.401171,51.644657 16.143546,51.644657 16.547011,52.015848 16.950476,52.387031 16.950476,53.064855 16.950476,53.193964 16.918196,53.484456 L 16.240376,57.309303 Q 16.902058,55.824554 18.289976,55.824554 19.242152,55.824554 19.774725,56.373263 20.307298,56.905837 20.307298,57.858012 20.307298,58.358311 20.000665,59.794644 19.694032,61.214836 19.661755,61.924935 Z"
         style="font-style:normal;font-variant:normal;font-weight:normal;font-stretch:normal;font-size:medium;line-height:50%;font-family:Sail;-inkscape-font-specification:'Sail, Normal';text-align:start;letter-spacing:0px;word-spacing:0px;writing-mode:lr-tb;text-anchor:start;fill:#ffffff;fill-opacity:1;stroke:none;stroke-width:1px;stroke-linecap:butt;stroke-linejoin:miter;stroke-opacity:1"
         id="path4197"
         inkscape:connector-curvature="0" />
      <path
         d="M 21.555267,56.405538 Q 22.039424,55.824554 22.76566,55.824554 23.508035,55.824554 23.9115,56.195738 24.314964,56.566929 24.314964,57.244746 L 24.314964,57.341576 Q 25.0412,55.824551 26.203178,55.824551 27.445848,55.824551 27.445848,57.115634 27.445848,57.648209 27.0908,58.245334 26.735751,58.842466 26.380702,59.391175 26.025654,59.923749 26.025654,60.34335 L 25.638327,60.34335 Q 25.638327,59.746225 26.332286,58.729492 27.026246,57.712759 27.026246,57.164051 27.026246,56.599201 26.800305,56.405535 26.590504,56.195735 26.154762,56.195735 25.735159,56.195735 25.315556,56.566926 24.912092,56.938109 24.637735,57.502959 24.201994,58.342167 24.056746,58.874741 L 24.056746,58.890871 23.475757,62.102452 21.539128,62.102452 22.604274,56.147313 Q 22.120117,56.195733 21.797346,56.599196 L 21.555267,56.40553 Z"
         style="font-style:normal;font-variant:normal;font-weight:normal;font-stretch:normal;font-size:medium;line-height:50%;font-family:Sail;-inkscape-font-specification:'Sail, Normal';text-align:start;letter-spacing:0px;word-spacing:0px;writing-mode:lr-tb;text-anchor:start;fill:#ffffff;fill-opacity:1;stroke:none;stroke-width:1px;stroke-linecap:butt;stroke-linejoin:miter;stroke-opacity:1"
         id="path4199"
         inkscape:connector-curvature="0" />
      <path
         d="M 28.794681,56.147321 Q 28.407355,56.147321 27.987751,56.599204 L 27.745673,56.405538 Q 27.858643,56.179604 28.245969,56.002079 28.633295,55.824554 29.101313,55.824554 30.569924,55.824554 30.569924,57.147913 30.569924,57.712762 30.27943,59.165236 29.988936,60.617711 29.988936,61.069593 29.988936,61.763551 30.650618,61.763551 31.118636,61.763551 31.554378,61.214836 32.006258,60.666127 32.32903,59.697811 L 33.00685,55.969796 Q 34.201105,55.969796 34.749817,55.872966 L 34.959618,55.824546 33.878334,61.924927 Q 34.362491,61.876507 34.685263,61.473044 L 34.927341,61.66671 Q 34.443184,62.247701 33.716948,62.247701 32.990712,62.247701 32.587247,61.892652 32.183783,61.537602 32.167644,60.89206 31.489823,62.247701 30.16646,62.247701 29.214283,62.247701 28.68171,61.715127 28.149137,61.166411 28.149137,60.214236 28.149137,59.713944 28.45577,58.293745 28.762404,56.857413 28.794681,56.147313 Z"
         style="font-style:normal;font-variant:normal;font-weight:normal;font-stretch:normal;font-size:medium;line-height:50%;font-family:Sail;-inkscape-font-specification:'Sail, Normal';text-align:start;letter-spacing:0px;word-spacing:0px;writing-mode:lr-tb;text-anchor:start;fill:#ffffff;fill-opacity:1;stroke:none;stroke-width:1px;stroke-linecap:butt;stroke-linejoin:miter;stroke-opacity:1"
         id="path4201"
         inkscape:connector-curvature="0" />
      <path
         d="M 36.83245,55.969796 37.268192,53.581289 Q 38.462447,53.581289 39.043436,53.484459 L 39.253237,53.436039 Q 39.027297,54.565746 38.752941,55.969796 L 40.754125,55.969796 40.721845,56.260295 38.704523,56.260295 Q 37.897593,60.424044 37.897593,61.279393 37.897593,61.795827 38.446305,61.795827 38.995017,61.795827 39.446898,61.101869 39.898777,60.40791 40.092441,59.600978 L 40.382935,59.697808 Q 39.785807,62.247706 37.913732,62.247706 37.13908,62.247706 36.622646,61.828099 36.106211,61.392357 36.106211,60.633849 36.106211,59.859192 36.767893,56.260292 L 35.977102,56.260292 36.009382,55.969793 36.832449,55.969793 Z"
         style="font-style:normal;font-variant:normal;font-weight:normal;font-stretch:normal;font-size:medium;line-height:50%;font-family:Sail;-inkscape-font-specification:'Sail, Normal';text-align:start;letter-spacing:0px;word-spacing:0px;writing-mode:lr-tb;text-anchor:start;fill:#ffffff;fill-opacity:1;stroke:none;stroke-width:1px;stroke-linecap:butt;stroke-linejoin:miter;stroke-opacity:1"
         id="path4203"
         inkscape:connector-curvature="0" />
      <path
         d="M 44.018406,61.666718 Q 43.534248,62.247709 42.808012,62.247709 42.081776,62.247709 41.662173,61.876519 41.258708,61.505335 41.258708,60.908202 41.258708,60.698402 41.516926,59.149102 L 42.049499,56.260295 41.371678,56.260295 41.403958,55.969796 42.097917,55.969796 Q 43.292171,55.969796 43.857022,55.872966 L 44.082962,55.824546 42.9694,61.924927 Q 43.453557,61.876507 43.776329,61.473044 L 44.018408,61.66671 Z M 42.59821,54.275247 Q 42.259301,53.936338 42.259301,53.45218 42.259301,52.968022 42.59821,52.629114 42.937121,52.274064 43.421278,52.274064 43.905436,52.274064 44.244346,52.629114 44.599395,52.968022 44.599395,53.45218 44.599395,53.936338 44.244346,54.275247 43.905436,54.614155 43.421278,54.614155 42.937121,54.614155 42.59821,54.275247 Z"
         style="font-style:normal;font-variant:normal;font-weight:normal;font-stretch:normal;font-size:medium;line-height:50%;font-family:Sail;-inkscape-font-specification:'Sail, Normal';text-align:start;letter-spacing:0px;word-spacing:0px;writing-mode:lr-tb;text-anchor:start;fill:#ffffff;fill-opacity:1;stroke:none;stroke-width:1px;stroke-linecap:butt;stroke-linejoin:miter;stroke-opacity:1"
         id="path4205"
         inkscape:connector-curvature="0" />
      <path
         id="path5200"
         d="M 12.587891,64.435547 12.587891,65.435547 45.890625,65.435547 45.890625,64.435547 12.587891,64.435547 Z"
         style="color:#000000;font-style:normal;font-variant:normal;font-weight:normal;font-stretch:normal;font-size:medium;line-height:normal;font-family:sans-serif;text-indent:0;text-align:start;text-decoration:none;text-decoration-line:none;text-decoration-style:solid;text-decoration-color:#000000;letter-spacing:normal;word-spacing:normal;text-transform:none;direction:ltr;block-progression:tb;writing-mode:lr-tb;baseline-shift:baseline;text-anchor:start;white-space:normal;clip-rule:nonzero;display:inline;overflow:visible;visibility:visible;opacity:1;isolation:auto;mix-blend-mode:normal;color-interpolation:sRGB;color-interpolation-filters:linearRGB;solid-color:#000000;solid-opacity:1;fill:#ffffff;fill-opacity:1;fill-rule:evenodd;stroke:none;stroke-width:1px;stroke-linecap:butt;stroke-linejoin:miter;stroke-miterlimit:4;stroke-dasharray:none;stroke-dashoffset:0;stroke-opacity:1;color-rendering:auto;image-rendering:auto;shape-rendering:auto;text-rendering:auto;enable-background:accumulate"
         inkscape:connector-curvature="0" />
    </g>
    <text
       xml:space="preserve"
       style="font-style:normal;font-variant:normal;font-weight:normal;font-stretch:normal;font-size:34.76579666px;line-height:125%;font-family:Kalam;-inkscape-font-specification:Kalam;text-align:start;letter-spacing:0px;word-spacing:0px;text-anchor:start;fill:#ccff42;fill-opacity:1;stroke:none;stroke-width:1px;stroke-linecap:butt;stroke-linejoin:miter;stroke-opacity:1;"
       x="631.30835"
       y="73.929184"
       id="text4242"
       sodipodi:linespacing="125%"
       transform="matrix(0.99641708,-0.0845754,0.0845754,0.99641708,0,0)"><tspan
         sodipodi:role="line"
         id="tspan4244"
         x="631.30835"
         y="73.929184">Early Access</tspan></text>
    <text
       xml:space="preserve"
       style="font-style:normal;font-variant:normal;font-weight:300;font-stretch:normal;font-size:22.92724991px;line-height:125%;font-family:Roboto;-inkscape-font-specification:'Roboto Light';text-align:start;letter-spacing:0px;word-spacing:0px;text-anchor:start;fill:#cccccc;fill-opacity:1;stroke:none;stroke-width:1px;stroke-linecap:butt;stroke-linejoin:miter;stroke-opacity:1"
       x="736.77979"
       y="-365.14313"
       id="text4171"
       sodipodi:linespacing="125%"><tspan
         sodipodi:role="line"
         id="tspan4173"
         x="736.77979"
         y="-365.14313">© kuyil.org</tspan></text>
  </g>
</svg>
