<?xml version="1.0" encoding="UTF-8" standalone="no"?>
<!-- Created with Inkscape (http://www.inkscape.org/) -->

<svg
   xmlns:dc="http://purl.org/dc/elements/1.1/"
   xmlns:cc="http://creativecommons.org/ns#"
   xmlns:rdf="http://www.w3.org/1999/02/22-rdf-syntax-ns#"
   xmlns:svg="http://www.w3.org/2000/svg"
   xmlns="http://www.w3.org/2000/svg"
   xmlns:sodipodi="http://sodipodi.sourceforge.net/DTD/sodipodi-0.dtd"
   xmlns:inkscape="http://www.inkscape.org/namespaces/inkscape"
   width="48"
   height="48"
   viewBox="0 0 48 48"
   id="svg2"
   version="1.1"
   inkscape:version="0.92.3 (2405546, 2018-03-11)"
   sodipodi:docname="shruti_logo.svg">
  <metadata
     id="metadata12">
    <rdf:RDF>
      <cc:Work
         rdf:about="">
        <dc:format>image/svg+xml</dc:format>
        <dc:type
           rdf:resource="http://purl.org/dc/dcmitype/StillImage" />
        <dc:title></dc:title>
      </cc:Work>
    </rdf:RDF>
  </metadata>
  <defs
     id="defs10" />
  <sodipodi:namedview
     pagecolor="#ffffff"
     bordercolor="#666666"
     borderopacity="1"
     objecttolerance="10"
     gridtolerance="10"
     guidetolerance="10"
     inkscape:pageopacity="0"
     inkscape:pageshadow="2"
     inkscape:window-width="1920"
     inkscape:window-height="1025"
     id="namedview8"
     showgrid="false"
     inkscape:zoom="16.901042"
     inkscape:cx="24.739599"
     inkscape:cy="24"
     inkscape:window-x="0"
     inkscape:window-y="27"
     inkscape:window-maximized="1"
     inkscape:current-layer="layer1"
     inkscape:pagecheckerboard="true" />
  <g
     inkscape:label="Layer 1"
     inkscape:groupmode="layer"
     id="layer1"
     transform="translate(0,-1004.3622)">
    <g
       id="g4155"
       transform="matrix(0.91666667,0,0,0.91666667,1.9999999,85.696863)"
       style="stroke-width:1.09090912">
      <circle
         r="24"
         cy="1028.3622"
         cx="24"
         id="path4144"
         style="opacity:1;fill:#ffcc00;fill-rule:nonzero;stroke:none;stroke-width:4.36363649;stroke-miterlimit:4;stroke-dasharray:none;stroke-dashoffset:0;stroke-opacity:1" />
      <g
         transform="matrix(0.45096347,0,0,0.45096347,-19.292494,597.07778)"
         id="text4891"
         style="font-style:normal;font-variant:normal;font-weight:normal;font-stretch:normal;font-size:70.51673126px;line-height:125%;font-family:Sail;-inkscape-font-specification:Sail;text-align:start;letter-spacing:0px;word-spacing:0px;text-anchor:start;fill:#cc0000;stroke:none;stroke-width:1.09090912px;stroke-linecap:butt;stroke-linejoin:miter;stroke-opacity:1">
        <path
           inkscape:connector-curvature="0"
           id="path5142"
           d="m 88.207906,986.75489 c -5.429789,0 -8.038908,-1.12827 -10.930094,-3.66687 -2.468085,-2.1155 -3.807903,-5.00669 -3.807903,-8.17994 0,-5.35927 4.019454,-10.85958 10.78906,-10.85958 2.679636,0 4.865654,0.70517 6.205472,2.04499 1.198785,1.05775 1.833435,2.67964 1.833435,4.37204 0,3.17325 -2.186019,6.55805 -5.429788,6.55805 -1.833435,0 -3.24377,-0.49361 -4.160487,-1.48085 -1.621885,-1.62188 -1.551368,-4.08997 -1.551368,-4.08997 l -1.339818,-0.0705 c -0.07052,0.14104 -0.141034,3.03222 1.903951,5.07721 1.198785,1.2693 2.961703,1.97447 5.147722,1.97447 4.019454,0 6.769606,-4.08997 6.769606,-7.96839 0,-2.1155 -0.775684,-4.01946 -2.256535,-5.35927 -1.621885,-1.55137 -4.089971,-2.39757 -7.12219,-2.39757 -7.615807,0 -12.128878,6.20547 -12.128878,12.19939 0,3.59635 1.480851,6.84012 4.231004,9.16718 3.173253,2.75015 7.897874,4.231 13.609729,4.231 13.962316,0 22.847416,-7.47477 22.847416,-18.05228 0,-9.80183 -10.85957,-13.82128 -16.924011,-19.46262 3.948937,-0.98724 7.404261,-3.10274 8.532521,-3.94894 1.19879,0.70517 2.75016,1.05775 4.51307,1.05775 7.05168,0 10.9301,-5.42979 10.9301,-10.64802 0,-2.89119 -1.12827,-5.64134 -3.24377,-7.61581 -2.39757,-2.18602 -5.92341,-3.45532 -10.15441,-3.45532 -12.481462,0 -23.058972,7.96839 -23.058972,20.6614 0,0.8462 0,1.62189 0.141033,2.39757 -4.231003,-1.41033 -6.134955,-4.37204 -6.981156,-6.91064 -1.833435,-5.71185 0.352584,-13.53921 4.795138,-16.78298 l -0.775684,-1.12827 c -4.936171,3.66687 -7.33374,12.05836 -5.288755,18.33435 0.846201,2.5386 2.961703,6.34651 8.462008,7.96839 2.891186,12.48146 20.097268,11.91733 20.097268,24.96293 0,6.55805 -5.570822,11.07112 -15.654714,11.07112 z m 15.231614,-40.68815 c -1.12827,0.77568 -4.654105,2.89118 -8.744075,3.8079 -7.968391,-5.42979 -3.66687,-22.3538 11.776295,-22.3538 3.87842,0 7.05167,1.12827 9.23769,3.10273 1.83344,1.76292 2.82067,4.08997 2.82067,6.62858 0,4.58358 -3.3848,9.44924 -9.59028,9.44924 -1.2693,0 -2.32705,-0.28207 -3.24376,-0.70517 3.17325,-2.82067 5.14772,-6.48754 5.14772,-9.80182 0,-3.38481 -1.69241,-5.14773 -4.72462,-5.14773 -3.80791,0 -5.92341,3.17326 -5.92341,7.19271 0,2.9617 1.12827,5.92341 3.24377,7.82736 z m 2.60912,-13.75076 c 2.25653,0 3.3848,1.2693 3.3848,3.87842 0,3.31428 -2.18602,7.05167 -4.93617,9.02614 -1.97447,-1.62189 -2.89119,-4.37204 -2.89119,-6.98116 0,-3.45532 1.55137,-5.9234 4.44256,-5.9234 z"
           style="stroke-width:1.09090912px" />
      </g>
    </g>
  </g>
</svg>
