<?xml version="1.0" encoding="UTF-8"?>
<svg width="130.49" height="109.45" version="1.1" viewBox="0 0 130.49 109.45" xmlns="http://www.w3.org/2000/svg">
 <g>
  <path d="m49.081 102.82c-3.8876 0-3.227-1.4679-4.5678-5.1695l-11.432-37.625 88-52.206" fill="#9ba4ac"/>
  <path d="m49.081 102.82c3 0 4.3255-1.372 6-3l16-15.558-19.958-12.035" fill="#a9b2bb"/>
  <path d="m51.121 72.23 48.36 35.729c5.5185 3.0449 9.5014 1.4684 10.876-5.1235l19.685-92.763c2.0154-8.0802-3.0801-11.745-8.3594-9.3482l-115.59 44.571c-7.8901 3.1647-7.8441 7.5666-1.4382 9.528l29.663 9.2583 68.673-43.325c3.2419-1.9659 6.2173-0.90899 3.7752 1.2584" fill="#959da5"/>
 </g>
</svg>
